G04 #@! TF.GenerationSoftware,KiCad,Pcbnew,5.0.0-fee4fd1~65~ubuntu16.04.1*
G04 #@! TF.CreationDate,2018-09-09T14:28:19+03:00*
G04 #@! TF.ProjectId,la3600_equalizer_amp,6C61333630305F657175616C697A6572,rev?*
G04 #@! TF.SameCoordinates,Original*
G04 #@! TF.FileFunction,Copper,L2,Bot,Signal*
G04 #@! TF.FilePolarity,Positive*
%FSLAX46Y46*%
G04 Gerber Fmt 4.6, Leading zero omitted, Abs format (unit mm)*
G04 Created by KiCad (PCBNEW 5.0.0-fee4fd1~65~ubuntu16.04.1) date Sun Sep  9 14:28:19 2018*
%MOMM*%
%LPD*%
G01*
G04 APERTURE LIST*
G04 #@! TA.AperFunction,ComponentPad*
%ADD10C,2.340000*%
G04 #@! TD*
G04 #@! TA.AperFunction,ComponentPad*
%ADD11R,1.600000X1.600000*%
G04 #@! TD*
G04 #@! TA.AperFunction,ComponentPad*
%ADD12C,1.600000*%
G04 #@! TD*
G04 #@! TA.AperFunction,ComponentPad*
%ADD13C,2.000000*%
G04 #@! TD*
G04 #@! TA.AperFunction,ComponentPad*
%ADD14R,2.000000X2.000000*%
G04 #@! TD*
G04 #@! TA.AperFunction,ComponentPad*
%ADD15O,1.750000X3.500000*%
G04 #@! TD*
G04 #@! TA.AperFunction,ComponentPad*
%ADD16R,3.500000X2.500000*%
G04 #@! TD*
G04 #@! TA.AperFunction,ComponentPad*
%ADD17R,1.700000X1.700000*%
G04 #@! TD*
G04 #@! TA.AperFunction,ComponentPad*
%ADD18C,1.700000*%
G04 #@! TD*
G04 #@! TA.AperFunction,ComponentPad*
%ADD19C,3.500000*%
G04 #@! TD*
G04 #@! TA.AperFunction,ComponentPad*
%ADD20O,1.600000X1.600000*%
G04 #@! TD*
G04 #@! TA.AperFunction,ViaPad*
%ADD21C,0.800000*%
G04 #@! TD*
G04 #@! TA.AperFunction,Conductor*
%ADD22C,0.400000*%
G04 #@! TD*
G04 #@! TA.AperFunction,Conductor*
%ADD23C,0.800000*%
G04 #@! TD*
G04 #@! TA.AperFunction,Conductor*
%ADD24C,0.600000*%
G04 #@! TD*
G04 #@! TA.AperFunction,Conductor*
%ADD25C,0.700000*%
G04 #@! TD*
G04 APERTURE END LIST*
D10*
G04 #@! TO.P,22K4,4*
G04 #@! TO.N,Net-(22K1-Pad4)*
X41830000Y-96113600D03*
G04 #@! TO.P,22K4,5*
G04 #@! TO.N,Net-(22K4-Pad5)*
X41830000Y-101113600D03*
G04 #@! TO.P,22K4,6*
G04 #@! TO.N,Net-(22K1-Pad6)*
X41830000Y-106113600D03*
G04 #@! TO.P,22K4,1*
G04 #@! TO.N,Net-(22K1-Pad1)*
X36830000Y-96113600D03*
G04 #@! TO.P,22K4,2*
G04 #@! TO.N,Net-(22K4-Pad2)*
X36830000Y-101113600D03*
G04 #@! TO.P,22K4,3*
G04 #@! TO.N,Net-(22K1-Pad3)*
X36830000Y-106113600D03*
G04 #@! TD*
G04 #@! TO.P,22K2,4*
G04 #@! TO.N,Net-(22K1-Pad4)*
X41830000Y-144475200D03*
G04 #@! TO.P,22K2,5*
G04 #@! TO.N,Net-(22K2-Pad5)*
X41830000Y-149475200D03*
G04 #@! TO.P,22K2,6*
G04 #@! TO.N,Net-(22K1-Pad6)*
X41830000Y-154475200D03*
G04 #@! TO.P,22K2,1*
G04 #@! TO.N,Net-(22K1-Pad1)*
X36830000Y-144475200D03*
G04 #@! TO.P,22K2,2*
G04 #@! TO.N,Net-(22K2-Pad2)*
X36830000Y-149475200D03*
G04 #@! TO.P,22K2,3*
G04 #@! TO.N,Net-(22K1-Pad3)*
X36830000Y-154475200D03*
G04 #@! TD*
G04 #@! TO.P,22K1,3*
G04 #@! TO.N,Net-(22K1-Pad3)*
X36830000Y-178656000D03*
G04 #@! TO.P,22K1,2*
G04 #@! TO.N,Net-(22K1-Pad2)*
X36830000Y-173656000D03*
G04 #@! TO.P,22K1,1*
G04 #@! TO.N,Net-(22K1-Pad1)*
X36830000Y-168656000D03*
G04 #@! TO.P,22K1,6*
G04 #@! TO.N,Net-(22K1-Pad6)*
X41830000Y-178656000D03*
G04 #@! TO.P,22K1,5*
G04 #@! TO.N,Net-(22K1-Pad5)*
X41830000Y-173656000D03*
G04 #@! TO.P,22K1,4*
G04 #@! TO.N,Net-(22K1-Pad4)*
X41830000Y-168656000D03*
G04 #@! TD*
G04 #@! TO.P,22K3,3*
G04 #@! TO.N,Net-(22K1-Pad3)*
X36830000Y-130294400D03*
G04 #@! TO.P,22K3,2*
G04 #@! TO.N,Net-(22K3-Pad2)*
X36830000Y-125294400D03*
G04 #@! TO.P,22K3,1*
G04 #@! TO.N,Net-(22K1-Pad1)*
X36830000Y-120294400D03*
G04 #@! TO.P,22K3,6*
G04 #@! TO.N,Net-(22K1-Pad6)*
X41830000Y-130294400D03*
G04 #@! TO.P,22K3,5*
G04 #@! TO.N,Net-(22K3-Pad5)*
X41830000Y-125294400D03*
G04 #@! TO.P,22K3,4*
G04 #@! TO.N,Net-(22K1-Pad4)*
X41830000Y-120294400D03*
G04 #@! TD*
G04 #@! TO.P,22K5,3*
G04 #@! TO.N,Net-(22K1-Pad3)*
X36830000Y-81932800D03*
G04 #@! TO.P,22K5,2*
G04 #@! TO.N,Net-(22K5-Pad2)*
X36830000Y-76932800D03*
G04 #@! TO.P,22K5,1*
G04 #@! TO.N,Net-(22K1-Pad1)*
X36830000Y-71932800D03*
G04 #@! TO.P,22K5,6*
G04 #@! TO.N,Net-(22K1-Pad6)*
X41830000Y-81932800D03*
G04 #@! TO.P,22K5,5*
G04 #@! TO.N,Net-(22K5-Pad5)*
X41830000Y-76932800D03*
G04 #@! TO.P,22K5,4*
G04 #@! TO.N,Net-(22K1-Pad4)*
X41830000Y-71932800D03*
G04 #@! TD*
G04 #@! TO.P,22K6,4*
G04 #@! TO.N,Net-(22K6-Pad4)*
X41830000Y-47752000D03*
G04 #@! TO.P,22K6,5*
G04 #@! TO.N,Net-(22K6-Pad5)*
X41830000Y-52752000D03*
G04 #@! TO.P,22K6,6*
G04 #@! TO.N,GND*
X41830000Y-57752000D03*
G04 #@! TO.P,22K6,1*
G04 #@! TO.N,Net-(22K6-Pad1)*
X36830000Y-47752000D03*
G04 #@! TO.P,22K6,2*
G04 #@! TO.N,Net-(22K6-Pad2)*
X36830000Y-52752000D03*
G04 #@! TO.P,22K6,3*
G04 #@! TO.N,GND*
X36830000Y-57752000D03*
G04 #@! TD*
D11*
G04 #@! TO.P,C1,1*
G04 #@! TO.N,Vcc*
X98425000Y-118364000D03*
D12*
G04 #@! TO.P,C1,2*
G04 #@! TO.N,GND*
X98425000Y-120864000D03*
G04 #@! TD*
G04 #@! TO.P,C2,2*
G04 #@! TO.N,Net-(C2-Pad2)*
X53975000Y-190079000D03*
D11*
G04 #@! TO.P,C2,1*
G04 #@! TO.N,Net-(22K1-Pad3)*
X53975000Y-187579000D03*
G04 #@! TD*
G04 #@! TO.P,C3,1*
G04 #@! TO.N,Net-(22K1-Pad6)*
X43815000Y-187579000D03*
D12*
G04 #@! TO.P,C3,2*
G04 #@! TO.N,Net-(C3-Pad2)*
X43815000Y-190079000D03*
G04 #@! TD*
G04 #@! TO.P,C4,2*
G04 #@! TO.N,Net-(22K1-Pad2)*
X66080000Y-119634000D03*
D11*
G04 #@! TO.P,C4,1*
G04 #@! TO.N,Net-(C4-Pad1)*
X68580000Y-119634000D03*
G04 #@! TD*
D12*
G04 #@! TO.P,C5,2*
G04 #@! TO.N,Net-(22K2-Pad2)*
X71795000Y-119634000D03*
G04 #@! TO.P,C5,1*
G04 #@! TO.N,Net-(C5-Pad1)*
X74295000Y-119634000D03*
G04 #@! TD*
G04 #@! TO.P,C6,1*
G04 #@! TO.N,Net-(C10-Pad2)*
X79375000Y-119634000D03*
G04 #@! TO.P,C6,2*
G04 #@! TO.N,Net-(22K3-Pad2)*
X76875000Y-119634000D03*
G04 #@! TD*
G04 #@! TO.P,C7,1*
G04 #@! TO.N,Net-(C11-Pad2)*
X84455000Y-119634000D03*
G04 #@! TO.P,C7,2*
G04 #@! TO.N,Net-(22K4-Pad2)*
X81955000Y-119634000D03*
G04 #@! TD*
G04 #@! TO.P,C8,1*
G04 #@! TO.N,Net-(C8-Pad1)*
X66040000Y-112649000D03*
G04 #@! TO.P,C8,2*
G04 #@! TO.N,Net-(C4-Pad1)*
X68540000Y-112649000D03*
G04 #@! TD*
G04 #@! TO.P,C9,1*
G04 #@! TO.N,Net-(C9-Pad1)*
X71120000Y-112649000D03*
G04 #@! TO.P,C9,2*
G04 #@! TO.N,Net-(C5-Pad1)*
X73620000Y-112649000D03*
G04 #@! TD*
G04 #@! TO.P,C10,2*
G04 #@! TO.N,Net-(C10-Pad2)*
X78700000Y-112649000D03*
G04 #@! TO.P,C10,1*
G04 #@! TO.N,Net-(C10-Pad1)*
X76200000Y-112649000D03*
G04 #@! TD*
G04 #@! TO.P,C11,2*
G04 #@! TO.N,Net-(C11-Pad2)*
X83780000Y-112649000D03*
G04 #@! TO.P,C11,1*
G04 #@! TO.N,Net-(C11-Pad1)*
X81280000Y-112649000D03*
G04 #@! TD*
D11*
G04 #@! TO.P,C12,1*
G04 #@! TO.N,Net-(C12-Pad1)*
X67310000Y-169164000D03*
D12*
G04 #@! TO.P,C12,2*
G04 #@! TO.N,Net-(22K1-Pad5)*
X64810000Y-169164000D03*
G04 #@! TD*
G04 #@! TO.P,C13,2*
G04 #@! TO.N,Net-(22K2-Pad5)*
X70525000Y-169164000D03*
G04 #@! TO.P,C13,1*
G04 #@! TO.N,Net-(C13-Pad1)*
X73025000Y-169164000D03*
G04 #@! TD*
G04 #@! TO.P,C14,1*
G04 #@! TO.N,Net-(C14-Pad1)*
X78105000Y-169164000D03*
G04 #@! TO.P,C14,2*
G04 #@! TO.N,Net-(22K3-Pad5)*
X75605000Y-169164000D03*
G04 #@! TD*
G04 #@! TO.P,C15,1*
G04 #@! TO.N,Net-(C15-Pad1)*
X83185000Y-169164000D03*
G04 #@! TO.P,C15,2*
G04 #@! TO.N,Net-(22K4-Pad5)*
X80685000Y-169164000D03*
G04 #@! TD*
G04 #@! TO.P,C16,1*
G04 #@! TO.N,Net-(C16-Pad1)*
X65405000Y-162179000D03*
G04 #@! TO.P,C16,2*
G04 #@! TO.N,Net-(C12-Pad1)*
X67905000Y-162179000D03*
G04 #@! TD*
G04 #@! TO.P,C17,2*
G04 #@! TO.N,Net-(C13-Pad1)*
X72985000Y-162179000D03*
G04 #@! TO.P,C17,1*
G04 #@! TO.N,Net-(C17-Pad1)*
X70485000Y-162179000D03*
G04 #@! TD*
G04 #@! TO.P,C18,2*
G04 #@! TO.N,Net-(C14-Pad1)*
X78065000Y-162179000D03*
G04 #@! TO.P,C18,1*
G04 #@! TO.N,Net-(C18-Pad1)*
X75565000Y-162179000D03*
G04 #@! TD*
G04 #@! TO.P,C19,2*
G04 #@! TO.N,Net-(C15-Pad1)*
X84415000Y-162179000D03*
G04 #@! TO.P,C19,1*
G04 #@! TO.N,Net-(C19-Pad1)*
X81915000Y-162179000D03*
G04 #@! TD*
G04 #@! TO.P,C20,2*
G04 #@! TO.N,GND*
X66715000Y-84709000D03*
D11*
G04 #@! TO.P,C20,1*
G04 #@! TO.N,Vcc*
X69215000Y-84709000D03*
G04 #@! TD*
D12*
G04 #@! TO.P,C21,1*
G04 #@! TO.N,Net-(C21-Pad1)*
X82550000Y-97409000D03*
G04 #@! TO.P,C21,2*
G04 #@! TO.N,Net-(C21-Pad2)*
X85050000Y-97409000D03*
G04 #@! TD*
D11*
G04 #@! TO.P,C22,1*
G04 #@! TO.N,Vcc*
X70485000Y-139319000D03*
D12*
G04 #@! TO.P,C22,2*
G04 #@! TO.N,GND*
X67985000Y-139319000D03*
G04 #@! TD*
G04 #@! TO.P,C23,1*
G04 #@! TO.N,Net-(22K5-Pad2)*
X85050000Y-94234000D03*
G04 #@! TO.P,C23,2*
G04 #@! TO.N,Net-(C21-Pad1)*
X82550000Y-94234000D03*
G04 #@! TD*
G04 #@! TO.P,C24,2*
G04 #@! TO.N,GND*
X63460000Y-84709000D03*
D11*
G04 #@! TO.P,C24,1*
G04 #@! TO.N,Net-(C24-Pad1)*
X60960000Y-84709000D03*
G04 #@! TD*
D12*
G04 #@! TO.P,C25,1*
G04 #@! TO.N,Net-(C25-Pad1)*
X81280000Y-146939000D03*
G04 #@! TO.P,C25,2*
G04 #@! TO.N,Net-(C25-Pad2)*
X83780000Y-146939000D03*
G04 #@! TD*
G04 #@! TO.P,C26,1*
G04 #@! TO.N,Net-(C26-Pad1)*
X74295000Y-97409000D03*
G04 #@! TO.P,C26,2*
G04 #@! TO.N,Net-(22K1-Pad1)*
X76795000Y-97409000D03*
G04 #@! TD*
G04 #@! TO.P,C27,2*
G04 #@! TO.N,Net-(C25-Pad1)*
X81320000Y-143764000D03*
G04 #@! TO.P,C27,1*
G04 #@! TO.N,Net-(22K5-Pad5)*
X83820000Y-143764000D03*
G04 #@! TD*
G04 #@! TO.P,C28,2*
G04 #@! TO.N,GND*
X62270000Y-139319000D03*
D11*
G04 #@! TO.P,C28,1*
G04 #@! TO.N,Net-(C28-Pad1)*
X64770000Y-139319000D03*
G04 #@! TD*
D12*
G04 #@! TO.P,C29,2*
G04 #@! TO.N,Net-(22K1-Pad4)*
X75565000Y-146939000D03*
G04 #@! TO.P,C29,1*
G04 #@! TO.N,Net-(C29-Pad1)*
X73065000Y-146939000D03*
G04 #@! TD*
D11*
G04 #@! TO.P,C30,1*
G04 #@! TO.N,Net-(C26-Pad1)*
X72390000Y-84709000D03*
D12*
G04 #@! TO.P,C30,2*
G04 #@! TO.N,Net-(22K6-Pad1)*
X74890000Y-84709000D03*
G04 #@! TD*
D11*
G04 #@! TO.P,C31,1*
G04 #@! TO.N,Net-(C29-Pad1)*
X78105000Y-138049000D03*
D12*
G04 #@! TO.P,C31,2*
G04 #@! TO.N,Net-(22K6-Pad4)*
X75605000Y-138049000D03*
G04 #@! TD*
G04 #@! TO.P,C32,1*
G04 #@! TO.N,Net-(C32-Pad1)*
X77089000Y-73723500D03*
G04 #@! TO.P,C32,2*
G04 #@! TO.N,Net-(22K6-Pad2)*
X74589000Y-73723500D03*
G04 #@! TD*
G04 #@! TO.P,C33,2*
G04 #@! TO.N,Net-(22K6-Pad5)*
X102211500Y-73914000D03*
G04 #@! TO.P,C33,1*
G04 #@! TO.N,Net-(C33-Pad1)*
X104711500Y-73914000D03*
G04 #@! TD*
G04 #@! TO.P,C34,2*
G04 #@! TO.N,GND*
X76160000Y-52832000D03*
G04 #@! TO.P,C34,1*
G04 #@! TO.N,Net-(C34-Pad1)*
X73660000Y-52832000D03*
G04 #@! TD*
G04 #@! TO.P,C35,2*
G04 #@! TO.N,GND*
X104140000Y-48260000D03*
G04 #@! TO.P,C35,1*
G04 #@! TO.N,Net-(C35-Pad1)*
X101640000Y-48260000D03*
G04 #@! TD*
D13*
G04 #@! TO.P,C36,2*
G04 #@! TO.N,Net-(C36-Pad2)*
X78740000Y-32719000D03*
D14*
G04 #@! TO.P,C36,1*
G04 #@! TO.N,Net-(C36-Pad1)*
X78740000Y-37719000D03*
G04 #@! TD*
G04 #@! TO.P,C37,1*
G04 #@! TO.N,Net-(C37-Pad1)*
X90805000Y-37719000D03*
D13*
G04 #@! TO.P,C37,2*
G04 #@! TO.N,Net-(C37-Pad2)*
X90805000Y-32719000D03*
G04 #@! TD*
D15*
G04 #@! TO.P,J1,3*
G04 #@! TO.N,Net-(J1-Pad3)*
X54022000Y-208680000D03*
G04 #@! TO.P,J1,2*
G04 #@! TO.N,Net-(J1-Pad2)*
X44022000Y-208680000D03*
D16*
G04 #@! TO.P,J1,1*
G04 #@! TO.N,GND*
X49022000Y-213686000D03*
G04 #@! TD*
G04 #@! TO.P,J2,1*
G04 #@! TO.N,GND*
X84582000Y-20447000D03*
D15*
G04 #@! TO.P,J2,2*
G04 #@! TO.N,Net-(C36-Pad2)*
X89582000Y-25453000D03*
G04 #@! TO.P,J2,3*
G04 #@! TO.N,Net-(C37-Pad2)*
X79582000Y-25453000D03*
G04 #@! TD*
D17*
G04 #@! TO.P,J3,1*
G04 #@! TO.N,Vcc*
X107823000Y-117983000D03*
D18*
G04 #@! TO.P,J3,2*
G04 #@! TO.N,Net-(J3-Pad2)*
X107823000Y-120483000D03*
G04 #@! TO.P,J3,3*
G04 #@! TO.N,Net-(J3-Pad3)*
X109823000Y-120483000D03*
G04 #@! TO.P,J3,4*
G04 #@! TO.N,GND*
X109823000Y-117983000D03*
D19*
G04 #@! TO.P,J3,5*
G04 #@! TO.N,Net-(J3-Pad5)*
X112533000Y-113213000D03*
X112533000Y-125253000D03*
G04 #@! TD*
D12*
G04 #@! TO.P,R1,1*
G04 #@! TO.N,Net-(C2-Pad2)*
X53975000Y-193929000D03*
D20*
G04 #@! TO.P,R1,2*
G04 #@! TO.N,Net-(J1-Pad3)*
X53975000Y-204089000D03*
G04 #@! TD*
G04 #@! TO.P,R2,2*
G04 #@! TO.N,Net-(J1-Pad2)*
X43815000Y-204089000D03*
D12*
G04 #@! TO.P,R2,1*
G04 #@! TO.N,Net-(C3-Pad2)*
X43815000Y-193929000D03*
G04 #@! TD*
D20*
G04 #@! TO.P,R3,2*
G04 #@! TO.N,Net-(C34-Pad1)*
X66040000Y-56388000D03*
D12*
G04 #@! TO.P,R3,1*
G04 #@! TO.N,Net-(C36-Pad1)*
X76200000Y-56388000D03*
G04 #@! TD*
G04 #@! TO.P,R4,1*
G04 #@! TO.N,Net-(C37-Pad1)*
X104140000Y-52324000D03*
D20*
G04 #@! TO.P,R4,2*
G04 #@! TO.N,Net-(C35-Pad1)*
X93980000Y-52324000D03*
G04 #@! TD*
D11*
G04 #@! TO.P,U1,1*
G04 #@! TO.N,Net-(C8-Pad1)*
X66929000Y-108839000D03*
D20*
G04 #@! TO.P,U1,9*
G04 #@! TO.N,Net-(C21-Pad2)*
X84709000Y-101219000D03*
G04 #@! TO.P,U1,2*
G04 #@! TO.N,Net-(C4-Pad1)*
X69469000Y-108839000D03*
G04 #@! TO.P,U1,10*
G04 #@! TO.N,Net-(C21-Pad1)*
X82169000Y-101219000D03*
G04 #@! TO.P,U1,3*
G04 #@! TO.N,Net-(C9-Pad1)*
X72009000Y-108839000D03*
G04 #@! TO.P,U1,11*
G04 #@! TO.N,Net-(22K1-Pad3)*
X79629000Y-101219000D03*
G04 #@! TO.P,U1,4*
G04 #@! TO.N,Net-(C5-Pad1)*
X74549000Y-108839000D03*
G04 #@! TO.P,U1,12*
G04 #@! TO.N,Net-(22K1-Pad1)*
X77089000Y-101219000D03*
G04 #@! TO.P,U1,5*
G04 #@! TO.N,Net-(C10-Pad1)*
X77089000Y-108839000D03*
G04 #@! TO.P,U1,13*
G04 #@! TO.N,Net-(C26-Pad1)*
X74549000Y-101219000D03*
G04 #@! TO.P,U1,6*
G04 #@! TO.N,Net-(C10-Pad2)*
X79629000Y-108839000D03*
G04 #@! TO.P,U1,14*
G04 #@! TO.N,Vcc*
X72009000Y-101219000D03*
G04 #@! TO.P,U1,7*
G04 #@! TO.N,Net-(C11-Pad1)*
X82169000Y-108839000D03*
G04 #@! TO.P,U1,15*
G04 #@! TO.N,Net-(C24-Pad1)*
X69469000Y-101219000D03*
G04 #@! TO.P,U1,8*
G04 #@! TO.N,Net-(C11-Pad2)*
X84709000Y-108839000D03*
G04 #@! TO.P,U1,16*
G04 #@! TO.N,GND*
X66929000Y-101219000D03*
G04 #@! TD*
G04 #@! TO.P,U2,16*
G04 #@! TO.N,GND*
X66167000Y-150876000D03*
G04 #@! TO.P,U2,8*
G04 #@! TO.N,Net-(C15-Pad1)*
X83947000Y-158496000D03*
G04 #@! TO.P,U2,15*
G04 #@! TO.N,Net-(C28-Pad1)*
X68707000Y-150876000D03*
G04 #@! TO.P,U2,7*
G04 #@! TO.N,Net-(C19-Pad1)*
X81407000Y-158496000D03*
G04 #@! TO.P,U2,14*
G04 #@! TO.N,Vcc*
X71247000Y-150876000D03*
G04 #@! TO.P,U2,6*
G04 #@! TO.N,Net-(C14-Pad1)*
X78867000Y-158496000D03*
G04 #@! TO.P,U2,13*
G04 #@! TO.N,Net-(C29-Pad1)*
X73787000Y-150876000D03*
G04 #@! TO.P,U2,5*
G04 #@! TO.N,Net-(C18-Pad1)*
X76327000Y-158496000D03*
G04 #@! TO.P,U2,12*
G04 #@! TO.N,Net-(22K1-Pad4)*
X76327000Y-150876000D03*
G04 #@! TO.P,U2,4*
G04 #@! TO.N,Net-(C13-Pad1)*
X73787000Y-158496000D03*
G04 #@! TO.P,U2,11*
G04 #@! TO.N,Net-(22K1-Pad6)*
X78867000Y-150876000D03*
G04 #@! TO.P,U2,3*
G04 #@! TO.N,Net-(C17-Pad1)*
X71247000Y-158496000D03*
G04 #@! TO.P,U2,10*
G04 #@! TO.N,Net-(C25-Pad1)*
X81407000Y-150876000D03*
G04 #@! TO.P,U2,2*
G04 #@! TO.N,Net-(C12-Pad1)*
X68707000Y-158496000D03*
G04 #@! TO.P,U2,9*
G04 #@! TO.N,Net-(C25-Pad2)*
X83947000Y-150876000D03*
D11*
G04 #@! TO.P,U2,1*
G04 #@! TO.N,Net-(C16-Pad1)*
X66167000Y-158496000D03*
G04 #@! TD*
G04 #@! TO.P,U4,1*
G04 #@! TO.N,Net-(U4-Pad1)*
X96520000Y-67564000D03*
D20*
G04 #@! TO.P,U4,5*
G04 #@! TO.N,Net-(C37-Pad1)*
X104140000Y-59944000D03*
G04 #@! TO.P,U4,2*
G04 #@! TO.N,GND*
X99060000Y-67564000D03*
G04 #@! TO.P,U4,6*
G04 #@! TO.N,Vcc*
X101600000Y-59944000D03*
G04 #@! TO.P,U4,3*
G04 #@! TO.N,Net-(C33-Pad1)*
X101600000Y-67564000D03*
G04 #@! TO.P,U4,7*
G04 #@! TO.N,Net-(U4-Pad7)*
X99060000Y-59944000D03*
G04 #@! TO.P,U4,4*
G04 #@! TO.N,GND*
X104140000Y-67564000D03*
G04 #@! TO.P,U4,8*
G04 #@! TO.N,Net-(U4-Pad8)*
X96520000Y-59944000D03*
G04 #@! TD*
D11*
G04 #@! TO.P,U3,1*
G04 #@! TO.N,Net-(U3-Pad1)*
X68580000Y-68199000D03*
D20*
G04 #@! TO.P,U3,5*
G04 #@! TO.N,Net-(C36-Pad1)*
X76200000Y-60579000D03*
G04 #@! TO.P,U3,2*
G04 #@! TO.N,GND*
X71120000Y-68199000D03*
G04 #@! TO.P,U3,6*
G04 #@! TO.N,Vcc*
X73660000Y-60579000D03*
G04 #@! TO.P,U3,3*
G04 #@! TO.N,Net-(C32-Pad1)*
X73660000Y-68199000D03*
G04 #@! TO.P,U3,7*
G04 #@! TO.N,Net-(U3-Pad7)*
X71120000Y-60579000D03*
G04 #@! TO.P,U3,4*
G04 #@! TO.N,GND*
X76200000Y-68199000D03*
G04 #@! TO.P,U3,8*
G04 #@! TO.N,Net-(U3-Pad8)*
X68580000Y-60579000D03*
G04 #@! TD*
D21*
G04 #@! TO.N,Net-(22K1-Pad3)*
X55372000Y-92329000D03*
X51308000Y-92329000D03*
G04 #@! TO.N,Net-(22K1-Pad1)*
X28575000Y-157099000D03*
X28575000Y-152019000D03*
X28575000Y-132334000D03*
X28575000Y-127889000D03*
X28575000Y-108204000D03*
X28575000Y-103759000D03*
X28575000Y-85344000D03*
X28575000Y-79629000D03*
X65405000Y-71882000D03*
X56007000Y-71374000D03*
G04 #@! TO.N,Net-(22K1-Pad6)*
X30480000Y-170180000D03*
X30480000Y-166624000D03*
X30480000Y-132080000D03*
X30480000Y-110236000D03*
X30480000Y-98552000D03*
X30480000Y-116840000D03*
X30480000Y-155956000D03*
X30480000Y-141224000D03*
G04 #@! TO.N,Net-(22K1-Pad4)*
X32004000Y-86360000D03*
X32004000Y-159512000D03*
X32004000Y-96520000D03*
X32004000Y-141732000D03*
X32004000Y-135636000D03*
X32004000Y-117348000D03*
X32004000Y-111252000D03*
X81026000Y-132334000D03*
X48514000Y-132334000D03*
X32004000Y-70104000D03*
G04 #@! TO.N,Net-(22K2-Pad5)*
X48260000Y-149479000D03*
X48260000Y-173609000D03*
G04 #@! TO.N,Net-(22K2-Pad2)*
X53975000Y-146939000D03*
X57785000Y-146939000D03*
G04 #@! TO.N,Net-(22K3-Pad2)*
X50165000Y-122809000D03*
X65405000Y-124714000D03*
G04 #@! TO.N,Net-(22K3-Pad5)*
X50165000Y-145669000D03*
X50165000Y-175514000D03*
G04 #@! TO.N,Net-(22K4-Pad5)*
X52070000Y-143129000D03*
X52070000Y-178054000D03*
G04 #@! TO.N,Net-(22K4-Pad2)*
X52070000Y-102489000D03*
X68580000Y-125984000D03*
G04 #@! TO.N,Net-(22K5-Pad2)*
X55245000Y-89154000D03*
X85090000Y-89154000D03*
G04 #@! TO.N,Net-(22K5-Pad5)*
X53975000Y-144399000D03*
X53340000Y-179324000D03*
G04 #@! TO.N,Net-(22K6-Pad4)*
X65278000Y-76327000D03*
X75692000Y-130429000D03*
G04 #@! TO.N,Net-(22K6-Pad5)*
X89916000Y-73660000D03*
X47244000Y-52832000D03*
G04 #@! TO.N,GND*
X49276000Y-57912000D03*
X61976000Y-57912000D03*
X94488000Y-120904000D03*
X94488000Y-109728000D03*
X90932000Y-42672000D03*
X77216000Y-42672000D03*
X85852000Y-81788000D03*
X90932000Y-81788000D03*
X68580000Y-129032000D03*
X73152000Y-129032000D03*
X65024000Y-91440000D03*
X91440000Y-91440000D03*
G04 #@! TO.N,Net-(22K6-Pad2)*
X72136000Y-73660000D03*
X47244000Y-55880000D03*
G04 #@! TO.N,Vcc*
X69215000Y-80899000D03*
X69215000Y-73152000D03*
G04 #@! TD*
D22*
G04 #@! TO.N,Net-(22K1-Pad3)*
X55372000Y-92329000D02*
X51308000Y-92329000D01*
D23*
G04 #@! TO.N,Net-(22K1-Pad1)*
X28575000Y-157099000D02*
X28575000Y-152019000D01*
X28575000Y-132334000D02*
X28575000Y-127889000D01*
X28575000Y-108204000D02*
X28575000Y-103759000D01*
X28575000Y-85344000D02*
X28575000Y-79629000D01*
D22*
X64897000Y-71374000D02*
X56007000Y-71374000D01*
X65405000Y-71882000D02*
X64897000Y-71374000D01*
D24*
G04 #@! TO.N,Net-(22K1-Pad6)*
X41830000Y-178656000D02*
X43848000Y-178656000D01*
X43848000Y-180608000D02*
X43848000Y-178656000D01*
X43815000Y-180641000D02*
X43848000Y-180608000D01*
X43815000Y-187579000D02*
X43815000Y-180641000D01*
D22*
X30480000Y-170180000D02*
X30480000Y-166624000D01*
X30480000Y-110236000D02*
X30480000Y-98552000D01*
X30480000Y-128016000D02*
X30480000Y-116840000D01*
X30480000Y-132080000D02*
X30480000Y-128016000D01*
X30480000Y-128016000D02*
X30480000Y-127508000D01*
X30480000Y-150876000D02*
X30480000Y-141224000D01*
X30480000Y-155956000D02*
X30480000Y-150876000D01*
G04 #@! TO.N,Net-(22K1-Pad4)*
X32004000Y-86360000D02*
X32004000Y-70104000D01*
X32004000Y-135636000D02*
X32004000Y-127508000D01*
X32004000Y-159512000D02*
X32004000Y-150876000D01*
X32004000Y-150876000D02*
X32004000Y-141732000D01*
X32004000Y-127508000D02*
X32004000Y-117348000D01*
X32004000Y-103632000D02*
X32004000Y-96520000D01*
X32004000Y-111252000D02*
X32004000Y-103632000D01*
X58505998Y-132334000D02*
X48514000Y-132334000D01*
X81026000Y-132334000D02*
X58505998Y-132334000D01*
G04 #@! TO.N,Net-(22K2-Pad5)*
X48260000Y-149479000D02*
X48260000Y-173609000D01*
G04 #@! TO.N,Net-(22K2-Pad2)*
X53975000Y-146939000D02*
X57785000Y-146939000D01*
G04 #@! TO.N,Net-(22K3-Pad2)*
X63500000Y-122809000D02*
X65405000Y-124714000D01*
X50165000Y-122809000D02*
X63500000Y-122809000D01*
G04 #@! TO.N,Net-(22K3-Pad5)*
X50165000Y-145669000D02*
X50165000Y-175514000D01*
G04 #@! TO.N,Net-(22K4-Pad5)*
X52070000Y-143129000D02*
X52070000Y-178054000D01*
G04 #@! TO.N,Net-(22K4-Pad2)*
X52070000Y-102489000D02*
X55245000Y-105664000D01*
X55245000Y-105664000D02*
X55245000Y-118999000D01*
X55245000Y-118999000D02*
X57785000Y-121539000D01*
X64135000Y-121539000D02*
X68580000Y-125984000D01*
X57785000Y-121539000D02*
X64135000Y-121539000D01*
G04 #@! TO.N,Net-(22K5-Pad2)*
X55245000Y-89154000D02*
X85090000Y-89154000D01*
G04 #@! TO.N,Net-(22K5-Pad5)*
X53975000Y-144399000D02*
X53340000Y-145034000D01*
X53174999Y-179158999D02*
X53340000Y-179324000D01*
X53174999Y-145199001D02*
X53174999Y-179158999D01*
X53340000Y-145034000D02*
X53174999Y-145199001D01*
D24*
G04 #@! TO.N,Net-(22K6-Pad4)*
X65278000Y-76581000D02*
X65278000Y-76327000D01*
X53848000Y-88011000D02*
X65278000Y-76581000D01*
X75819000Y-128524000D02*
X75819000Y-125476000D01*
X75692000Y-128651000D02*
X75819000Y-128524000D01*
X53848000Y-89789000D02*
X53848000Y-88011000D01*
X75819000Y-125476000D02*
X69997998Y-125476000D01*
X59055000Y-90805000D02*
X54864000Y-90805000D01*
X54864000Y-90805000D02*
X53848000Y-89789000D01*
X75692000Y-130429000D02*
X75692000Y-128651000D01*
X69997998Y-125476000D02*
X64135000Y-119613002D01*
X64135000Y-119613002D02*
X64135000Y-95885000D01*
X64135000Y-95885000D02*
X59055000Y-90805000D01*
D25*
G04 #@! TO.N,Net-(22K6-Pad5)*
X89916000Y-73660000D02*
X80264000Y-64008000D01*
X80264000Y-64008000D02*
X67056000Y-64008000D01*
X67056000Y-64008000D02*
X63500000Y-60452000D01*
X63500000Y-60452000D02*
X63500000Y-55880000D01*
X60452000Y-52832000D02*
X47244000Y-52832000D01*
X63500000Y-55880000D02*
X60452000Y-52832000D01*
D23*
G04 #@! TO.N,GND*
X49276000Y-57912000D02*
X61976000Y-57912000D01*
X94488000Y-120904000D02*
X94488000Y-109728000D01*
X90932000Y-42672000D02*
X77216000Y-42672000D01*
X85852000Y-81788000D02*
X90424000Y-81788000D01*
X90424000Y-81788000D02*
X90932000Y-81788000D01*
X68580000Y-129032000D02*
X73152000Y-129032000D01*
X65024000Y-91440000D02*
X91440000Y-91440000D01*
G04 #@! TO.N,Net-(22K6-Pad2)*
X69049990Y-70573990D02*
X66001990Y-70573990D01*
X72136000Y-73660000D02*
X69049990Y-70573990D01*
X66001990Y-70573990D02*
X55372000Y-59944000D01*
X55372000Y-59944000D02*
X49893773Y-59944000D01*
X49893773Y-59944000D02*
X48768000Y-59944000D01*
X47244000Y-58420000D02*
X47244000Y-55880000D01*
X48768000Y-59944000D02*
X47244000Y-58420000D01*
D24*
G04 #@! TO.N,Vcc*
X69215000Y-80899000D02*
X69215000Y-73152000D01*
G04 #@! TD*
M02*
