G04 #@! TF.GenerationSoftware,KiCad,Pcbnew,5.0.0-fee4fd1~65~ubuntu16.04.1*
G04 #@! TF.CreationDate,2018-09-09T14:28:19+03:00*
G04 #@! TF.ProjectId,la3600_equalizer_amp,6C61333630305F657175616C697A6572,rev?*
G04 #@! TF.SameCoordinates,Original*
G04 #@! TF.FileFunction,Legend,Top*
G04 #@! TF.FilePolarity,Positive*
%FSLAX46Y46*%
G04 Gerber Fmt 4.6, Leading zero omitted, Abs format (unit mm)*
G04 Created by KiCad (PCBNEW 5.0.0-fee4fd1~65~ubuntu16.04.1) date Sun Sep  9 14:28:19 2018*
%MOMM*%
%LPD*%
G01*
G04 APERTURE LIST*
%ADD10C,0.120000*%
%ADD11C,0.150000*%
%ADD12C,0.100000*%
G04 APERTURE END LIST*
D10*
G04 #@! TO.C,22K4*
X15910000Y-104233600D02*
X15910000Y-97992600D01*
X25910000Y-104233600D02*
X25910000Y-97992600D01*
X25910000Y-97992600D02*
X15910000Y-97992600D01*
X25910000Y-104233600D02*
X15910000Y-104233600D01*
X25910000Y-104733600D02*
X25910000Y-97493600D01*
X32910000Y-104733600D02*
X32910000Y-97493600D01*
X32910000Y-97493600D02*
X25910000Y-97493600D01*
X32910000Y-104733600D02*
X25910000Y-104733600D01*
X32910000Y-110183600D02*
X32910000Y-92043600D01*
X45250000Y-110183600D02*
X45250000Y-92043600D01*
X45250000Y-92043600D02*
X32910000Y-92043600D01*
X45250000Y-110183600D02*
X32910000Y-110183600D01*
G04 #@! TO.C,22K2*
X15910000Y-152595200D02*
X15910000Y-146354200D01*
X25910000Y-152595200D02*
X25910000Y-146354200D01*
X25910000Y-146354200D02*
X15910000Y-146354200D01*
X25910000Y-152595200D02*
X15910000Y-152595200D01*
X25910000Y-153095200D02*
X25910000Y-145855200D01*
X32910000Y-153095200D02*
X32910000Y-145855200D01*
X32910000Y-145855200D02*
X25910000Y-145855200D01*
X32910000Y-153095200D02*
X25910000Y-153095200D01*
X32910000Y-158545200D02*
X32910000Y-140405200D01*
X45250000Y-158545200D02*
X45250000Y-140405200D01*
X45250000Y-140405200D02*
X32910000Y-140405200D01*
X45250000Y-158545200D02*
X32910000Y-158545200D01*
G04 #@! TO.C,22K1*
X45250000Y-182726000D02*
X32910000Y-182726000D01*
X45250000Y-164586000D02*
X32910000Y-164586000D01*
X45250000Y-182726000D02*
X45250000Y-164586000D01*
X32910000Y-182726000D02*
X32910000Y-164586000D01*
X32910000Y-177276000D02*
X25910000Y-177276000D01*
X32910000Y-170036000D02*
X25910000Y-170036000D01*
X32910000Y-177276000D02*
X32910000Y-170036000D01*
X25910000Y-177276000D02*
X25910000Y-170036000D01*
X25910000Y-176776000D02*
X15910000Y-176776000D01*
X25910000Y-170535000D02*
X15910000Y-170535000D01*
X25910000Y-176776000D02*
X25910000Y-170535000D01*
X15910000Y-176776000D02*
X15910000Y-170535000D01*
G04 #@! TO.C,22K3*
X45250000Y-134364400D02*
X32910000Y-134364400D01*
X45250000Y-116224400D02*
X32910000Y-116224400D01*
X45250000Y-134364400D02*
X45250000Y-116224400D01*
X32910000Y-134364400D02*
X32910000Y-116224400D01*
X32910000Y-128914400D02*
X25910000Y-128914400D01*
X32910000Y-121674400D02*
X25910000Y-121674400D01*
X32910000Y-128914400D02*
X32910000Y-121674400D01*
X25910000Y-128914400D02*
X25910000Y-121674400D01*
X25910000Y-128414400D02*
X15910000Y-128414400D01*
X25910000Y-122173400D02*
X15910000Y-122173400D01*
X25910000Y-128414400D02*
X25910000Y-122173400D01*
X15910000Y-128414400D02*
X15910000Y-122173400D01*
G04 #@! TO.C,22K5*
X45250000Y-86002800D02*
X32910000Y-86002800D01*
X45250000Y-67862800D02*
X32910000Y-67862800D01*
X45250000Y-86002800D02*
X45250000Y-67862800D01*
X32910000Y-86002800D02*
X32910000Y-67862800D01*
X32910000Y-80552800D02*
X25910000Y-80552800D01*
X32910000Y-73312800D02*
X25910000Y-73312800D01*
X32910000Y-80552800D02*
X32910000Y-73312800D01*
X25910000Y-80552800D02*
X25910000Y-73312800D01*
X25910000Y-80052800D02*
X15910000Y-80052800D01*
X25910000Y-73811800D02*
X15910000Y-73811800D01*
X25910000Y-80052800D02*
X25910000Y-73811800D01*
X15910000Y-80052800D02*
X15910000Y-73811800D01*
G04 #@! TO.C,22K6*
X15910000Y-55872000D02*
X15910000Y-49631000D01*
X25910000Y-55872000D02*
X25910000Y-49631000D01*
X25910000Y-49631000D02*
X15910000Y-49631000D01*
X25910000Y-55872000D02*
X15910000Y-55872000D01*
X25910000Y-56372000D02*
X25910000Y-49132000D01*
X32910000Y-56372000D02*
X32910000Y-49132000D01*
X32910000Y-49132000D02*
X25910000Y-49132000D01*
X32910000Y-56372000D02*
X25910000Y-56372000D01*
X32910000Y-61822000D02*
X32910000Y-43682000D01*
X45250000Y-61822000D02*
X45250000Y-43682000D01*
X45250000Y-43682000D02*
X32910000Y-43682000D01*
X45250000Y-61822000D02*
X32910000Y-61822000D01*
G04 #@! TO.C,C1*
X101045000Y-119614000D02*
G75*
G03X101045000Y-119614000I-2620000J0D01*
G01*
X101005000Y-119614000D02*
X95845000Y-119614000D01*
X101005000Y-119654000D02*
X95845000Y-119654000D01*
X101004000Y-119694000D02*
X95846000Y-119694000D01*
X101003000Y-119734000D02*
X95847000Y-119734000D01*
X101001000Y-119774000D02*
X95849000Y-119774000D01*
X100998000Y-119814000D02*
X95852000Y-119814000D01*
X100994000Y-119854000D02*
X99465000Y-119854000D01*
X97385000Y-119854000D02*
X95856000Y-119854000D01*
X100990000Y-119894000D02*
X99465000Y-119894000D01*
X97385000Y-119894000D02*
X95860000Y-119894000D01*
X100986000Y-119934000D02*
X99465000Y-119934000D01*
X97385000Y-119934000D02*
X95864000Y-119934000D01*
X100981000Y-119974000D02*
X99465000Y-119974000D01*
X97385000Y-119974000D02*
X95869000Y-119974000D01*
X100975000Y-120014000D02*
X99465000Y-120014000D01*
X97385000Y-120014000D02*
X95875000Y-120014000D01*
X100968000Y-120054000D02*
X99465000Y-120054000D01*
X97385000Y-120054000D02*
X95882000Y-120054000D01*
X100961000Y-120094000D02*
X99465000Y-120094000D01*
X97385000Y-120094000D02*
X95889000Y-120094000D01*
X100953000Y-120134000D02*
X99465000Y-120134000D01*
X97385000Y-120134000D02*
X95897000Y-120134000D01*
X100945000Y-120174000D02*
X99465000Y-120174000D01*
X97385000Y-120174000D02*
X95905000Y-120174000D01*
X100936000Y-120214000D02*
X99465000Y-120214000D01*
X97385000Y-120214000D02*
X95914000Y-120214000D01*
X100926000Y-120254000D02*
X99465000Y-120254000D01*
X97385000Y-120254000D02*
X95924000Y-120254000D01*
X100916000Y-120294000D02*
X99465000Y-120294000D01*
X97385000Y-120294000D02*
X95934000Y-120294000D01*
X100905000Y-120335000D02*
X99465000Y-120335000D01*
X97385000Y-120335000D02*
X95945000Y-120335000D01*
X100893000Y-120375000D02*
X99465000Y-120375000D01*
X97385000Y-120375000D02*
X95957000Y-120375000D01*
X100880000Y-120415000D02*
X99465000Y-120415000D01*
X97385000Y-120415000D02*
X95970000Y-120415000D01*
X100867000Y-120455000D02*
X99465000Y-120455000D01*
X97385000Y-120455000D02*
X95983000Y-120455000D01*
X100853000Y-120495000D02*
X99465000Y-120495000D01*
X97385000Y-120495000D02*
X95997000Y-120495000D01*
X100839000Y-120535000D02*
X99465000Y-120535000D01*
X97385000Y-120535000D02*
X96011000Y-120535000D01*
X100823000Y-120575000D02*
X99465000Y-120575000D01*
X97385000Y-120575000D02*
X96027000Y-120575000D01*
X100807000Y-120615000D02*
X99465000Y-120615000D01*
X97385000Y-120615000D02*
X96043000Y-120615000D01*
X100790000Y-120655000D02*
X99465000Y-120655000D01*
X97385000Y-120655000D02*
X96060000Y-120655000D01*
X100773000Y-120695000D02*
X99465000Y-120695000D01*
X97385000Y-120695000D02*
X96077000Y-120695000D01*
X100754000Y-120735000D02*
X99465000Y-120735000D01*
X97385000Y-120735000D02*
X96096000Y-120735000D01*
X100735000Y-120775000D02*
X99465000Y-120775000D01*
X97385000Y-120775000D02*
X96115000Y-120775000D01*
X100715000Y-120815000D02*
X99465000Y-120815000D01*
X97385000Y-120815000D02*
X96135000Y-120815000D01*
X100693000Y-120855000D02*
X99465000Y-120855000D01*
X97385000Y-120855000D02*
X96157000Y-120855000D01*
X100672000Y-120895000D02*
X99465000Y-120895000D01*
X97385000Y-120895000D02*
X96178000Y-120895000D01*
X100649000Y-120935000D02*
X99465000Y-120935000D01*
X97385000Y-120935000D02*
X96201000Y-120935000D01*
X100625000Y-120975000D02*
X99465000Y-120975000D01*
X97385000Y-120975000D02*
X96225000Y-120975000D01*
X100600000Y-121015000D02*
X99465000Y-121015000D01*
X97385000Y-121015000D02*
X96250000Y-121015000D01*
X100574000Y-121055000D02*
X99465000Y-121055000D01*
X97385000Y-121055000D02*
X96276000Y-121055000D01*
X100547000Y-121095000D02*
X99465000Y-121095000D01*
X97385000Y-121095000D02*
X96303000Y-121095000D01*
X100520000Y-121135000D02*
X99465000Y-121135000D01*
X97385000Y-121135000D02*
X96330000Y-121135000D01*
X100490000Y-121175000D02*
X99465000Y-121175000D01*
X97385000Y-121175000D02*
X96360000Y-121175000D01*
X100460000Y-121215000D02*
X99465000Y-121215000D01*
X97385000Y-121215000D02*
X96390000Y-121215000D01*
X100429000Y-121255000D02*
X99465000Y-121255000D01*
X97385000Y-121255000D02*
X96421000Y-121255000D01*
X100396000Y-121295000D02*
X99465000Y-121295000D01*
X97385000Y-121295000D02*
X96454000Y-121295000D01*
X100362000Y-121335000D02*
X99465000Y-121335000D01*
X97385000Y-121335000D02*
X96488000Y-121335000D01*
X100326000Y-121375000D02*
X99465000Y-121375000D01*
X97385000Y-121375000D02*
X96524000Y-121375000D01*
X100289000Y-121415000D02*
X99465000Y-121415000D01*
X97385000Y-121415000D02*
X96561000Y-121415000D01*
X100251000Y-121455000D02*
X99465000Y-121455000D01*
X97385000Y-121455000D02*
X96599000Y-121455000D01*
X100210000Y-121495000D02*
X99465000Y-121495000D01*
X97385000Y-121495000D02*
X96640000Y-121495000D01*
X100168000Y-121535000D02*
X99465000Y-121535000D01*
X97385000Y-121535000D02*
X96682000Y-121535000D01*
X100124000Y-121575000D02*
X99465000Y-121575000D01*
X97385000Y-121575000D02*
X96726000Y-121575000D01*
X100078000Y-121615000D02*
X99465000Y-121615000D01*
X97385000Y-121615000D02*
X96772000Y-121615000D01*
X100030000Y-121655000D02*
X99465000Y-121655000D01*
X97385000Y-121655000D02*
X96820000Y-121655000D01*
X99979000Y-121695000D02*
X99465000Y-121695000D01*
X97385000Y-121695000D02*
X96871000Y-121695000D01*
X99925000Y-121735000D02*
X99465000Y-121735000D01*
X97385000Y-121735000D02*
X96925000Y-121735000D01*
X99868000Y-121775000D02*
X99465000Y-121775000D01*
X97385000Y-121775000D02*
X96982000Y-121775000D01*
X99808000Y-121815000D02*
X99465000Y-121815000D01*
X97385000Y-121815000D02*
X97042000Y-121815000D01*
X99744000Y-121855000D02*
X99465000Y-121855000D01*
X97385000Y-121855000D02*
X97106000Y-121855000D01*
X99676000Y-121895000D02*
X99465000Y-121895000D01*
X97385000Y-121895000D02*
X97174000Y-121895000D01*
X99603000Y-121935000D02*
X97247000Y-121935000D01*
X99523000Y-121975000D02*
X97327000Y-121975000D01*
X99436000Y-122015000D02*
X97414000Y-122015000D01*
X99340000Y-122055000D02*
X97510000Y-122055000D01*
X99230000Y-122095000D02*
X97620000Y-122095000D01*
X99102000Y-122135000D02*
X97748000Y-122135000D01*
X98943000Y-122175000D02*
X97907000Y-122175000D01*
X98709000Y-122215000D02*
X98141000Y-122215000D01*
X99900000Y-116809225D02*
X99900000Y-117309225D01*
X100150000Y-117059225D02*
X99650000Y-117059225D01*
G04 #@! TO.C,C2*
X55700000Y-186274225D02*
X55200000Y-186274225D01*
X55450000Y-186024225D02*
X55450000Y-186524225D01*
X54259000Y-191430000D02*
X53691000Y-191430000D01*
X54493000Y-191390000D02*
X53457000Y-191390000D01*
X54652000Y-191350000D02*
X53298000Y-191350000D01*
X54780000Y-191310000D02*
X53170000Y-191310000D01*
X54890000Y-191270000D02*
X53060000Y-191270000D01*
X54986000Y-191230000D02*
X52964000Y-191230000D01*
X55073000Y-191190000D02*
X52877000Y-191190000D01*
X55153000Y-191150000D02*
X52797000Y-191150000D01*
X52935000Y-191110000D02*
X52724000Y-191110000D01*
X55226000Y-191110000D02*
X55015000Y-191110000D01*
X52935000Y-191070000D02*
X52656000Y-191070000D01*
X55294000Y-191070000D02*
X55015000Y-191070000D01*
X52935000Y-191030000D02*
X52592000Y-191030000D01*
X55358000Y-191030000D02*
X55015000Y-191030000D01*
X52935000Y-190990000D02*
X52532000Y-190990000D01*
X55418000Y-190990000D02*
X55015000Y-190990000D01*
X52935000Y-190950000D02*
X52475000Y-190950000D01*
X55475000Y-190950000D02*
X55015000Y-190950000D01*
X52935000Y-190910000D02*
X52421000Y-190910000D01*
X55529000Y-190910000D02*
X55015000Y-190910000D01*
X52935000Y-190870000D02*
X52370000Y-190870000D01*
X55580000Y-190870000D02*
X55015000Y-190870000D01*
X52935000Y-190830000D02*
X52322000Y-190830000D01*
X55628000Y-190830000D02*
X55015000Y-190830000D01*
X52935000Y-190790000D02*
X52276000Y-190790000D01*
X55674000Y-190790000D02*
X55015000Y-190790000D01*
X52935000Y-190750000D02*
X52232000Y-190750000D01*
X55718000Y-190750000D02*
X55015000Y-190750000D01*
X52935000Y-190710000D02*
X52190000Y-190710000D01*
X55760000Y-190710000D02*
X55015000Y-190710000D01*
X52935000Y-190670000D02*
X52149000Y-190670000D01*
X55801000Y-190670000D02*
X55015000Y-190670000D01*
X52935000Y-190630000D02*
X52111000Y-190630000D01*
X55839000Y-190630000D02*
X55015000Y-190630000D01*
X52935000Y-190590000D02*
X52074000Y-190590000D01*
X55876000Y-190590000D02*
X55015000Y-190590000D01*
X52935000Y-190550000D02*
X52038000Y-190550000D01*
X55912000Y-190550000D02*
X55015000Y-190550000D01*
X52935000Y-190510000D02*
X52004000Y-190510000D01*
X55946000Y-190510000D02*
X55015000Y-190510000D01*
X52935000Y-190470000D02*
X51971000Y-190470000D01*
X55979000Y-190470000D02*
X55015000Y-190470000D01*
X52935000Y-190430000D02*
X51940000Y-190430000D01*
X56010000Y-190430000D02*
X55015000Y-190430000D01*
X52935000Y-190390000D02*
X51910000Y-190390000D01*
X56040000Y-190390000D02*
X55015000Y-190390000D01*
X52935000Y-190350000D02*
X51880000Y-190350000D01*
X56070000Y-190350000D02*
X55015000Y-190350000D01*
X52935000Y-190310000D02*
X51853000Y-190310000D01*
X56097000Y-190310000D02*
X55015000Y-190310000D01*
X52935000Y-190270000D02*
X51826000Y-190270000D01*
X56124000Y-190270000D02*
X55015000Y-190270000D01*
X52935000Y-190230000D02*
X51800000Y-190230000D01*
X56150000Y-190230000D02*
X55015000Y-190230000D01*
X52935000Y-190190000D02*
X51775000Y-190190000D01*
X56175000Y-190190000D02*
X55015000Y-190190000D01*
X52935000Y-190150000D02*
X51751000Y-190150000D01*
X56199000Y-190150000D02*
X55015000Y-190150000D01*
X52935000Y-190110000D02*
X51728000Y-190110000D01*
X56222000Y-190110000D02*
X55015000Y-190110000D01*
X52935000Y-190070000D02*
X51707000Y-190070000D01*
X56243000Y-190070000D02*
X55015000Y-190070000D01*
X52935000Y-190030000D02*
X51685000Y-190030000D01*
X56265000Y-190030000D02*
X55015000Y-190030000D01*
X52935000Y-189990000D02*
X51665000Y-189990000D01*
X56285000Y-189990000D02*
X55015000Y-189990000D01*
X52935000Y-189950000D02*
X51646000Y-189950000D01*
X56304000Y-189950000D02*
X55015000Y-189950000D01*
X52935000Y-189910000D02*
X51627000Y-189910000D01*
X56323000Y-189910000D02*
X55015000Y-189910000D01*
X52935000Y-189870000D02*
X51610000Y-189870000D01*
X56340000Y-189870000D02*
X55015000Y-189870000D01*
X52935000Y-189830000D02*
X51593000Y-189830000D01*
X56357000Y-189830000D02*
X55015000Y-189830000D01*
X52935000Y-189790000D02*
X51577000Y-189790000D01*
X56373000Y-189790000D02*
X55015000Y-189790000D01*
X52935000Y-189750000D02*
X51561000Y-189750000D01*
X56389000Y-189750000D02*
X55015000Y-189750000D01*
X52935000Y-189710000D02*
X51547000Y-189710000D01*
X56403000Y-189710000D02*
X55015000Y-189710000D01*
X52935000Y-189670000D02*
X51533000Y-189670000D01*
X56417000Y-189670000D02*
X55015000Y-189670000D01*
X52935000Y-189630000D02*
X51520000Y-189630000D01*
X56430000Y-189630000D02*
X55015000Y-189630000D01*
X52935000Y-189590000D02*
X51507000Y-189590000D01*
X56443000Y-189590000D02*
X55015000Y-189590000D01*
X52935000Y-189550000D02*
X51495000Y-189550000D01*
X56455000Y-189550000D02*
X55015000Y-189550000D01*
X52935000Y-189509000D02*
X51484000Y-189509000D01*
X56466000Y-189509000D02*
X55015000Y-189509000D01*
X52935000Y-189469000D02*
X51474000Y-189469000D01*
X56476000Y-189469000D02*
X55015000Y-189469000D01*
X52935000Y-189429000D02*
X51464000Y-189429000D01*
X56486000Y-189429000D02*
X55015000Y-189429000D01*
X52935000Y-189389000D02*
X51455000Y-189389000D01*
X56495000Y-189389000D02*
X55015000Y-189389000D01*
X52935000Y-189349000D02*
X51447000Y-189349000D01*
X56503000Y-189349000D02*
X55015000Y-189349000D01*
X52935000Y-189309000D02*
X51439000Y-189309000D01*
X56511000Y-189309000D02*
X55015000Y-189309000D01*
X52935000Y-189269000D02*
X51432000Y-189269000D01*
X56518000Y-189269000D02*
X55015000Y-189269000D01*
X52935000Y-189229000D02*
X51425000Y-189229000D01*
X56525000Y-189229000D02*
X55015000Y-189229000D01*
X52935000Y-189189000D02*
X51419000Y-189189000D01*
X56531000Y-189189000D02*
X55015000Y-189189000D01*
X52935000Y-189149000D02*
X51414000Y-189149000D01*
X56536000Y-189149000D02*
X55015000Y-189149000D01*
X52935000Y-189109000D02*
X51410000Y-189109000D01*
X56540000Y-189109000D02*
X55015000Y-189109000D01*
X52935000Y-189069000D02*
X51406000Y-189069000D01*
X56544000Y-189069000D02*
X55015000Y-189069000D01*
X56548000Y-189029000D02*
X51402000Y-189029000D01*
X56551000Y-188989000D02*
X51399000Y-188989000D01*
X56553000Y-188949000D02*
X51397000Y-188949000D01*
X56554000Y-188909000D02*
X51396000Y-188909000D01*
X56555000Y-188869000D02*
X51395000Y-188869000D01*
X56555000Y-188829000D02*
X51395000Y-188829000D01*
X56595000Y-188829000D02*
G75*
G03X56595000Y-188829000I-2620000J0D01*
G01*
G04 #@! TO.C,C3*
X46435000Y-188829000D02*
G75*
G03X46435000Y-188829000I-2620000J0D01*
G01*
X46395000Y-188829000D02*
X41235000Y-188829000D01*
X46395000Y-188869000D02*
X41235000Y-188869000D01*
X46394000Y-188909000D02*
X41236000Y-188909000D01*
X46393000Y-188949000D02*
X41237000Y-188949000D01*
X46391000Y-188989000D02*
X41239000Y-188989000D01*
X46388000Y-189029000D02*
X41242000Y-189029000D01*
X46384000Y-189069000D02*
X44855000Y-189069000D01*
X42775000Y-189069000D02*
X41246000Y-189069000D01*
X46380000Y-189109000D02*
X44855000Y-189109000D01*
X42775000Y-189109000D02*
X41250000Y-189109000D01*
X46376000Y-189149000D02*
X44855000Y-189149000D01*
X42775000Y-189149000D02*
X41254000Y-189149000D01*
X46371000Y-189189000D02*
X44855000Y-189189000D01*
X42775000Y-189189000D02*
X41259000Y-189189000D01*
X46365000Y-189229000D02*
X44855000Y-189229000D01*
X42775000Y-189229000D02*
X41265000Y-189229000D01*
X46358000Y-189269000D02*
X44855000Y-189269000D01*
X42775000Y-189269000D02*
X41272000Y-189269000D01*
X46351000Y-189309000D02*
X44855000Y-189309000D01*
X42775000Y-189309000D02*
X41279000Y-189309000D01*
X46343000Y-189349000D02*
X44855000Y-189349000D01*
X42775000Y-189349000D02*
X41287000Y-189349000D01*
X46335000Y-189389000D02*
X44855000Y-189389000D01*
X42775000Y-189389000D02*
X41295000Y-189389000D01*
X46326000Y-189429000D02*
X44855000Y-189429000D01*
X42775000Y-189429000D02*
X41304000Y-189429000D01*
X46316000Y-189469000D02*
X44855000Y-189469000D01*
X42775000Y-189469000D02*
X41314000Y-189469000D01*
X46306000Y-189509000D02*
X44855000Y-189509000D01*
X42775000Y-189509000D02*
X41324000Y-189509000D01*
X46295000Y-189550000D02*
X44855000Y-189550000D01*
X42775000Y-189550000D02*
X41335000Y-189550000D01*
X46283000Y-189590000D02*
X44855000Y-189590000D01*
X42775000Y-189590000D02*
X41347000Y-189590000D01*
X46270000Y-189630000D02*
X44855000Y-189630000D01*
X42775000Y-189630000D02*
X41360000Y-189630000D01*
X46257000Y-189670000D02*
X44855000Y-189670000D01*
X42775000Y-189670000D02*
X41373000Y-189670000D01*
X46243000Y-189710000D02*
X44855000Y-189710000D01*
X42775000Y-189710000D02*
X41387000Y-189710000D01*
X46229000Y-189750000D02*
X44855000Y-189750000D01*
X42775000Y-189750000D02*
X41401000Y-189750000D01*
X46213000Y-189790000D02*
X44855000Y-189790000D01*
X42775000Y-189790000D02*
X41417000Y-189790000D01*
X46197000Y-189830000D02*
X44855000Y-189830000D01*
X42775000Y-189830000D02*
X41433000Y-189830000D01*
X46180000Y-189870000D02*
X44855000Y-189870000D01*
X42775000Y-189870000D02*
X41450000Y-189870000D01*
X46163000Y-189910000D02*
X44855000Y-189910000D01*
X42775000Y-189910000D02*
X41467000Y-189910000D01*
X46144000Y-189950000D02*
X44855000Y-189950000D01*
X42775000Y-189950000D02*
X41486000Y-189950000D01*
X46125000Y-189990000D02*
X44855000Y-189990000D01*
X42775000Y-189990000D02*
X41505000Y-189990000D01*
X46105000Y-190030000D02*
X44855000Y-190030000D01*
X42775000Y-190030000D02*
X41525000Y-190030000D01*
X46083000Y-190070000D02*
X44855000Y-190070000D01*
X42775000Y-190070000D02*
X41547000Y-190070000D01*
X46062000Y-190110000D02*
X44855000Y-190110000D01*
X42775000Y-190110000D02*
X41568000Y-190110000D01*
X46039000Y-190150000D02*
X44855000Y-190150000D01*
X42775000Y-190150000D02*
X41591000Y-190150000D01*
X46015000Y-190190000D02*
X44855000Y-190190000D01*
X42775000Y-190190000D02*
X41615000Y-190190000D01*
X45990000Y-190230000D02*
X44855000Y-190230000D01*
X42775000Y-190230000D02*
X41640000Y-190230000D01*
X45964000Y-190270000D02*
X44855000Y-190270000D01*
X42775000Y-190270000D02*
X41666000Y-190270000D01*
X45937000Y-190310000D02*
X44855000Y-190310000D01*
X42775000Y-190310000D02*
X41693000Y-190310000D01*
X45910000Y-190350000D02*
X44855000Y-190350000D01*
X42775000Y-190350000D02*
X41720000Y-190350000D01*
X45880000Y-190390000D02*
X44855000Y-190390000D01*
X42775000Y-190390000D02*
X41750000Y-190390000D01*
X45850000Y-190430000D02*
X44855000Y-190430000D01*
X42775000Y-190430000D02*
X41780000Y-190430000D01*
X45819000Y-190470000D02*
X44855000Y-190470000D01*
X42775000Y-190470000D02*
X41811000Y-190470000D01*
X45786000Y-190510000D02*
X44855000Y-190510000D01*
X42775000Y-190510000D02*
X41844000Y-190510000D01*
X45752000Y-190550000D02*
X44855000Y-190550000D01*
X42775000Y-190550000D02*
X41878000Y-190550000D01*
X45716000Y-190590000D02*
X44855000Y-190590000D01*
X42775000Y-190590000D02*
X41914000Y-190590000D01*
X45679000Y-190630000D02*
X44855000Y-190630000D01*
X42775000Y-190630000D02*
X41951000Y-190630000D01*
X45641000Y-190670000D02*
X44855000Y-190670000D01*
X42775000Y-190670000D02*
X41989000Y-190670000D01*
X45600000Y-190710000D02*
X44855000Y-190710000D01*
X42775000Y-190710000D02*
X42030000Y-190710000D01*
X45558000Y-190750000D02*
X44855000Y-190750000D01*
X42775000Y-190750000D02*
X42072000Y-190750000D01*
X45514000Y-190790000D02*
X44855000Y-190790000D01*
X42775000Y-190790000D02*
X42116000Y-190790000D01*
X45468000Y-190830000D02*
X44855000Y-190830000D01*
X42775000Y-190830000D02*
X42162000Y-190830000D01*
X45420000Y-190870000D02*
X44855000Y-190870000D01*
X42775000Y-190870000D02*
X42210000Y-190870000D01*
X45369000Y-190910000D02*
X44855000Y-190910000D01*
X42775000Y-190910000D02*
X42261000Y-190910000D01*
X45315000Y-190950000D02*
X44855000Y-190950000D01*
X42775000Y-190950000D02*
X42315000Y-190950000D01*
X45258000Y-190990000D02*
X44855000Y-190990000D01*
X42775000Y-190990000D02*
X42372000Y-190990000D01*
X45198000Y-191030000D02*
X44855000Y-191030000D01*
X42775000Y-191030000D02*
X42432000Y-191030000D01*
X45134000Y-191070000D02*
X44855000Y-191070000D01*
X42775000Y-191070000D02*
X42496000Y-191070000D01*
X45066000Y-191110000D02*
X44855000Y-191110000D01*
X42775000Y-191110000D02*
X42564000Y-191110000D01*
X44993000Y-191150000D02*
X42637000Y-191150000D01*
X44913000Y-191190000D02*
X42717000Y-191190000D01*
X44826000Y-191230000D02*
X42804000Y-191230000D01*
X44730000Y-191270000D02*
X42900000Y-191270000D01*
X44620000Y-191310000D02*
X43010000Y-191310000D01*
X44492000Y-191350000D02*
X43138000Y-191350000D01*
X44333000Y-191390000D02*
X43297000Y-191390000D01*
X44099000Y-191430000D02*
X43531000Y-191430000D01*
X45290000Y-186024225D02*
X45290000Y-186524225D01*
X45540000Y-186274225D02*
X45040000Y-186274225D01*
G04 #@! TO.C,C4*
X69884775Y-121359000D02*
X69884775Y-120859000D01*
X70134775Y-121109000D02*
X69634775Y-121109000D01*
X64729000Y-119918000D02*
X64729000Y-119350000D01*
X64769000Y-120152000D02*
X64769000Y-119116000D01*
X64809000Y-120311000D02*
X64809000Y-118957000D01*
X64849000Y-120439000D02*
X64849000Y-118829000D01*
X64889000Y-120549000D02*
X64889000Y-118719000D01*
X64929000Y-120645000D02*
X64929000Y-118623000D01*
X64969000Y-120732000D02*
X64969000Y-118536000D01*
X65009000Y-120812000D02*
X65009000Y-118456000D01*
X65049000Y-118594000D02*
X65049000Y-118383000D01*
X65049000Y-120885000D02*
X65049000Y-120674000D01*
X65089000Y-118594000D02*
X65089000Y-118315000D01*
X65089000Y-120953000D02*
X65089000Y-120674000D01*
X65129000Y-118594000D02*
X65129000Y-118251000D01*
X65129000Y-121017000D02*
X65129000Y-120674000D01*
X65169000Y-118594000D02*
X65169000Y-118191000D01*
X65169000Y-121077000D02*
X65169000Y-120674000D01*
X65209000Y-118594000D02*
X65209000Y-118134000D01*
X65209000Y-121134000D02*
X65209000Y-120674000D01*
X65249000Y-118594000D02*
X65249000Y-118080000D01*
X65249000Y-121188000D02*
X65249000Y-120674000D01*
X65289000Y-118594000D02*
X65289000Y-118029000D01*
X65289000Y-121239000D02*
X65289000Y-120674000D01*
X65329000Y-118594000D02*
X65329000Y-117981000D01*
X65329000Y-121287000D02*
X65329000Y-120674000D01*
X65369000Y-118594000D02*
X65369000Y-117935000D01*
X65369000Y-121333000D02*
X65369000Y-120674000D01*
X65409000Y-118594000D02*
X65409000Y-117891000D01*
X65409000Y-121377000D02*
X65409000Y-120674000D01*
X65449000Y-118594000D02*
X65449000Y-117849000D01*
X65449000Y-121419000D02*
X65449000Y-120674000D01*
X65489000Y-118594000D02*
X65489000Y-117808000D01*
X65489000Y-121460000D02*
X65489000Y-120674000D01*
X65529000Y-118594000D02*
X65529000Y-117770000D01*
X65529000Y-121498000D02*
X65529000Y-120674000D01*
X65569000Y-118594000D02*
X65569000Y-117733000D01*
X65569000Y-121535000D02*
X65569000Y-120674000D01*
X65609000Y-118594000D02*
X65609000Y-117697000D01*
X65609000Y-121571000D02*
X65609000Y-120674000D01*
X65649000Y-118594000D02*
X65649000Y-117663000D01*
X65649000Y-121605000D02*
X65649000Y-120674000D01*
X65689000Y-118594000D02*
X65689000Y-117630000D01*
X65689000Y-121638000D02*
X65689000Y-120674000D01*
X65729000Y-118594000D02*
X65729000Y-117599000D01*
X65729000Y-121669000D02*
X65729000Y-120674000D01*
X65769000Y-118594000D02*
X65769000Y-117569000D01*
X65769000Y-121699000D02*
X65769000Y-120674000D01*
X65809000Y-118594000D02*
X65809000Y-117539000D01*
X65809000Y-121729000D02*
X65809000Y-120674000D01*
X65849000Y-118594000D02*
X65849000Y-117512000D01*
X65849000Y-121756000D02*
X65849000Y-120674000D01*
X65889000Y-118594000D02*
X65889000Y-117485000D01*
X65889000Y-121783000D02*
X65889000Y-120674000D01*
X65929000Y-118594000D02*
X65929000Y-117459000D01*
X65929000Y-121809000D02*
X65929000Y-120674000D01*
X65969000Y-118594000D02*
X65969000Y-117434000D01*
X65969000Y-121834000D02*
X65969000Y-120674000D01*
X66009000Y-118594000D02*
X66009000Y-117410000D01*
X66009000Y-121858000D02*
X66009000Y-120674000D01*
X66049000Y-118594000D02*
X66049000Y-117387000D01*
X66049000Y-121881000D02*
X66049000Y-120674000D01*
X66089000Y-118594000D02*
X66089000Y-117366000D01*
X66089000Y-121902000D02*
X66089000Y-120674000D01*
X66129000Y-118594000D02*
X66129000Y-117344000D01*
X66129000Y-121924000D02*
X66129000Y-120674000D01*
X66169000Y-118594000D02*
X66169000Y-117324000D01*
X66169000Y-121944000D02*
X66169000Y-120674000D01*
X66209000Y-118594000D02*
X66209000Y-117305000D01*
X66209000Y-121963000D02*
X66209000Y-120674000D01*
X66249000Y-118594000D02*
X66249000Y-117286000D01*
X66249000Y-121982000D02*
X66249000Y-120674000D01*
X66289000Y-118594000D02*
X66289000Y-117269000D01*
X66289000Y-121999000D02*
X66289000Y-120674000D01*
X66329000Y-118594000D02*
X66329000Y-117252000D01*
X66329000Y-122016000D02*
X66329000Y-120674000D01*
X66369000Y-118594000D02*
X66369000Y-117236000D01*
X66369000Y-122032000D02*
X66369000Y-120674000D01*
X66409000Y-118594000D02*
X66409000Y-117220000D01*
X66409000Y-122048000D02*
X66409000Y-120674000D01*
X66449000Y-118594000D02*
X66449000Y-117206000D01*
X66449000Y-122062000D02*
X66449000Y-120674000D01*
X66489000Y-118594000D02*
X66489000Y-117192000D01*
X66489000Y-122076000D02*
X66489000Y-120674000D01*
X66529000Y-118594000D02*
X66529000Y-117179000D01*
X66529000Y-122089000D02*
X66529000Y-120674000D01*
X66569000Y-118594000D02*
X66569000Y-117166000D01*
X66569000Y-122102000D02*
X66569000Y-120674000D01*
X66609000Y-118594000D02*
X66609000Y-117154000D01*
X66609000Y-122114000D02*
X66609000Y-120674000D01*
X66650000Y-118594000D02*
X66650000Y-117143000D01*
X66650000Y-122125000D02*
X66650000Y-120674000D01*
X66690000Y-118594000D02*
X66690000Y-117133000D01*
X66690000Y-122135000D02*
X66690000Y-120674000D01*
X66730000Y-118594000D02*
X66730000Y-117123000D01*
X66730000Y-122145000D02*
X66730000Y-120674000D01*
X66770000Y-118594000D02*
X66770000Y-117114000D01*
X66770000Y-122154000D02*
X66770000Y-120674000D01*
X66810000Y-118594000D02*
X66810000Y-117106000D01*
X66810000Y-122162000D02*
X66810000Y-120674000D01*
X66850000Y-118594000D02*
X66850000Y-117098000D01*
X66850000Y-122170000D02*
X66850000Y-120674000D01*
X66890000Y-118594000D02*
X66890000Y-117091000D01*
X66890000Y-122177000D02*
X66890000Y-120674000D01*
X66930000Y-118594000D02*
X66930000Y-117084000D01*
X66930000Y-122184000D02*
X66930000Y-120674000D01*
X66970000Y-118594000D02*
X66970000Y-117078000D01*
X66970000Y-122190000D02*
X66970000Y-120674000D01*
X67010000Y-118594000D02*
X67010000Y-117073000D01*
X67010000Y-122195000D02*
X67010000Y-120674000D01*
X67050000Y-118594000D02*
X67050000Y-117069000D01*
X67050000Y-122199000D02*
X67050000Y-120674000D01*
X67090000Y-118594000D02*
X67090000Y-117065000D01*
X67090000Y-122203000D02*
X67090000Y-120674000D01*
X67130000Y-122207000D02*
X67130000Y-117061000D01*
X67170000Y-122210000D02*
X67170000Y-117058000D01*
X67210000Y-122212000D02*
X67210000Y-117056000D01*
X67250000Y-122213000D02*
X67250000Y-117055000D01*
X67290000Y-122214000D02*
X67290000Y-117054000D01*
X67330000Y-122214000D02*
X67330000Y-117054000D01*
X69950000Y-119634000D02*
G75*
G03X69950000Y-119634000I-2620000J0D01*
G01*
G04 #@! TO.C,C5*
X71425000Y-118579000D02*
X71425000Y-118514000D01*
X71425000Y-120754000D02*
X71425000Y-120689000D01*
X74665000Y-118579000D02*
X74665000Y-118514000D01*
X74665000Y-120754000D02*
X74665000Y-120689000D01*
X74665000Y-118514000D02*
X71425000Y-118514000D01*
X74665000Y-120754000D02*
X71425000Y-120754000D01*
G04 #@! TO.C,C6*
X79745000Y-120754000D02*
X76505000Y-120754000D01*
X79745000Y-118514000D02*
X76505000Y-118514000D01*
X79745000Y-120754000D02*
X79745000Y-120689000D01*
X79745000Y-118579000D02*
X79745000Y-118514000D01*
X76505000Y-120754000D02*
X76505000Y-120689000D01*
X76505000Y-118579000D02*
X76505000Y-118514000D01*
G04 #@! TO.C,C7*
X84825000Y-120754000D02*
X81585000Y-120754000D01*
X84825000Y-118514000D02*
X81585000Y-118514000D01*
X84825000Y-120754000D02*
X84825000Y-120689000D01*
X84825000Y-118579000D02*
X84825000Y-118514000D01*
X81585000Y-120754000D02*
X81585000Y-120689000D01*
X81585000Y-118579000D02*
X81585000Y-118514000D01*
G04 #@! TO.C,C8*
X65670000Y-111529000D02*
X68910000Y-111529000D01*
X65670000Y-113769000D02*
X68910000Y-113769000D01*
X65670000Y-111529000D02*
X65670000Y-111594000D01*
X65670000Y-113704000D02*
X65670000Y-113769000D01*
X68910000Y-111529000D02*
X68910000Y-111594000D01*
X68910000Y-113704000D02*
X68910000Y-113769000D01*
G04 #@! TO.C,C9*
X70750000Y-111529000D02*
X73990000Y-111529000D01*
X70750000Y-113769000D02*
X73990000Y-113769000D01*
X70750000Y-111529000D02*
X70750000Y-111594000D01*
X70750000Y-113704000D02*
X70750000Y-113769000D01*
X73990000Y-111529000D02*
X73990000Y-111594000D01*
X73990000Y-113704000D02*
X73990000Y-113769000D01*
G04 #@! TO.C,C10*
X79070000Y-113704000D02*
X79070000Y-113769000D01*
X79070000Y-111529000D02*
X79070000Y-111594000D01*
X75830000Y-113704000D02*
X75830000Y-113769000D01*
X75830000Y-111529000D02*
X75830000Y-111594000D01*
X75830000Y-113769000D02*
X79070000Y-113769000D01*
X75830000Y-111529000D02*
X79070000Y-111529000D01*
G04 #@! TO.C,C11*
X84150000Y-113704000D02*
X84150000Y-113769000D01*
X84150000Y-111529000D02*
X84150000Y-111594000D01*
X80910000Y-113704000D02*
X80910000Y-113769000D01*
X80910000Y-111529000D02*
X80910000Y-111594000D01*
X80910000Y-113769000D02*
X84150000Y-113769000D01*
X80910000Y-111529000D02*
X84150000Y-111529000D01*
G04 #@! TO.C,C12*
X68680000Y-169164000D02*
G75*
G03X68680000Y-169164000I-2620000J0D01*
G01*
X66060000Y-171744000D02*
X66060000Y-166584000D01*
X66020000Y-171744000D02*
X66020000Y-166584000D01*
X65980000Y-171743000D02*
X65980000Y-166585000D01*
X65940000Y-171742000D02*
X65940000Y-166586000D01*
X65900000Y-171740000D02*
X65900000Y-166588000D01*
X65860000Y-171737000D02*
X65860000Y-166591000D01*
X65820000Y-171733000D02*
X65820000Y-170204000D01*
X65820000Y-168124000D02*
X65820000Y-166595000D01*
X65780000Y-171729000D02*
X65780000Y-170204000D01*
X65780000Y-168124000D02*
X65780000Y-166599000D01*
X65740000Y-171725000D02*
X65740000Y-170204000D01*
X65740000Y-168124000D02*
X65740000Y-166603000D01*
X65700000Y-171720000D02*
X65700000Y-170204000D01*
X65700000Y-168124000D02*
X65700000Y-166608000D01*
X65660000Y-171714000D02*
X65660000Y-170204000D01*
X65660000Y-168124000D02*
X65660000Y-166614000D01*
X65620000Y-171707000D02*
X65620000Y-170204000D01*
X65620000Y-168124000D02*
X65620000Y-166621000D01*
X65580000Y-171700000D02*
X65580000Y-170204000D01*
X65580000Y-168124000D02*
X65580000Y-166628000D01*
X65540000Y-171692000D02*
X65540000Y-170204000D01*
X65540000Y-168124000D02*
X65540000Y-166636000D01*
X65500000Y-171684000D02*
X65500000Y-170204000D01*
X65500000Y-168124000D02*
X65500000Y-166644000D01*
X65460000Y-171675000D02*
X65460000Y-170204000D01*
X65460000Y-168124000D02*
X65460000Y-166653000D01*
X65420000Y-171665000D02*
X65420000Y-170204000D01*
X65420000Y-168124000D02*
X65420000Y-166663000D01*
X65380000Y-171655000D02*
X65380000Y-170204000D01*
X65380000Y-168124000D02*
X65380000Y-166673000D01*
X65339000Y-171644000D02*
X65339000Y-170204000D01*
X65339000Y-168124000D02*
X65339000Y-166684000D01*
X65299000Y-171632000D02*
X65299000Y-170204000D01*
X65299000Y-168124000D02*
X65299000Y-166696000D01*
X65259000Y-171619000D02*
X65259000Y-170204000D01*
X65259000Y-168124000D02*
X65259000Y-166709000D01*
X65219000Y-171606000D02*
X65219000Y-170204000D01*
X65219000Y-168124000D02*
X65219000Y-166722000D01*
X65179000Y-171592000D02*
X65179000Y-170204000D01*
X65179000Y-168124000D02*
X65179000Y-166736000D01*
X65139000Y-171578000D02*
X65139000Y-170204000D01*
X65139000Y-168124000D02*
X65139000Y-166750000D01*
X65099000Y-171562000D02*
X65099000Y-170204000D01*
X65099000Y-168124000D02*
X65099000Y-166766000D01*
X65059000Y-171546000D02*
X65059000Y-170204000D01*
X65059000Y-168124000D02*
X65059000Y-166782000D01*
X65019000Y-171529000D02*
X65019000Y-170204000D01*
X65019000Y-168124000D02*
X65019000Y-166799000D01*
X64979000Y-171512000D02*
X64979000Y-170204000D01*
X64979000Y-168124000D02*
X64979000Y-166816000D01*
X64939000Y-171493000D02*
X64939000Y-170204000D01*
X64939000Y-168124000D02*
X64939000Y-166835000D01*
X64899000Y-171474000D02*
X64899000Y-170204000D01*
X64899000Y-168124000D02*
X64899000Y-166854000D01*
X64859000Y-171454000D02*
X64859000Y-170204000D01*
X64859000Y-168124000D02*
X64859000Y-166874000D01*
X64819000Y-171432000D02*
X64819000Y-170204000D01*
X64819000Y-168124000D02*
X64819000Y-166896000D01*
X64779000Y-171411000D02*
X64779000Y-170204000D01*
X64779000Y-168124000D02*
X64779000Y-166917000D01*
X64739000Y-171388000D02*
X64739000Y-170204000D01*
X64739000Y-168124000D02*
X64739000Y-166940000D01*
X64699000Y-171364000D02*
X64699000Y-170204000D01*
X64699000Y-168124000D02*
X64699000Y-166964000D01*
X64659000Y-171339000D02*
X64659000Y-170204000D01*
X64659000Y-168124000D02*
X64659000Y-166989000D01*
X64619000Y-171313000D02*
X64619000Y-170204000D01*
X64619000Y-168124000D02*
X64619000Y-167015000D01*
X64579000Y-171286000D02*
X64579000Y-170204000D01*
X64579000Y-168124000D02*
X64579000Y-167042000D01*
X64539000Y-171259000D02*
X64539000Y-170204000D01*
X64539000Y-168124000D02*
X64539000Y-167069000D01*
X64499000Y-171229000D02*
X64499000Y-170204000D01*
X64499000Y-168124000D02*
X64499000Y-167099000D01*
X64459000Y-171199000D02*
X64459000Y-170204000D01*
X64459000Y-168124000D02*
X64459000Y-167129000D01*
X64419000Y-171168000D02*
X64419000Y-170204000D01*
X64419000Y-168124000D02*
X64419000Y-167160000D01*
X64379000Y-171135000D02*
X64379000Y-170204000D01*
X64379000Y-168124000D02*
X64379000Y-167193000D01*
X64339000Y-171101000D02*
X64339000Y-170204000D01*
X64339000Y-168124000D02*
X64339000Y-167227000D01*
X64299000Y-171065000D02*
X64299000Y-170204000D01*
X64299000Y-168124000D02*
X64299000Y-167263000D01*
X64259000Y-171028000D02*
X64259000Y-170204000D01*
X64259000Y-168124000D02*
X64259000Y-167300000D01*
X64219000Y-170990000D02*
X64219000Y-170204000D01*
X64219000Y-168124000D02*
X64219000Y-167338000D01*
X64179000Y-170949000D02*
X64179000Y-170204000D01*
X64179000Y-168124000D02*
X64179000Y-167379000D01*
X64139000Y-170907000D02*
X64139000Y-170204000D01*
X64139000Y-168124000D02*
X64139000Y-167421000D01*
X64099000Y-170863000D02*
X64099000Y-170204000D01*
X64099000Y-168124000D02*
X64099000Y-167465000D01*
X64059000Y-170817000D02*
X64059000Y-170204000D01*
X64059000Y-168124000D02*
X64059000Y-167511000D01*
X64019000Y-170769000D02*
X64019000Y-170204000D01*
X64019000Y-168124000D02*
X64019000Y-167559000D01*
X63979000Y-170718000D02*
X63979000Y-170204000D01*
X63979000Y-168124000D02*
X63979000Y-167610000D01*
X63939000Y-170664000D02*
X63939000Y-170204000D01*
X63939000Y-168124000D02*
X63939000Y-167664000D01*
X63899000Y-170607000D02*
X63899000Y-170204000D01*
X63899000Y-168124000D02*
X63899000Y-167721000D01*
X63859000Y-170547000D02*
X63859000Y-170204000D01*
X63859000Y-168124000D02*
X63859000Y-167781000D01*
X63819000Y-170483000D02*
X63819000Y-170204000D01*
X63819000Y-168124000D02*
X63819000Y-167845000D01*
X63779000Y-170415000D02*
X63779000Y-170204000D01*
X63779000Y-168124000D02*
X63779000Y-167913000D01*
X63739000Y-170342000D02*
X63739000Y-167986000D01*
X63699000Y-170262000D02*
X63699000Y-168066000D01*
X63659000Y-170175000D02*
X63659000Y-168153000D01*
X63619000Y-170079000D02*
X63619000Y-168249000D01*
X63579000Y-169969000D02*
X63579000Y-168359000D01*
X63539000Y-169841000D02*
X63539000Y-168487000D01*
X63499000Y-169682000D02*
X63499000Y-168646000D01*
X63459000Y-169448000D02*
X63459000Y-168880000D01*
X68864775Y-170639000D02*
X68364775Y-170639000D01*
X68614775Y-170889000D02*
X68614775Y-170389000D01*
G04 #@! TO.C,C13*
X70155000Y-168109000D02*
X70155000Y-168044000D01*
X70155000Y-170284000D02*
X70155000Y-170219000D01*
X73395000Y-168109000D02*
X73395000Y-168044000D01*
X73395000Y-170284000D02*
X73395000Y-170219000D01*
X73395000Y-168044000D02*
X70155000Y-168044000D01*
X73395000Y-170284000D02*
X70155000Y-170284000D01*
G04 #@! TO.C,C14*
X78475000Y-170284000D02*
X75235000Y-170284000D01*
X78475000Y-168044000D02*
X75235000Y-168044000D01*
X78475000Y-170284000D02*
X78475000Y-170219000D01*
X78475000Y-168109000D02*
X78475000Y-168044000D01*
X75235000Y-170284000D02*
X75235000Y-170219000D01*
X75235000Y-168109000D02*
X75235000Y-168044000D01*
G04 #@! TO.C,C15*
X83555000Y-170284000D02*
X80315000Y-170284000D01*
X83555000Y-168044000D02*
X80315000Y-168044000D01*
X83555000Y-170284000D02*
X83555000Y-170219000D01*
X83555000Y-168109000D02*
X83555000Y-168044000D01*
X80315000Y-170284000D02*
X80315000Y-170219000D01*
X80315000Y-168109000D02*
X80315000Y-168044000D01*
G04 #@! TO.C,C16*
X65035000Y-161059000D02*
X68275000Y-161059000D01*
X65035000Y-163299000D02*
X68275000Y-163299000D01*
X65035000Y-161059000D02*
X65035000Y-161124000D01*
X65035000Y-163234000D02*
X65035000Y-163299000D01*
X68275000Y-161059000D02*
X68275000Y-161124000D01*
X68275000Y-163234000D02*
X68275000Y-163299000D01*
G04 #@! TO.C,C17*
X73355000Y-163234000D02*
X73355000Y-163299000D01*
X73355000Y-161059000D02*
X73355000Y-161124000D01*
X70115000Y-163234000D02*
X70115000Y-163299000D01*
X70115000Y-161059000D02*
X70115000Y-161124000D01*
X70115000Y-163299000D02*
X73355000Y-163299000D01*
X70115000Y-161059000D02*
X73355000Y-161059000D01*
G04 #@! TO.C,C18*
X78435000Y-163234000D02*
X78435000Y-163299000D01*
X78435000Y-161059000D02*
X78435000Y-161124000D01*
X75195000Y-163234000D02*
X75195000Y-163299000D01*
X75195000Y-161059000D02*
X75195000Y-161124000D01*
X75195000Y-163299000D02*
X78435000Y-163299000D01*
X75195000Y-161059000D02*
X78435000Y-161059000D01*
G04 #@! TO.C,C19*
X84785000Y-163234000D02*
X84785000Y-163299000D01*
X84785000Y-161059000D02*
X84785000Y-161124000D01*
X81545000Y-163234000D02*
X81545000Y-163299000D01*
X81545000Y-161059000D02*
X81545000Y-161124000D01*
X81545000Y-163299000D02*
X84785000Y-163299000D01*
X81545000Y-161059000D02*
X84785000Y-161059000D01*
G04 #@! TO.C,C20*
X70519775Y-86434000D02*
X70519775Y-85934000D01*
X70769775Y-86184000D02*
X70269775Y-86184000D01*
X65364000Y-84993000D02*
X65364000Y-84425000D01*
X65404000Y-85227000D02*
X65404000Y-84191000D01*
X65444000Y-85386000D02*
X65444000Y-84032000D01*
X65484000Y-85514000D02*
X65484000Y-83904000D01*
X65524000Y-85624000D02*
X65524000Y-83794000D01*
X65564000Y-85720000D02*
X65564000Y-83698000D01*
X65604000Y-85807000D02*
X65604000Y-83611000D01*
X65644000Y-85887000D02*
X65644000Y-83531000D01*
X65684000Y-83669000D02*
X65684000Y-83458000D01*
X65684000Y-85960000D02*
X65684000Y-85749000D01*
X65724000Y-83669000D02*
X65724000Y-83390000D01*
X65724000Y-86028000D02*
X65724000Y-85749000D01*
X65764000Y-83669000D02*
X65764000Y-83326000D01*
X65764000Y-86092000D02*
X65764000Y-85749000D01*
X65804000Y-83669000D02*
X65804000Y-83266000D01*
X65804000Y-86152000D02*
X65804000Y-85749000D01*
X65844000Y-83669000D02*
X65844000Y-83209000D01*
X65844000Y-86209000D02*
X65844000Y-85749000D01*
X65884000Y-83669000D02*
X65884000Y-83155000D01*
X65884000Y-86263000D02*
X65884000Y-85749000D01*
X65924000Y-83669000D02*
X65924000Y-83104000D01*
X65924000Y-86314000D02*
X65924000Y-85749000D01*
X65964000Y-83669000D02*
X65964000Y-83056000D01*
X65964000Y-86362000D02*
X65964000Y-85749000D01*
X66004000Y-83669000D02*
X66004000Y-83010000D01*
X66004000Y-86408000D02*
X66004000Y-85749000D01*
X66044000Y-83669000D02*
X66044000Y-82966000D01*
X66044000Y-86452000D02*
X66044000Y-85749000D01*
X66084000Y-83669000D02*
X66084000Y-82924000D01*
X66084000Y-86494000D02*
X66084000Y-85749000D01*
X66124000Y-83669000D02*
X66124000Y-82883000D01*
X66124000Y-86535000D02*
X66124000Y-85749000D01*
X66164000Y-83669000D02*
X66164000Y-82845000D01*
X66164000Y-86573000D02*
X66164000Y-85749000D01*
X66204000Y-83669000D02*
X66204000Y-82808000D01*
X66204000Y-86610000D02*
X66204000Y-85749000D01*
X66244000Y-83669000D02*
X66244000Y-82772000D01*
X66244000Y-86646000D02*
X66244000Y-85749000D01*
X66284000Y-83669000D02*
X66284000Y-82738000D01*
X66284000Y-86680000D02*
X66284000Y-85749000D01*
X66324000Y-83669000D02*
X66324000Y-82705000D01*
X66324000Y-86713000D02*
X66324000Y-85749000D01*
X66364000Y-83669000D02*
X66364000Y-82674000D01*
X66364000Y-86744000D02*
X66364000Y-85749000D01*
X66404000Y-83669000D02*
X66404000Y-82644000D01*
X66404000Y-86774000D02*
X66404000Y-85749000D01*
X66444000Y-83669000D02*
X66444000Y-82614000D01*
X66444000Y-86804000D02*
X66444000Y-85749000D01*
X66484000Y-83669000D02*
X66484000Y-82587000D01*
X66484000Y-86831000D02*
X66484000Y-85749000D01*
X66524000Y-83669000D02*
X66524000Y-82560000D01*
X66524000Y-86858000D02*
X66524000Y-85749000D01*
X66564000Y-83669000D02*
X66564000Y-82534000D01*
X66564000Y-86884000D02*
X66564000Y-85749000D01*
X66604000Y-83669000D02*
X66604000Y-82509000D01*
X66604000Y-86909000D02*
X66604000Y-85749000D01*
X66644000Y-83669000D02*
X66644000Y-82485000D01*
X66644000Y-86933000D02*
X66644000Y-85749000D01*
X66684000Y-83669000D02*
X66684000Y-82462000D01*
X66684000Y-86956000D02*
X66684000Y-85749000D01*
X66724000Y-83669000D02*
X66724000Y-82441000D01*
X66724000Y-86977000D02*
X66724000Y-85749000D01*
X66764000Y-83669000D02*
X66764000Y-82419000D01*
X66764000Y-86999000D02*
X66764000Y-85749000D01*
X66804000Y-83669000D02*
X66804000Y-82399000D01*
X66804000Y-87019000D02*
X66804000Y-85749000D01*
X66844000Y-83669000D02*
X66844000Y-82380000D01*
X66844000Y-87038000D02*
X66844000Y-85749000D01*
X66884000Y-83669000D02*
X66884000Y-82361000D01*
X66884000Y-87057000D02*
X66884000Y-85749000D01*
X66924000Y-83669000D02*
X66924000Y-82344000D01*
X66924000Y-87074000D02*
X66924000Y-85749000D01*
X66964000Y-83669000D02*
X66964000Y-82327000D01*
X66964000Y-87091000D02*
X66964000Y-85749000D01*
X67004000Y-83669000D02*
X67004000Y-82311000D01*
X67004000Y-87107000D02*
X67004000Y-85749000D01*
X67044000Y-83669000D02*
X67044000Y-82295000D01*
X67044000Y-87123000D02*
X67044000Y-85749000D01*
X67084000Y-83669000D02*
X67084000Y-82281000D01*
X67084000Y-87137000D02*
X67084000Y-85749000D01*
X67124000Y-83669000D02*
X67124000Y-82267000D01*
X67124000Y-87151000D02*
X67124000Y-85749000D01*
X67164000Y-83669000D02*
X67164000Y-82254000D01*
X67164000Y-87164000D02*
X67164000Y-85749000D01*
X67204000Y-83669000D02*
X67204000Y-82241000D01*
X67204000Y-87177000D02*
X67204000Y-85749000D01*
X67244000Y-83669000D02*
X67244000Y-82229000D01*
X67244000Y-87189000D02*
X67244000Y-85749000D01*
X67285000Y-83669000D02*
X67285000Y-82218000D01*
X67285000Y-87200000D02*
X67285000Y-85749000D01*
X67325000Y-83669000D02*
X67325000Y-82208000D01*
X67325000Y-87210000D02*
X67325000Y-85749000D01*
X67365000Y-83669000D02*
X67365000Y-82198000D01*
X67365000Y-87220000D02*
X67365000Y-85749000D01*
X67405000Y-83669000D02*
X67405000Y-82189000D01*
X67405000Y-87229000D02*
X67405000Y-85749000D01*
X67445000Y-83669000D02*
X67445000Y-82181000D01*
X67445000Y-87237000D02*
X67445000Y-85749000D01*
X67485000Y-83669000D02*
X67485000Y-82173000D01*
X67485000Y-87245000D02*
X67485000Y-85749000D01*
X67525000Y-83669000D02*
X67525000Y-82166000D01*
X67525000Y-87252000D02*
X67525000Y-85749000D01*
X67565000Y-83669000D02*
X67565000Y-82159000D01*
X67565000Y-87259000D02*
X67565000Y-85749000D01*
X67605000Y-83669000D02*
X67605000Y-82153000D01*
X67605000Y-87265000D02*
X67605000Y-85749000D01*
X67645000Y-83669000D02*
X67645000Y-82148000D01*
X67645000Y-87270000D02*
X67645000Y-85749000D01*
X67685000Y-83669000D02*
X67685000Y-82144000D01*
X67685000Y-87274000D02*
X67685000Y-85749000D01*
X67725000Y-83669000D02*
X67725000Y-82140000D01*
X67725000Y-87278000D02*
X67725000Y-85749000D01*
X67765000Y-87282000D02*
X67765000Y-82136000D01*
X67805000Y-87285000D02*
X67805000Y-82133000D01*
X67845000Y-87287000D02*
X67845000Y-82131000D01*
X67885000Y-87288000D02*
X67885000Y-82130000D01*
X67925000Y-87289000D02*
X67925000Y-82129000D01*
X67965000Y-87289000D02*
X67965000Y-82129000D01*
X70585000Y-84709000D02*
G75*
G03X70585000Y-84709000I-2620000J0D01*
G01*
G04 #@! TO.C,C21*
X82180000Y-96289000D02*
X85420000Y-96289000D01*
X82180000Y-98529000D02*
X85420000Y-98529000D01*
X82180000Y-96289000D02*
X82180000Y-96354000D01*
X82180000Y-98464000D02*
X82180000Y-98529000D01*
X85420000Y-96289000D02*
X85420000Y-96354000D01*
X85420000Y-98464000D02*
X85420000Y-98529000D01*
G04 #@! TO.C,C22*
X71855000Y-139319000D02*
G75*
G03X71855000Y-139319000I-2620000J0D01*
G01*
X69235000Y-141899000D02*
X69235000Y-136739000D01*
X69195000Y-141899000D02*
X69195000Y-136739000D01*
X69155000Y-141898000D02*
X69155000Y-136740000D01*
X69115000Y-141897000D02*
X69115000Y-136741000D01*
X69075000Y-141895000D02*
X69075000Y-136743000D01*
X69035000Y-141892000D02*
X69035000Y-136746000D01*
X68995000Y-141888000D02*
X68995000Y-140359000D01*
X68995000Y-138279000D02*
X68995000Y-136750000D01*
X68955000Y-141884000D02*
X68955000Y-140359000D01*
X68955000Y-138279000D02*
X68955000Y-136754000D01*
X68915000Y-141880000D02*
X68915000Y-140359000D01*
X68915000Y-138279000D02*
X68915000Y-136758000D01*
X68875000Y-141875000D02*
X68875000Y-140359000D01*
X68875000Y-138279000D02*
X68875000Y-136763000D01*
X68835000Y-141869000D02*
X68835000Y-140359000D01*
X68835000Y-138279000D02*
X68835000Y-136769000D01*
X68795000Y-141862000D02*
X68795000Y-140359000D01*
X68795000Y-138279000D02*
X68795000Y-136776000D01*
X68755000Y-141855000D02*
X68755000Y-140359000D01*
X68755000Y-138279000D02*
X68755000Y-136783000D01*
X68715000Y-141847000D02*
X68715000Y-140359000D01*
X68715000Y-138279000D02*
X68715000Y-136791000D01*
X68675000Y-141839000D02*
X68675000Y-140359000D01*
X68675000Y-138279000D02*
X68675000Y-136799000D01*
X68635000Y-141830000D02*
X68635000Y-140359000D01*
X68635000Y-138279000D02*
X68635000Y-136808000D01*
X68595000Y-141820000D02*
X68595000Y-140359000D01*
X68595000Y-138279000D02*
X68595000Y-136818000D01*
X68555000Y-141810000D02*
X68555000Y-140359000D01*
X68555000Y-138279000D02*
X68555000Y-136828000D01*
X68514000Y-141799000D02*
X68514000Y-140359000D01*
X68514000Y-138279000D02*
X68514000Y-136839000D01*
X68474000Y-141787000D02*
X68474000Y-140359000D01*
X68474000Y-138279000D02*
X68474000Y-136851000D01*
X68434000Y-141774000D02*
X68434000Y-140359000D01*
X68434000Y-138279000D02*
X68434000Y-136864000D01*
X68394000Y-141761000D02*
X68394000Y-140359000D01*
X68394000Y-138279000D02*
X68394000Y-136877000D01*
X68354000Y-141747000D02*
X68354000Y-140359000D01*
X68354000Y-138279000D02*
X68354000Y-136891000D01*
X68314000Y-141733000D02*
X68314000Y-140359000D01*
X68314000Y-138279000D02*
X68314000Y-136905000D01*
X68274000Y-141717000D02*
X68274000Y-140359000D01*
X68274000Y-138279000D02*
X68274000Y-136921000D01*
X68234000Y-141701000D02*
X68234000Y-140359000D01*
X68234000Y-138279000D02*
X68234000Y-136937000D01*
X68194000Y-141684000D02*
X68194000Y-140359000D01*
X68194000Y-138279000D02*
X68194000Y-136954000D01*
X68154000Y-141667000D02*
X68154000Y-140359000D01*
X68154000Y-138279000D02*
X68154000Y-136971000D01*
X68114000Y-141648000D02*
X68114000Y-140359000D01*
X68114000Y-138279000D02*
X68114000Y-136990000D01*
X68074000Y-141629000D02*
X68074000Y-140359000D01*
X68074000Y-138279000D02*
X68074000Y-137009000D01*
X68034000Y-141609000D02*
X68034000Y-140359000D01*
X68034000Y-138279000D02*
X68034000Y-137029000D01*
X67994000Y-141587000D02*
X67994000Y-140359000D01*
X67994000Y-138279000D02*
X67994000Y-137051000D01*
X67954000Y-141566000D02*
X67954000Y-140359000D01*
X67954000Y-138279000D02*
X67954000Y-137072000D01*
X67914000Y-141543000D02*
X67914000Y-140359000D01*
X67914000Y-138279000D02*
X67914000Y-137095000D01*
X67874000Y-141519000D02*
X67874000Y-140359000D01*
X67874000Y-138279000D02*
X67874000Y-137119000D01*
X67834000Y-141494000D02*
X67834000Y-140359000D01*
X67834000Y-138279000D02*
X67834000Y-137144000D01*
X67794000Y-141468000D02*
X67794000Y-140359000D01*
X67794000Y-138279000D02*
X67794000Y-137170000D01*
X67754000Y-141441000D02*
X67754000Y-140359000D01*
X67754000Y-138279000D02*
X67754000Y-137197000D01*
X67714000Y-141414000D02*
X67714000Y-140359000D01*
X67714000Y-138279000D02*
X67714000Y-137224000D01*
X67674000Y-141384000D02*
X67674000Y-140359000D01*
X67674000Y-138279000D02*
X67674000Y-137254000D01*
X67634000Y-141354000D02*
X67634000Y-140359000D01*
X67634000Y-138279000D02*
X67634000Y-137284000D01*
X67594000Y-141323000D02*
X67594000Y-140359000D01*
X67594000Y-138279000D02*
X67594000Y-137315000D01*
X67554000Y-141290000D02*
X67554000Y-140359000D01*
X67554000Y-138279000D02*
X67554000Y-137348000D01*
X67514000Y-141256000D02*
X67514000Y-140359000D01*
X67514000Y-138279000D02*
X67514000Y-137382000D01*
X67474000Y-141220000D02*
X67474000Y-140359000D01*
X67474000Y-138279000D02*
X67474000Y-137418000D01*
X67434000Y-141183000D02*
X67434000Y-140359000D01*
X67434000Y-138279000D02*
X67434000Y-137455000D01*
X67394000Y-141145000D02*
X67394000Y-140359000D01*
X67394000Y-138279000D02*
X67394000Y-137493000D01*
X67354000Y-141104000D02*
X67354000Y-140359000D01*
X67354000Y-138279000D02*
X67354000Y-137534000D01*
X67314000Y-141062000D02*
X67314000Y-140359000D01*
X67314000Y-138279000D02*
X67314000Y-137576000D01*
X67274000Y-141018000D02*
X67274000Y-140359000D01*
X67274000Y-138279000D02*
X67274000Y-137620000D01*
X67234000Y-140972000D02*
X67234000Y-140359000D01*
X67234000Y-138279000D02*
X67234000Y-137666000D01*
X67194000Y-140924000D02*
X67194000Y-140359000D01*
X67194000Y-138279000D02*
X67194000Y-137714000D01*
X67154000Y-140873000D02*
X67154000Y-140359000D01*
X67154000Y-138279000D02*
X67154000Y-137765000D01*
X67114000Y-140819000D02*
X67114000Y-140359000D01*
X67114000Y-138279000D02*
X67114000Y-137819000D01*
X67074000Y-140762000D02*
X67074000Y-140359000D01*
X67074000Y-138279000D02*
X67074000Y-137876000D01*
X67034000Y-140702000D02*
X67034000Y-140359000D01*
X67034000Y-138279000D02*
X67034000Y-137936000D01*
X66994000Y-140638000D02*
X66994000Y-140359000D01*
X66994000Y-138279000D02*
X66994000Y-138000000D01*
X66954000Y-140570000D02*
X66954000Y-140359000D01*
X66954000Y-138279000D02*
X66954000Y-138068000D01*
X66914000Y-140497000D02*
X66914000Y-138141000D01*
X66874000Y-140417000D02*
X66874000Y-138221000D01*
X66834000Y-140330000D02*
X66834000Y-138308000D01*
X66794000Y-140234000D02*
X66794000Y-138404000D01*
X66754000Y-140124000D02*
X66754000Y-138514000D01*
X66714000Y-139996000D02*
X66714000Y-138642000D01*
X66674000Y-139837000D02*
X66674000Y-138801000D01*
X66634000Y-139603000D02*
X66634000Y-139035000D01*
X72039775Y-140794000D02*
X71539775Y-140794000D01*
X71789775Y-141044000D02*
X71789775Y-140544000D01*
G04 #@! TO.C,C23*
X85420000Y-95354000D02*
X82180000Y-95354000D01*
X85420000Y-93114000D02*
X82180000Y-93114000D01*
X85420000Y-95354000D02*
X85420000Y-95289000D01*
X85420000Y-93179000D02*
X85420000Y-93114000D01*
X82180000Y-95354000D02*
X82180000Y-95289000D01*
X82180000Y-93179000D02*
X82180000Y-93114000D01*
G04 #@! TO.C,C24*
X59655225Y-82984000D02*
X59655225Y-83484000D01*
X59405225Y-83234000D02*
X59905225Y-83234000D01*
X64811000Y-84425000D02*
X64811000Y-84993000D01*
X64771000Y-84191000D02*
X64771000Y-85227000D01*
X64731000Y-84032000D02*
X64731000Y-85386000D01*
X64691000Y-83904000D02*
X64691000Y-85514000D01*
X64651000Y-83794000D02*
X64651000Y-85624000D01*
X64611000Y-83698000D02*
X64611000Y-85720000D01*
X64571000Y-83611000D02*
X64571000Y-85807000D01*
X64531000Y-83531000D02*
X64531000Y-85887000D01*
X64491000Y-85749000D02*
X64491000Y-85960000D01*
X64491000Y-83458000D02*
X64491000Y-83669000D01*
X64451000Y-85749000D02*
X64451000Y-86028000D01*
X64451000Y-83390000D02*
X64451000Y-83669000D01*
X64411000Y-85749000D02*
X64411000Y-86092000D01*
X64411000Y-83326000D02*
X64411000Y-83669000D01*
X64371000Y-85749000D02*
X64371000Y-86152000D01*
X64371000Y-83266000D02*
X64371000Y-83669000D01*
X64331000Y-85749000D02*
X64331000Y-86209000D01*
X64331000Y-83209000D02*
X64331000Y-83669000D01*
X64291000Y-85749000D02*
X64291000Y-86263000D01*
X64291000Y-83155000D02*
X64291000Y-83669000D01*
X64251000Y-85749000D02*
X64251000Y-86314000D01*
X64251000Y-83104000D02*
X64251000Y-83669000D01*
X64211000Y-85749000D02*
X64211000Y-86362000D01*
X64211000Y-83056000D02*
X64211000Y-83669000D01*
X64171000Y-85749000D02*
X64171000Y-86408000D01*
X64171000Y-83010000D02*
X64171000Y-83669000D01*
X64131000Y-85749000D02*
X64131000Y-86452000D01*
X64131000Y-82966000D02*
X64131000Y-83669000D01*
X64091000Y-85749000D02*
X64091000Y-86494000D01*
X64091000Y-82924000D02*
X64091000Y-83669000D01*
X64051000Y-85749000D02*
X64051000Y-86535000D01*
X64051000Y-82883000D02*
X64051000Y-83669000D01*
X64011000Y-85749000D02*
X64011000Y-86573000D01*
X64011000Y-82845000D02*
X64011000Y-83669000D01*
X63971000Y-85749000D02*
X63971000Y-86610000D01*
X63971000Y-82808000D02*
X63971000Y-83669000D01*
X63931000Y-85749000D02*
X63931000Y-86646000D01*
X63931000Y-82772000D02*
X63931000Y-83669000D01*
X63891000Y-85749000D02*
X63891000Y-86680000D01*
X63891000Y-82738000D02*
X63891000Y-83669000D01*
X63851000Y-85749000D02*
X63851000Y-86713000D01*
X63851000Y-82705000D02*
X63851000Y-83669000D01*
X63811000Y-85749000D02*
X63811000Y-86744000D01*
X63811000Y-82674000D02*
X63811000Y-83669000D01*
X63771000Y-85749000D02*
X63771000Y-86774000D01*
X63771000Y-82644000D02*
X63771000Y-83669000D01*
X63731000Y-85749000D02*
X63731000Y-86804000D01*
X63731000Y-82614000D02*
X63731000Y-83669000D01*
X63691000Y-85749000D02*
X63691000Y-86831000D01*
X63691000Y-82587000D02*
X63691000Y-83669000D01*
X63651000Y-85749000D02*
X63651000Y-86858000D01*
X63651000Y-82560000D02*
X63651000Y-83669000D01*
X63611000Y-85749000D02*
X63611000Y-86884000D01*
X63611000Y-82534000D02*
X63611000Y-83669000D01*
X63571000Y-85749000D02*
X63571000Y-86909000D01*
X63571000Y-82509000D02*
X63571000Y-83669000D01*
X63531000Y-85749000D02*
X63531000Y-86933000D01*
X63531000Y-82485000D02*
X63531000Y-83669000D01*
X63491000Y-85749000D02*
X63491000Y-86956000D01*
X63491000Y-82462000D02*
X63491000Y-83669000D01*
X63451000Y-85749000D02*
X63451000Y-86977000D01*
X63451000Y-82441000D02*
X63451000Y-83669000D01*
X63411000Y-85749000D02*
X63411000Y-86999000D01*
X63411000Y-82419000D02*
X63411000Y-83669000D01*
X63371000Y-85749000D02*
X63371000Y-87019000D01*
X63371000Y-82399000D02*
X63371000Y-83669000D01*
X63331000Y-85749000D02*
X63331000Y-87038000D01*
X63331000Y-82380000D02*
X63331000Y-83669000D01*
X63291000Y-85749000D02*
X63291000Y-87057000D01*
X63291000Y-82361000D02*
X63291000Y-83669000D01*
X63251000Y-85749000D02*
X63251000Y-87074000D01*
X63251000Y-82344000D02*
X63251000Y-83669000D01*
X63211000Y-85749000D02*
X63211000Y-87091000D01*
X63211000Y-82327000D02*
X63211000Y-83669000D01*
X63171000Y-85749000D02*
X63171000Y-87107000D01*
X63171000Y-82311000D02*
X63171000Y-83669000D01*
X63131000Y-85749000D02*
X63131000Y-87123000D01*
X63131000Y-82295000D02*
X63131000Y-83669000D01*
X63091000Y-85749000D02*
X63091000Y-87137000D01*
X63091000Y-82281000D02*
X63091000Y-83669000D01*
X63051000Y-85749000D02*
X63051000Y-87151000D01*
X63051000Y-82267000D02*
X63051000Y-83669000D01*
X63011000Y-85749000D02*
X63011000Y-87164000D01*
X63011000Y-82254000D02*
X63011000Y-83669000D01*
X62971000Y-85749000D02*
X62971000Y-87177000D01*
X62971000Y-82241000D02*
X62971000Y-83669000D01*
X62931000Y-85749000D02*
X62931000Y-87189000D01*
X62931000Y-82229000D02*
X62931000Y-83669000D01*
X62890000Y-85749000D02*
X62890000Y-87200000D01*
X62890000Y-82218000D02*
X62890000Y-83669000D01*
X62850000Y-85749000D02*
X62850000Y-87210000D01*
X62850000Y-82208000D02*
X62850000Y-83669000D01*
X62810000Y-85749000D02*
X62810000Y-87220000D01*
X62810000Y-82198000D02*
X62810000Y-83669000D01*
X62770000Y-85749000D02*
X62770000Y-87229000D01*
X62770000Y-82189000D02*
X62770000Y-83669000D01*
X62730000Y-85749000D02*
X62730000Y-87237000D01*
X62730000Y-82181000D02*
X62730000Y-83669000D01*
X62690000Y-85749000D02*
X62690000Y-87245000D01*
X62690000Y-82173000D02*
X62690000Y-83669000D01*
X62650000Y-85749000D02*
X62650000Y-87252000D01*
X62650000Y-82166000D02*
X62650000Y-83669000D01*
X62610000Y-85749000D02*
X62610000Y-87259000D01*
X62610000Y-82159000D02*
X62610000Y-83669000D01*
X62570000Y-85749000D02*
X62570000Y-87265000D01*
X62570000Y-82153000D02*
X62570000Y-83669000D01*
X62530000Y-85749000D02*
X62530000Y-87270000D01*
X62530000Y-82148000D02*
X62530000Y-83669000D01*
X62490000Y-85749000D02*
X62490000Y-87274000D01*
X62490000Y-82144000D02*
X62490000Y-83669000D01*
X62450000Y-85749000D02*
X62450000Y-87278000D01*
X62450000Y-82140000D02*
X62450000Y-83669000D01*
X62410000Y-82136000D02*
X62410000Y-87282000D01*
X62370000Y-82133000D02*
X62370000Y-87285000D01*
X62330000Y-82131000D02*
X62330000Y-87287000D01*
X62290000Y-82130000D02*
X62290000Y-87288000D01*
X62250000Y-82129000D02*
X62250000Y-87289000D01*
X62210000Y-82129000D02*
X62210000Y-87289000D01*
X64830000Y-84709000D02*
G75*
G03X64830000Y-84709000I-2620000J0D01*
G01*
G04 #@! TO.C,C25*
X80910000Y-145819000D02*
X84150000Y-145819000D01*
X80910000Y-148059000D02*
X84150000Y-148059000D01*
X80910000Y-145819000D02*
X80910000Y-145884000D01*
X80910000Y-147994000D02*
X80910000Y-148059000D01*
X84150000Y-145819000D02*
X84150000Y-145884000D01*
X84150000Y-147994000D02*
X84150000Y-148059000D01*
G04 #@! TO.C,C26*
X73925000Y-96289000D02*
X77165000Y-96289000D01*
X73925000Y-98529000D02*
X77165000Y-98529000D01*
X73925000Y-96289000D02*
X73925000Y-96354000D01*
X73925000Y-98464000D02*
X73925000Y-98529000D01*
X77165000Y-96289000D02*
X77165000Y-96354000D01*
X77165000Y-98464000D02*
X77165000Y-98529000D01*
G04 #@! TO.C,C27*
X80950000Y-142709000D02*
X80950000Y-142644000D01*
X80950000Y-144884000D02*
X80950000Y-144819000D01*
X84190000Y-142709000D02*
X84190000Y-142644000D01*
X84190000Y-144884000D02*
X84190000Y-144819000D01*
X84190000Y-142644000D02*
X80950000Y-142644000D01*
X84190000Y-144884000D02*
X80950000Y-144884000D01*
G04 #@! TO.C,C28*
X66074775Y-141044000D02*
X66074775Y-140544000D01*
X66324775Y-140794000D02*
X65824775Y-140794000D01*
X60919000Y-139603000D02*
X60919000Y-139035000D01*
X60959000Y-139837000D02*
X60959000Y-138801000D01*
X60999000Y-139996000D02*
X60999000Y-138642000D01*
X61039000Y-140124000D02*
X61039000Y-138514000D01*
X61079000Y-140234000D02*
X61079000Y-138404000D01*
X61119000Y-140330000D02*
X61119000Y-138308000D01*
X61159000Y-140417000D02*
X61159000Y-138221000D01*
X61199000Y-140497000D02*
X61199000Y-138141000D01*
X61239000Y-138279000D02*
X61239000Y-138068000D01*
X61239000Y-140570000D02*
X61239000Y-140359000D01*
X61279000Y-138279000D02*
X61279000Y-138000000D01*
X61279000Y-140638000D02*
X61279000Y-140359000D01*
X61319000Y-138279000D02*
X61319000Y-137936000D01*
X61319000Y-140702000D02*
X61319000Y-140359000D01*
X61359000Y-138279000D02*
X61359000Y-137876000D01*
X61359000Y-140762000D02*
X61359000Y-140359000D01*
X61399000Y-138279000D02*
X61399000Y-137819000D01*
X61399000Y-140819000D02*
X61399000Y-140359000D01*
X61439000Y-138279000D02*
X61439000Y-137765000D01*
X61439000Y-140873000D02*
X61439000Y-140359000D01*
X61479000Y-138279000D02*
X61479000Y-137714000D01*
X61479000Y-140924000D02*
X61479000Y-140359000D01*
X61519000Y-138279000D02*
X61519000Y-137666000D01*
X61519000Y-140972000D02*
X61519000Y-140359000D01*
X61559000Y-138279000D02*
X61559000Y-137620000D01*
X61559000Y-141018000D02*
X61559000Y-140359000D01*
X61599000Y-138279000D02*
X61599000Y-137576000D01*
X61599000Y-141062000D02*
X61599000Y-140359000D01*
X61639000Y-138279000D02*
X61639000Y-137534000D01*
X61639000Y-141104000D02*
X61639000Y-140359000D01*
X61679000Y-138279000D02*
X61679000Y-137493000D01*
X61679000Y-141145000D02*
X61679000Y-140359000D01*
X61719000Y-138279000D02*
X61719000Y-137455000D01*
X61719000Y-141183000D02*
X61719000Y-140359000D01*
X61759000Y-138279000D02*
X61759000Y-137418000D01*
X61759000Y-141220000D02*
X61759000Y-140359000D01*
X61799000Y-138279000D02*
X61799000Y-137382000D01*
X61799000Y-141256000D02*
X61799000Y-140359000D01*
X61839000Y-138279000D02*
X61839000Y-137348000D01*
X61839000Y-141290000D02*
X61839000Y-140359000D01*
X61879000Y-138279000D02*
X61879000Y-137315000D01*
X61879000Y-141323000D02*
X61879000Y-140359000D01*
X61919000Y-138279000D02*
X61919000Y-137284000D01*
X61919000Y-141354000D02*
X61919000Y-140359000D01*
X61959000Y-138279000D02*
X61959000Y-137254000D01*
X61959000Y-141384000D02*
X61959000Y-140359000D01*
X61999000Y-138279000D02*
X61999000Y-137224000D01*
X61999000Y-141414000D02*
X61999000Y-140359000D01*
X62039000Y-138279000D02*
X62039000Y-137197000D01*
X62039000Y-141441000D02*
X62039000Y-140359000D01*
X62079000Y-138279000D02*
X62079000Y-137170000D01*
X62079000Y-141468000D02*
X62079000Y-140359000D01*
X62119000Y-138279000D02*
X62119000Y-137144000D01*
X62119000Y-141494000D02*
X62119000Y-140359000D01*
X62159000Y-138279000D02*
X62159000Y-137119000D01*
X62159000Y-141519000D02*
X62159000Y-140359000D01*
X62199000Y-138279000D02*
X62199000Y-137095000D01*
X62199000Y-141543000D02*
X62199000Y-140359000D01*
X62239000Y-138279000D02*
X62239000Y-137072000D01*
X62239000Y-141566000D02*
X62239000Y-140359000D01*
X62279000Y-138279000D02*
X62279000Y-137051000D01*
X62279000Y-141587000D02*
X62279000Y-140359000D01*
X62319000Y-138279000D02*
X62319000Y-137029000D01*
X62319000Y-141609000D02*
X62319000Y-140359000D01*
X62359000Y-138279000D02*
X62359000Y-137009000D01*
X62359000Y-141629000D02*
X62359000Y-140359000D01*
X62399000Y-138279000D02*
X62399000Y-136990000D01*
X62399000Y-141648000D02*
X62399000Y-140359000D01*
X62439000Y-138279000D02*
X62439000Y-136971000D01*
X62439000Y-141667000D02*
X62439000Y-140359000D01*
X62479000Y-138279000D02*
X62479000Y-136954000D01*
X62479000Y-141684000D02*
X62479000Y-140359000D01*
X62519000Y-138279000D02*
X62519000Y-136937000D01*
X62519000Y-141701000D02*
X62519000Y-140359000D01*
X62559000Y-138279000D02*
X62559000Y-136921000D01*
X62559000Y-141717000D02*
X62559000Y-140359000D01*
X62599000Y-138279000D02*
X62599000Y-136905000D01*
X62599000Y-141733000D02*
X62599000Y-140359000D01*
X62639000Y-138279000D02*
X62639000Y-136891000D01*
X62639000Y-141747000D02*
X62639000Y-140359000D01*
X62679000Y-138279000D02*
X62679000Y-136877000D01*
X62679000Y-141761000D02*
X62679000Y-140359000D01*
X62719000Y-138279000D02*
X62719000Y-136864000D01*
X62719000Y-141774000D02*
X62719000Y-140359000D01*
X62759000Y-138279000D02*
X62759000Y-136851000D01*
X62759000Y-141787000D02*
X62759000Y-140359000D01*
X62799000Y-138279000D02*
X62799000Y-136839000D01*
X62799000Y-141799000D02*
X62799000Y-140359000D01*
X62840000Y-138279000D02*
X62840000Y-136828000D01*
X62840000Y-141810000D02*
X62840000Y-140359000D01*
X62880000Y-138279000D02*
X62880000Y-136818000D01*
X62880000Y-141820000D02*
X62880000Y-140359000D01*
X62920000Y-138279000D02*
X62920000Y-136808000D01*
X62920000Y-141830000D02*
X62920000Y-140359000D01*
X62960000Y-138279000D02*
X62960000Y-136799000D01*
X62960000Y-141839000D02*
X62960000Y-140359000D01*
X63000000Y-138279000D02*
X63000000Y-136791000D01*
X63000000Y-141847000D02*
X63000000Y-140359000D01*
X63040000Y-138279000D02*
X63040000Y-136783000D01*
X63040000Y-141855000D02*
X63040000Y-140359000D01*
X63080000Y-138279000D02*
X63080000Y-136776000D01*
X63080000Y-141862000D02*
X63080000Y-140359000D01*
X63120000Y-138279000D02*
X63120000Y-136769000D01*
X63120000Y-141869000D02*
X63120000Y-140359000D01*
X63160000Y-138279000D02*
X63160000Y-136763000D01*
X63160000Y-141875000D02*
X63160000Y-140359000D01*
X63200000Y-138279000D02*
X63200000Y-136758000D01*
X63200000Y-141880000D02*
X63200000Y-140359000D01*
X63240000Y-138279000D02*
X63240000Y-136754000D01*
X63240000Y-141884000D02*
X63240000Y-140359000D01*
X63280000Y-138279000D02*
X63280000Y-136750000D01*
X63280000Y-141888000D02*
X63280000Y-140359000D01*
X63320000Y-141892000D02*
X63320000Y-136746000D01*
X63360000Y-141895000D02*
X63360000Y-136743000D01*
X63400000Y-141897000D02*
X63400000Y-136741000D01*
X63440000Y-141898000D02*
X63440000Y-136740000D01*
X63480000Y-141899000D02*
X63480000Y-136739000D01*
X63520000Y-141899000D02*
X63520000Y-136739000D01*
X66140000Y-139319000D02*
G75*
G03X66140000Y-139319000I-2620000J0D01*
G01*
G04 #@! TO.C,C29*
X75935000Y-147994000D02*
X75935000Y-148059000D01*
X75935000Y-145819000D02*
X75935000Y-145884000D01*
X72695000Y-147994000D02*
X72695000Y-148059000D01*
X72695000Y-145819000D02*
X72695000Y-145884000D01*
X72695000Y-148059000D02*
X75935000Y-148059000D01*
X72695000Y-145819000D02*
X75935000Y-145819000D01*
G04 #@! TO.C,C30*
X76260000Y-84709000D02*
G75*
G03X76260000Y-84709000I-2620000J0D01*
G01*
X73640000Y-82129000D02*
X73640000Y-87289000D01*
X73680000Y-82129000D02*
X73680000Y-87289000D01*
X73720000Y-82130000D02*
X73720000Y-87288000D01*
X73760000Y-82131000D02*
X73760000Y-87287000D01*
X73800000Y-82133000D02*
X73800000Y-87285000D01*
X73840000Y-82136000D02*
X73840000Y-87282000D01*
X73880000Y-82140000D02*
X73880000Y-83669000D01*
X73880000Y-85749000D02*
X73880000Y-87278000D01*
X73920000Y-82144000D02*
X73920000Y-83669000D01*
X73920000Y-85749000D02*
X73920000Y-87274000D01*
X73960000Y-82148000D02*
X73960000Y-83669000D01*
X73960000Y-85749000D02*
X73960000Y-87270000D01*
X74000000Y-82153000D02*
X74000000Y-83669000D01*
X74000000Y-85749000D02*
X74000000Y-87265000D01*
X74040000Y-82159000D02*
X74040000Y-83669000D01*
X74040000Y-85749000D02*
X74040000Y-87259000D01*
X74080000Y-82166000D02*
X74080000Y-83669000D01*
X74080000Y-85749000D02*
X74080000Y-87252000D01*
X74120000Y-82173000D02*
X74120000Y-83669000D01*
X74120000Y-85749000D02*
X74120000Y-87245000D01*
X74160000Y-82181000D02*
X74160000Y-83669000D01*
X74160000Y-85749000D02*
X74160000Y-87237000D01*
X74200000Y-82189000D02*
X74200000Y-83669000D01*
X74200000Y-85749000D02*
X74200000Y-87229000D01*
X74240000Y-82198000D02*
X74240000Y-83669000D01*
X74240000Y-85749000D02*
X74240000Y-87220000D01*
X74280000Y-82208000D02*
X74280000Y-83669000D01*
X74280000Y-85749000D02*
X74280000Y-87210000D01*
X74320000Y-82218000D02*
X74320000Y-83669000D01*
X74320000Y-85749000D02*
X74320000Y-87200000D01*
X74361000Y-82229000D02*
X74361000Y-83669000D01*
X74361000Y-85749000D02*
X74361000Y-87189000D01*
X74401000Y-82241000D02*
X74401000Y-83669000D01*
X74401000Y-85749000D02*
X74401000Y-87177000D01*
X74441000Y-82254000D02*
X74441000Y-83669000D01*
X74441000Y-85749000D02*
X74441000Y-87164000D01*
X74481000Y-82267000D02*
X74481000Y-83669000D01*
X74481000Y-85749000D02*
X74481000Y-87151000D01*
X74521000Y-82281000D02*
X74521000Y-83669000D01*
X74521000Y-85749000D02*
X74521000Y-87137000D01*
X74561000Y-82295000D02*
X74561000Y-83669000D01*
X74561000Y-85749000D02*
X74561000Y-87123000D01*
X74601000Y-82311000D02*
X74601000Y-83669000D01*
X74601000Y-85749000D02*
X74601000Y-87107000D01*
X74641000Y-82327000D02*
X74641000Y-83669000D01*
X74641000Y-85749000D02*
X74641000Y-87091000D01*
X74681000Y-82344000D02*
X74681000Y-83669000D01*
X74681000Y-85749000D02*
X74681000Y-87074000D01*
X74721000Y-82361000D02*
X74721000Y-83669000D01*
X74721000Y-85749000D02*
X74721000Y-87057000D01*
X74761000Y-82380000D02*
X74761000Y-83669000D01*
X74761000Y-85749000D02*
X74761000Y-87038000D01*
X74801000Y-82399000D02*
X74801000Y-83669000D01*
X74801000Y-85749000D02*
X74801000Y-87019000D01*
X74841000Y-82419000D02*
X74841000Y-83669000D01*
X74841000Y-85749000D02*
X74841000Y-86999000D01*
X74881000Y-82441000D02*
X74881000Y-83669000D01*
X74881000Y-85749000D02*
X74881000Y-86977000D01*
X74921000Y-82462000D02*
X74921000Y-83669000D01*
X74921000Y-85749000D02*
X74921000Y-86956000D01*
X74961000Y-82485000D02*
X74961000Y-83669000D01*
X74961000Y-85749000D02*
X74961000Y-86933000D01*
X75001000Y-82509000D02*
X75001000Y-83669000D01*
X75001000Y-85749000D02*
X75001000Y-86909000D01*
X75041000Y-82534000D02*
X75041000Y-83669000D01*
X75041000Y-85749000D02*
X75041000Y-86884000D01*
X75081000Y-82560000D02*
X75081000Y-83669000D01*
X75081000Y-85749000D02*
X75081000Y-86858000D01*
X75121000Y-82587000D02*
X75121000Y-83669000D01*
X75121000Y-85749000D02*
X75121000Y-86831000D01*
X75161000Y-82614000D02*
X75161000Y-83669000D01*
X75161000Y-85749000D02*
X75161000Y-86804000D01*
X75201000Y-82644000D02*
X75201000Y-83669000D01*
X75201000Y-85749000D02*
X75201000Y-86774000D01*
X75241000Y-82674000D02*
X75241000Y-83669000D01*
X75241000Y-85749000D02*
X75241000Y-86744000D01*
X75281000Y-82705000D02*
X75281000Y-83669000D01*
X75281000Y-85749000D02*
X75281000Y-86713000D01*
X75321000Y-82738000D02*
X75321000Y-83669000D01*
X75321000Y-85749000D02*
X75321000Y-86680000D01*
X75361000Y-82772000D02*
X75361000Y-83669000D01*
X75361000Y-85749000D02*
X75361000Y-86646000D01*
X75401000Y-82808000D02*
X75401000Y-83669000D01*
X75401000Y-85749000D02*
X75401000Y-86610000D01*
X75441000Y-82845000D02*
X75441000Y-83669000D01*
X75441000Y-85749000D02*
X75441000Y-86573000D01*
X75481000Y-82883000D02*
X75481000Y-83669000D01*
X75481000Y-85749000D02*
X75481000Y-86535000D01*
X75521000Y-82924000D02*
X75521000Y-83669000D01*
X75521000Y-85749000D02*
X75521000Y-86494000D01*
X75561000Y-82966000D02*
X75561000Y-83669000D01*
X75561000Y-85749000D02*
X75561000Y-86452000D01*
X75601000Y-83010000D02*
X75601000Y-83669000D01*
X75601000Y-85749000D02*
X75601000Y-86408000D01*
X75641000Y-83056000D02*
X75641000Y-83669000D01*
X75641000Y-85749000D02*
X75641000Y-86362000D01*
X75681000Y-83104000D02*
X75681000Y-83669000D01*
X75681000Y-85749000D02*
X75681000Y-86314000D01*
X75721000Y-83155000D02*
X75721000Y-83669000D01*
X75721000Y-85749000D02*
X75721000Y-86263000D01*
X75761000Y-83209000D02*
X75761000Y-83669000D01*
X75761000Y-85749000D02*
X75761000Y-86209000D01*
X75801000Y-83266000D02*
X75801000Y-83669000D01*
X75801000Y-85749000D02*
X75801000Y-86152000D01*
X75841000Y-83326000D02*
X75841000Y-83669000D01*
X75841000Y-85749000D02*
X75841000Y-86092000D01*
X75881000Y-83390000D02*
X75881000Y-83669000D01*
X75881000Y-85749000D02*
X75881000Y-86028000D01*
X75921000Y-83458000D02*
X75921000Y-83669000D01*
X75921000Y-85749000D02*
X75921000Y-85960000D01*
X75961000Y-83531000D02*
X75961000Y-85887000D01*
X76001000Y-83611000D02*
X76001000Y-85807000D01*
X76041000Y-83698000D02*
X76041000Y-85720000D01*
X76081000Y-83794000D02*
X76081000Y-85624000D01*
X76121000Y-83904000D02*
X76121000Y-85514000D01*
X76161000Y-84032000D02*
X76161000Y-85386000D01*
X76201000Y-84191000D02*
X76201000Y-85227000D01*
X76241000Y-84425000D02*
X76241000Y-84993000D01*
X70835225Y-83234000D02*
X71335225Y-83234000D01*
X71085225Y-82984000D02*
X71085225Y-83484000D01*
G04 #@! TO.C,C31*
X79475000Y-138049000D02*
G75*
G03X79475000Y-138049000I-2620000J0D01*
G01*
X76855000Y-140629000D02*
X76855000Y-135469000D01*
X76815000Y-140629000D02*
X76815000Y-135469000D01*
X76775000Y-140628000D02*
X76775000Y-135470000D01*
X76735000Y-140627000D02*
X76735000Y-135471000D01*
X76695000Y-140625000D02*
X76695000Y-135473000D01*
X76655000Y-140622000D02*
X76655000Y-135476000D01*
X76615000Y-140618000D02*
X76615000Y-139089000D01*
X76615000Y-137009000D02*
X76615000Y-135480000D01*
X76575000Y-140614000D02*
X76575000Y-139089000D01*
X76575000Y-137009000D02*
X76575000Y-135484000D01*
X76535000Y-140610000D02*
X76535000Y-139089000D01*
X76535000Y-137009000D02*
X76535000Y-135488000D01*
X76495000Y-140605000D02*
X76495000Y-139089000D01*
X76495000Y-137009000D02*
X76495000Y-135493000D01*
X76455000Y-140599000D02*
X76455000Y-139089000D01*
X76455000Y-137009000D02*
X76455000Y-135499000D01*
X76415000Y-140592000D02*
X76415000Y-139089000D01*
X76415000Y-137009000D02*
X76415000Y-135506000D01*
X76375000Y-140585000D02*
X76375000Y-139089000D01*
X76375000Y-137009000D02*
X76375000Y-135513000D01*
X76335000Y-140577000D02*
X76335000Y-139089000D01*
X76335000Y-137009000D02*
X76335000Y-135521000D01*
X76295000Y-140569000D02*
X76295000Y-139089000D01*
X76295000Y-137009000D02*
X76295000Y-135529000D01*
X76255000Y-140560000D02*
X76255000Y-139089000D01*
X76255000Y-137009000D02*
X76255000Y-135538000D01*
X76215000Y-140550000D02*
X76215000Y-139089000D01*
X76215000Y-137009000D02*
X76215000Y-135548000D01*
X76175000Y-140540000D02*
X76175000Y-139089000D01*
X76175000Y-137009000D02*
X76175000Y-135558000D01*
X76134000Y-140529000D02*
X76134000Y-139089000D01*
X76134000Y-137009000D02*
X76134000Y-135569000D01*
X76094000Y-140517000D02*
X76094000Y-139089000D01*
X76094000Y-137009000D02*
X76094000Y-135581000D01*
X76054000Y-140504000D02*
X76054000Y-139089000D01*
X76054000Y-137009000D02*
X76054000Y-135594000D01*
X76014000Y-140491000D02*
X76014000Y-139089000D01*
X76014000Y-137009000D02*
X76014000Y-135607000D01*
X75974000Y-140477000D02*
X75974000Y-139089000D01*
X75974000Y-137009000D02*
X75974000Y-135621000D01*
X75934000Y-140463000D02*
X75934000Y-139089000D01*
X75934000Y-137009000D02*
X75934000Y-135635000D01*
X75894000Y-140447000D02*
X75894000Y-139089000D01*
X75894000Y-137009000D02*
X75894000Y-135651000D01*
X75854000Y-140431000D02*
X75854000Y-139089000D01*
X75854000Y-137009000D02*
X75854000Y-135667000D01*
X75814000Y-140414000D02*
X75814000Y-139089000D01*
X75814000Y-137009000D02*
X75814000Y-135684000D01*
X75774000Y-140397000D02*
X75774000Y-139089000D01*
X75774000Y-137009000D02*
X75774000Y-135701000D01*
X75734000Y-140378000D02*
X75734000Y-139089000D01*
X75734000Y-137009000D02*
X75734000Y-135720000D01*
X75694000Y-140359000D02*
X75694000Y-139089000D01*
X75694000Y-137009000D02*
X75694000Y-135739000D01*
X75654000Y-140339000D02*
X75654000Y-139089000D01*
X75654000Y-137009000D02*
X75654000Y-135759000D01*
X75614000Y-140317000D02*
X75614000Y-139089000D01*
X75614000Y-137009000D02*
X75614000Y-135781000D01*
X75574000Y-140296000D02*
X75574000Y-139089000D01*
X75574000Y-137009000D02*
X75574000Y-135802000D01*
X75534000Y-140273000D02*
X75534000Y-139089000D01*
X75534000Y-137009000D02*
X75534000Y-135825000D01*
X75494000Y-140249000D02*
X75494000Y-139089000D01*
X75494000Y-137009000D02*
X75494000Y-135849000D01*
X75454000Y-140224000D02*
X75454000Y-139089000D01*
X75454000Y-137009000D02*
X75454000Y-135874000D01*
X75414000Y-140198000D02*
X75414000Y-139089000D01*
X75414000Y-137009000D02*
X75414000Y-135900000D01*
X75374000Y-140171000D02*
X75374000Y-139089000D01*
X75374000Y-137009000D02*
X75374000Y-135927000D01*
X75334000Y-140144000D02*
X75334000Y-139089000D01*
X75334000Y-137009000D02*
X75334000Y-135954000D01*
X75294000Y-140114000D02*
X75294000Y-139089000D01*
X75294000Y-137009000D02*
X75294000Y-135984000D01*
X75254000Y-140084000D02*
X75254000Y-139089000D01*
X75254000Y-137009000D02*
X75254000Y-136014000D01*
X75214000Y-140053000D02*
X75214000Y-139089000D01*
X75214000Y-137009000D02*
X75214000Y-136045000D01*
X75174000Y-140020000D02*
X75174000Y-139089000D01*
X75174000Y-137009000D02*
X75174000Y-136078000D01*
X75134000Y-139986000D02*
X75134000Y-139089000D01*
X75134000Y-137009000D02*
X75134000Y-136112000D01*
X75094000Y-139950000D02*
X75094000Y-139089000D01*
X75094000Y-137009000D02*
X75094000Y-136148000D01*
X75054000Y-139913000D02*
X75054000Y-139089000D01*
X75054000Y-137009000D02*
X75054000Y-136185000D01*
X75014000Y-139875000D02*
X75014000Y-139089000D01*
X75014000Y-137009000D02*
X75014000Y-136223000D01*
X74974000Y-139834000D02*
X74974000Y-139089000D01*
X74974000Y-137009000D02*
X74974000Y-136264000D01*
X74934000Y-139792000D02*
X74934000Y-139089000D01*
X74934000Y-137009000D02*
X74934000Y-136306000D01*
X74894000Y-139748000D02*
X74894000Y-139089000D01*
X74894000Y-137009000D02*
X74894000Y-136350000D01*
X74854000Y-139702000D02*
X74854000Y-139089000D01*
X74854000Y-137009000D02*
X74854000Y-136396000D01*
X74814000Y-139654000D02*
X74814000Y-139089000D01*
X74814000Y-137009000D02*
X74814000Y-136444000D01*
X74774000Y-139603000D02*
X74774000Y-139089000D01*
X74774000Y-137009000D02*
X74774000Y-136495000D01*
X74734000Y-139549000D02*
X74734000Y-139089000D01*
X74734000Y-137009000D02*
X74734000Y-136549000D01*
X74694000Y-139492000D02*
X74694000Y-139089000D01*
X74694000Y-137009000D02*
X74694000Y-136606000D01*
X74654000Y-139432000D02*
X74654000Y-139089000D01*
X74654000Y-137009000D02*
X74654000Y-136666000D01*
X74614000Y-139368000D02*
X74614000Y-139089000D01*
X74614000Y-137009000D02*
X74614000Y-136730000D01*
X74574000Y-139300000D02*
X74574000Y-139089000D01*
X74574000Y-137009000D02*
X74574000Y-136798000D01*
X74534000Y-139227000D02*
X74534000Y-136871000D01*
X74494000Y-139147000D02*
X74494000Y-136951000D01*
X74454000Y-139060000D02*
X74454000Y-137038000D01*
X74414000Y-138964000D02*
X74414000Y-137134000D01*
X74374000Y-138854000D02*
X74374000Y-137244000D01*
X74334000Y-138726000D02*
X74334000Y-137372000D01*
X74294000Y-138567000D02*
X74294000Y-137531000D01*
X74254000Y-138333000D02*
X74254000Y-137765000D01*
X79659775Y-139524000D02*
X79159775Y-139524000D01*
X79409775Y-139774000D02*
X79409775Y-139274000D01*
G04 #@! TO.C,C32*
X77459000Y-74843500D02*
X74219000Y-74843500D01*
X77459000Y-72603500D02*
X74219000Y-72603500D01*
X77459000Y-74843500D02*
X77459000Y-74778500D01*
X77459000Y-72668500D02*
X77459000Y-72603500D01*
X74219000Y-74843500D02*
X74219000Y-74778500D01*
X74219000Y-72668500D02*
X74219000Y-72603500D01*
G04 #@! TO.C,C33*
X101841500Y-72859000D02*
X101841500Y-72794000D01*
X101841500Y-75034000D02*
X101841500Y-74969000D01*
X105081500Y-72859000D02*
X105081500Y-72794000D01*
X105081500Y-75034000D02*
X105081500Y-74969000D01*
X105081500Y-72794000D02*
X101841500Y-72794000D01*
X105081500Y-75034000D02*
X101841500Y-75034000D01*
G04 #@! TO.C,C34*
X76530000Y-53887000D02*
X76530000Y-53952000D01*
X76530000Y-51712000D02*
X76530000Y-51777000D01*
X73290000Y-53887000D02*
X73290000Y-53952000D01*
X73290000Y-51712000D02*
X73290000Y-51777000D01*
X73290000Y-53952000D02*
X76530000Y-53952000D01*
X73290000Y-51712000D02*
X76530000Y-51712000D01*
G04 #@! TO.C,C35*
X104510000Y-49315000D02*
X104510000Y-49380000D01*
X104510000Y-47140000D02*
X104510000Y-47205000D01*
X101270000Y-49315000D02*
X101270000Y-49380000D01*
X101270000Y-47140000D02*
X101270000Y-47205000D01*
X101270000Y-49380000D02*
X104510000Y-49380000D01*
X101270000Y-47140000D02*
X104510000Y-47140000D01*
G04 #@! TO.C,C36*
X75365000Y-40198646D02*
X76365000Y-40198646D01*
X75865000Y-40698646D02*
X75865000Y-39698646D01*
X78141000Y-30138000D02*
X79339000Y-30138000D01*
X77878000Y-30178000D02*
X79602000Y-30178000D01*
X77678000Y-30218000D02*
X79802000Y-30218000D01*
X77510000Y-30258000D02*
X79970000Y-30258000D01*
X77362000Y-30298000D02*
X80118000Y-30298000D01*
X77230000Y-30338000D02*
X80250000Y-30338000D01*
X77110000Y-30378000D02*
X80370000Y-30378000D01*
X76998000Y-30418000D02*
X80482000Y-30418000D01*
X76894000Y-30458000D02*
X80586000Y-30458000D01*
X76796000Y-30498000D02*
X80684000Y-30498000D01*
X76703000Y-30538000D02*
X80777000Y-30538000D01*
X76615000Y-30578000D02*
X80865000Y-30578000D01*
X76531000Y-30618000D02*
X80949000Y-30618000D01*
X76451000Y-30658000D02*
X81029000Y-30658000D01*
X76375000Y-30698000D02*
X81105000Y-30698000D01*
X76301000Y-30738000D02*
X81179000Y-30738000D01*
X76230000Y-30778000D02*
X81250000Y-30778000D01*
X76161000Y-30818000D02*
X81319000Y-30818000D01*
X76095000Y-30858000D02*
X81385000Y-30858000D01*
X76031000Y-30898000D02*
X81449000Y-30898000D01*
X75970000Y-30938000D02*
X81510000Y-30938000D01*
X75910000Y-30978000D02*
X81570000Y-30978000D01*
X75851000Y-31018000D02*
X81629000Y-31018000D01*
X75795000Y-31058000D02*
X81685000Y-31058000D01*
X75740000Y-31098000D02*
X81740000Y-31098000D01*
X75686000Y-31138000D02*
X81794000Y-31138000D01*
X75634000Y-31178000D02*
X81846000Y-31178000D01*
X75584000Y-31218000D02*
X81896000Y-31218000D01*
X75534000Y-31258000D02*
X81946000Y-31258000D01*
X75486000Y-31298000D02*
X81994000Y-31298000D01*
X75439000Y-31338000D02*
X82041000Y-31338000D01*
X75393000Y-31378000D02*
X82087000Y-31378000D01*
X75348000Y-31418000D02*
X82132000Y-31418000D01*
X75304000Y-31458000D02*
X82176000Y-31458000D01*
X79981000Y-31498000D02*
X82218000Y-31498000D01*
X75262000Y-31498000D02*
X77499000Y-31498000D01*
X79981000Y-31538000D02*
X82260000Y-31538000D01*
X75220000Y-31538000D02*
X77499000Y-31538000D01*
X79981000Y-31578000D02*
X82301000Y-31578000D01*
X75179000Y-31578000D02*
X77499000Y-31578000D01*
X79981000Y-31618000D02*
X82341000Y-31618000D01*
X75139000Y-31618000D02*
X77499000Y-31618000D01*
X79981000Y-31658000D02*
X82380000Y-31658000D01*
X75100000Y-31658000D02*
X77499000Y-31658000D01*
X79981000Y-31698000D02*
X82419000Y-31698000D01*
X75061000Y-31698000D02*
X77499000Y-31698000D01*
X79981000Y-31738000D02*
X82456000Y-31738000D01*
X75024000Y-31738000D02*
X77499000Y-31738000D01*
X79981000Y-31778000D02*
X82493000Y-31778000D01*
X74987000Y-31778000D02*
X77499000Y-31778000D01*
X79981000Y-31818000D02*
X82529000Y-31818000D01*
X74951000Y-31818000D02*
X77499000Y-31818000D01*
X79981000Y-31858000D02*
X82564000Y-31858000D01*
X74916000Y-31858000D02*
X77499000Y-31858000D01*
X79981000Y-31898000D02*
X82598000Y-31898000D01*
X74882000Y-31898000D02*
X77499000Y-31898000D01*
X79981000Y-31938000D02*
X82632000Y-31938000D01*
X74848000Y-31938000D02*
X77499000Y-31938000D01*
X79981000Y-31978000D02*
X82665000Y-31978000D01*
X74815000Y-31978000D02*
X77499000Y-31978000D01*
X79981000Y-32018000D02*
X82697000Y-32018000D01*
X74783000Y-32018000D02*
X77499000Y-32018000D01*
X79981000Y-32058000D02*
X82729000Y-32058000D01*
X74751000Y-32058000D02*
X77499000Y-32058000D01*
X79981000Y-32098000D02*
X82760000Y-32098000D01*
X74720000Y-32098000D02*
X77499000Y-32098000D01*
X79981000Y-32138000D02*
X82790000Y-32138000D01*
X74690000Y-32138000D02*
X77499000Y-32138000D01*
X79981000Y-32178000D02*
X82820000Y-32178000D01*
X74660000Y-32178000D02*
X77499000Y-32178000D01*
X79981000Y-32218000D02*
X82850000Y-32218000D01*
X74630000Y-32218000D02*
X77499000Y-32218000D01*
X79981000Y-32258000D02*
X82878000Y-32258000D01*
X74602000Y-32258000D02*
X77499000Y-32258000D01*
X79981000Y-32298000D02*
X82906000Y-32298000D01*
X74574000Y-32298000D02*
X77499000Y-32298000D01*
X79981000Y-32338000D02*
X82934000Y-32338000D01*
X74546000Y-32338000D02*
X77499000Y-32338000D01*
X79981000Y-32378000D02*
X82961000Y-32378000D01*
X74519000Y-32378000D02*
X77499000Y-32378000D01*
X79981000Y-32418000D02*
X82987000Y-32418000D01*
X74493000Y-32418000D02*
X77499000Y-32418000D01*
X79981000Y-32458000D02*
X83013000Y-32458000D01*
X74467000Y-32458000D02*
X77499000Y-32458000D01*
X79981000Y-32498000D02*
X83038000Y-32498000D01*
X74442000Y-32498000D02*
X77499000Y-32498000D01*
X79981000Y-32538000D02*
X83063000Y-32538000D01*
X74417000Y-32538000D02*
X77499000Y-32538000D01*
X79981000Y-32578000D02*
X83087000Y-32578000D01*
X74393000Y-32578000D02*
X77499000Y-32578000D01*
X79981000Y-32618000D02*
X83111000Y-32618000D01*
X74369000Y-32618000D02*
X77499000Y-32618000D01*
X79981000Y-32658000D02*
X83135000Y-32658000D01*
X74345000Y-32658000D02*
X77499000Y-32658000D01*
X79981000Y-32698000D02*
X83157000Y-32698000D01*
X74323000Y-32698000D02*
X77499000Y-32698000D01*
X79981000Y-32738000D02*
X83180000Y-32738000D01*
X74300000Y-32738000D02*
X77499000Y-32738000D01*
X79981000Y-32778000D02*
X83202000Y-32778000D01*
X74278000Y-32778000D02*
X77499000Y-32778000D01*
X79981000Y-32818000D02*
X83223000Y-32818000D01*
X74257000Y-32818000D02*
X77499000Y-32818000D01*
X79981000Y-32858000D02*
X83244000Y-32858000D01*
X74236000Y-32858000D02*
X77499000Y-32858000D01*
X79981000Y-32898000D02*
X83265000Y-32898000D01*
X74215000Y-32898000D02*
X77499000Y-32898000D01*
X79981000Y-32938000D02*
X83285000Y-32938000D01*
X74195000Y-32938000D02*
X77499000Y-32938000D01*
X79981000Y-32978000D02*
X83304000Y-32978000D01*
X74176000Y-32978000D02*
X77499000Y-32978000D01*
X79981000Y-33018000D02*
X83324000Y-33018000D01*
X74156000Y-33018000D02*
X77499000Y-33018000D01*
X79981000Y-33058000D02*
X83343000Y-33058000D01*
X74137000Y-33058000D02*
X77499000Y-33058000D01*
X79981000Y-33098000D02*
X83361000Y-33098000D01*
X74119000Y-33098000D02*
X77499000Y-33098000D01*
X79981000Y-33138000D02*
X83379000Y-33138000D01*
X74101000Y-33138000D02*
X77499000Y-33138000D01*
X79981000Y-33178000D02*
X83397000Y-33178000D01*
X74083000Y-33178000D02*
X77499000Y-33178000D01*
X79981000Y-33218000D02*
X83414000Y-33218000D01*
X74066000Y-33218000D02*
X77499000Y-33218000D01*
X79981000Y-33258000D02*
X83430000Y-33258000D01*
X74050000Y-33258000D02*
X77499000Y-33258000D01*
X79981000Y-33298000D02*
X83447000Y-33298000D01*
X74033000Y-33298000D02*
X77499000Y-33298000D01*
X79981000Y-33338000D02*
X83463000Y-33338000D01*
X74017000Y-33338000D02*
X77499000Y-33338000D01*
X79981000Y-33378000D02*
X83478000Y-33378000D01*
X74002000Y-33378000D02*
X77499000Y-33378000D01*
X79981000Y-33418000D02*
X83494000Y-33418000D01*
X73986000Y-33418000D02*
X77499000Y-33418000D01*
X79981000Y-33458000D02*
X83508000Y-33458000D01*
X73972000Y-33458000D02*
X77499000Y-33458000D01*
X79981000Y-33498000D02*
X83523000Y-33498000D01*
X73957000Y-33498000D02*
X77499000Y-33498000D01*
X79981000Y-33538000D02*
X83537000Y-33538000D01*
X73943000Y-33538000D02*
X77499000Y-33538000D01*
X79981000Y-33578000D02*
X83551000Y-33578000D01*
X73929000Y-33578000D02*
X77499000Y-33578000D01*
X79981000Y-33618000D02*
X83564000Y-33618000D01*
X73916000Y-33618000D02*
X77499000Y-33618000D01*
X79981000Y-33658000D02*
X83577000Y-33658000D01*
X73903000Y-33658000D02*
X77499000Y-33658000D01*
X79981000Y-33698000D02*
X83590000Y-33698000D01*
X73890000Y-33698000D02*
X77499000Y-33698000D01*
X79981000Y-33738000D02*
X83602000Y-33738000D01*
X73878000Y-33738000D02*
X77499000Y-33738000D01*
X79981000Y-33778000D02*
X83614000Y-33778000D01*
X73866000Y-33778000D02*
X77499000Y-33778000D01*
X79981000Y-33818000D02*
X83625000Y-33818000D01*
X73855000Y-33818000D02*
X77499000Y-33818000D01*
X79981000Y-33858000D02*
X83637000Y-33858000D01*
X73843000Y-33858000D02*
X77499000Y-33858000D01*
X79981000Y-33898000D02*
X83647000Y-33898000D01*
X73833000Y-33898000D02*
X77499000Y-33898000D01*
X79981000Y-33938000D02*
X83658000Y-33938000D01*
X73822000Y-33938000D02*
X77499000Y-33938000D01*
X73812000Y-33978000D02*
X83668000Y-33978000D01*
X73802000Y-34018000D02*
X83678000Y-34018000D01*
X73793000Y-34058000D02*
X83687000Y-34058000D01*
X73784000Y-34098000D02*
X83696000Y-34098000D01*
X73775000Y-34138000D02*
X83705000Y-34138000D01*
X73766000Y-34178000D02*
X83714000Y-34178000D01*
X73758000Y-34218000D02*
X83722000Y-34218000D01*
X73750000Y-34258000D02*
X83730000Y-34258000D01*
X73743000Y-34298000D02*
X83737000Y-34298000D01*
X73736000Y-34338000D02*
X83744000Y-34338000D01*
X73729000Y-34378000D02*
X83751000Y-34378000D01*
X73722000Y-34418000D02*
X83758000Y-34418000D01*
X73716000Y-34458000D02*
X83764000Y-34458000D01*
X73710000Y-34498000D02*
X83770000Y-34498000D01*
X73705000Y-34539000D02*
X83775000Y-34539000D01*
X73700000Y-34579000D02*
X83780000Y-34579000D01*
X73695000Y-34619000D02*
X83785000Y-34619000D01*
X73690000Y-34659000D02*
X83790000Y-34659000D01*
X73686000Y-34699000D02*
X83794000Y-34699000D01*
X73682000Y-34739000D02*
X83798000Y-34739000D01*
X73678000Y-34779000D02*
X83802000Y-34779000D01*
X73675000Y-34819000D02*
X83805000Y-34819000D01*
X73672000Y-34859000D02*
X83808000Y-34859000D01*
X73670000Y-34899000D02*
X83810000Y-34899000D01*
X73667000Y-34939000D02*
X83813000Y-34939000D01*
X73665000Y-34979000D02*
X83815000Y-34979000D01*
X73663000Y-35019000D02*
X83817000Y-35019000D01*
X73662000Y-35059000D02*
X83818000Y-35059000D01*
X73661000Y-35099000D02*
X83819000Y-35099000D01*
X73660000Y-35139000D02*
X83820000Y-35139000D01*
X73660000Y-35179000D02*
X83820000Y-35179000D01*
X73660000Y-35219000D02*
X83820000Y-35219000D01*
X83860000Y-35219000D02*
G75*
G03X83860000Y-35219000I-5120000J0D01*
G01*
G04 #@! TO.C,C37*
X95925000Y-35219000D02*
G75*
G03X95925000Y-35219000I-5120000J0D01*
G01*
X85725000Y-35219000D02*
X95885000Y-35219000D01*
X85725000Y-35179000D02*
X95885000Y-35179000D01*
X85725000Y-35139000D02*
X95885000Y-35139000D01*
X85726000Y-35099000D02*
X95884000Y-35099000D01*
X85727000Y-35059000D02*
X95883000Y-35059000D01*
X85728000Y-35019000D02*
X95882000Y-35019000D01*
X85730000Y-34979000D02*
X95880000Y-34979000D01*
X85732000Y-34939000D02*
X95878000Y-34939000D01*
X85735000Y-34899000D02*
X95875000Y-34899000D01*
X85737000Y-34859000D02*
X95873000Y-34859000D01*
X85740000Y-34819000D02*
X95870000Y-34819000D01*
X85743000Y-34779000D02*
X95867000Y-34779000D01*
X85747000Y-34739000D02*
X95863000Y-34739000D01*
X85751000Y-34699000D02*
X95859000Y-34699000D01*
X85755000Y-34659000D02*
X95855000Y-34659000D01*
X85760000Y-34619000D02*
X95850000Y-34619000D01*
X85765000Y-34579000D02*
X95845000Y-34579000D01*
X85770000Y-34539000D02*
X95840000Y-34539000D01*
X85775000Y-34498000D02*
X95835000Y-34498000D01*
X85781000Y-34458000D02*
X95829000Y-34458000D01*
X85787000Y-34418000D02*
X95823000Y-34418000D01*
X85794000Y-34378000D02*
X95816000Y-34378000D01*
X85801000Y-34338000D02*
X95809000Y-34338000D01*
X85808000Y-34298000D02*
X95802000Y-34298000D01*
X85815000Y-34258000D02*
X95795000Y-34258000D01*
X85823000Y-34218000D02*
X95787000Y-34218000D01*
X85831000Y-34178000D02*
X95779000Y-34178000D01*
X85840000Y-34138000D02*
X95770000Y-34138000D01*
X85849000Y-34098000D02*
X95761000Y-34098000D01*
X85858000Y-34058000D02*
X95752000Y-34058000D01*
X85867000Y-34018000D02*
X95743000Y-34018000D01*
X85877000Y-33978000D02*
X95733000Y-33978000D01*
X85887000Y-33938000D02*
X89564000Y-33938000D01*
X92046000Y-33938000D02*
X95723000Y-33938000D01*
X85898000Y-33898000D02*
X89564000Y-33898000D01*
X92046000Y-33898000D02*
X95712000Y-33898000D01*
X85908000Y-33858000D02*
X89564000Y-33858000D01*
X92046000Y-33858000D02*
X95702000Y-33858000D01*
X85920000Y-33818000D02*
X89564000Y-33818000D01*
X92046000Y-33818000D02*
X95690000Y-33818000D01*
X85931000Y-33778000D02*
X89564000Y-33778000D01*
X92046000Y-33778000D02*
X95679000Y-33778000D01*
X85943000Y-33738000D02*
X89564000Y-33738000D01*
X92046000Y-33738000D02*
X95667000Y-33738000D01*
X85955000Y-33698000D02*
X89564000Y-33698000D01*
X92046000Y-33698000D02*
X95655000Y-33698000D01*
X85968000Y-33658000D02*
X89564000Y-33658000D01*
X92046000Y-33658000D02*
X95642000Y-33658000D01*
X85981000Y-33618000D02*
X89564000Y-33618000D01*
X92046000Y-33618000D02*
X95629000Y-33618000D01*
X85994000Y-33578000D02*
X89564000Y-33578000D01*
X92046000Y-33578000D02*
X95616000Y-33578000D01*
X86008000Y-33538000D02*
X89564000Y-33538000D01*
X92046000Y-33538000D02*
X95602000Y-33538000D01*
X86022000Y-33498000D02*
X89564000Y-33498000D01*
X92046000Y-33498000D02*
X95588000Y-33498000D01*
X86037000Y-33458000D02*
X89564000Y-33458000D01*
X92046000Y-33458000D02*
X95573000Y-33458000D01*
X86051000Y-33418000D02*
X89564000Y-33418000D01*
X92046000Y-33418000D02*
X95559000Y-33418000D01*
X86067000Y-33378000D02*
X89564000Y-33378000D01*
X92046000Y-33378000D02*
X95543000Y-33378000D01*
X86082000Y-33338000D02*
X89564000Y-33338000D01*
X92046000Y-33338000D02*
X95528000Y-33338000D01*
X86098000Y-33298000D02*
X89564000Y-33298000D01*
X92046000Y-33298000D02*
X95512000Y-33298000D01*
X86115000Y-33258000D02*
X89564000Y-33258000D01*
X92046000Y-33258000D02*
X95495000Y-33258000D01*
X86131000Y-33218000D02*
X89564000Y-33218000D01*
X92046000Y-33218000D02*
X95479000Y-33218000D01*
X86148000Y-33178000D02*
X89564000Y-33178000D01*
X92046000Y-33178000D02*
X95462000Y-33178000D01*
X86166000Y-33138000D02*
X89564000Y-33138000D01*
X92046000Y-33138000D02*
X95444000Y-33138000D01*
X86184000Y-33098000D02*
X89564000Y-33098000D01*
X92046000Y-33098000D02*
X95426000Y-33098000D01*
X86202000Y-33058000D02*
X89564000Y-33058000D01*
X92046000Y-33058000D02*
X95408000Y-33058000D01*
X86221000Y-33018000D02*
X89564000Y-33018000D01*
X92046000Y-33018000D02*
X95389000Y-33018000D01*
X86241000Y-32978000D02*
X89564000Y-32978000D01*
X92046000Y-32978000D02*
X95369000Y-32978000D01*
X86260000Y-32938000D02*
X89564000Y-32938000D01*
X92046000Y-32938000D02*
X95350000Y-32938000D01*
X86280000Y-32898000D02*
X89564000Y-32898000D01*
X92046000Y-32898000D02*
X95330000Y-32898000D01*
X86301000Y-32858000D02*
X89564000Y-32858000D01*
X92046000Y-32858000D02*
X95309000Y-32858000D01*
X86322000Y-32818000D02*
X89564000Y-32818000D01*
X92046000Y-32818000D02*
X95288000Y-32818000D01*
X86343000Y-32778000D02*
X89564000Y-32778000D01*
X92046000Y-32778000D02*
X95267000Y-32778000D01*
X86365000Y-32738000D02*
X89564000Y-32738000D01*
X92046000Y-32738000D02*
X95245000Y-32738000D01*
X86388000Y-32698000D02*
X89564000Y-32698000D01*
X92046000Y-32698000D02*
X95222000Y-32698000D01*
X86410000Y-32658000D02*
X89564000Y-32658000D01*
X92046000Y-32658000D02*
X95200000Y-32658000D01*
X86434000Y-32618000D02*
X89564000Y-32618000D01*
X92046000Y-32618000D02*
X95176000Y-32618000D01*
X86458000Y-32578000D02*
X89564000Y-32578000D01*
X92046000Y-32578000D02*
X95152000Y-32578000D01*
X86482000Y-32538000D02*
X89564000Y-32538000D01*
X92046000Y-32538000D02*
X95128000Y-32538000D01*
X86507000Y-32498000D02*
X89564000Y-32498000D01*
X92046000Y-32498000D02*
X95103000Y-32498000D01*
X86532000Y-32458000D02*
X89564000Y-32458000D01*
X92046000Y-32458000D02*
X95078000Y-32458000D01*
X86558000Y-32418000D02*
X89564000Y-32418000D01*
X92046000Y-32418000D02*
X95052000Y-32418000D01*
X86584000Y-32378000D02*
X89564000Y-32378000D01*
X92046000Y-32378000D02*
X95026000Y-32378000D01*
X86611000Y-32338000D02*
X89564000Y-32338000D01*
X92046000Y-32338000D02*
X94999000Y-32338000D01*
X86639000Y-32298000D02*
X89564000Y-32298000D01*
X92046000Y-32298000D02*
X94971000Y-32298000D01*
X86667000Y-32258000D02*
X89564000Y-32258000D01*
X92046000Y-32258000D02*
X94943000Y-32258000D01*
X86695000Y-32218000D02*
X89564000Y-32218000D01*
X92046000Y-32218000D02*
X94915000Y-32218000D01*
X86725000Y-32178000D02*
X89564000Y-32178000D01*
X92046000Y-32178000D02*
X94885000Y-32178000D01*
X86755000Y-32138000D02*
X89564000Y-32138000D01*
X92046000Y-32138000D02*
X94855000Y-32138000D01*
X86785000Y-32098000D02*
X89564000Y-32098000D01*
X92046000Y-32098000D02*
X94825000Y-32098000D01*
X86816000Y-32058000D02*
X89564000Y-32058000D01*
X92046000Y-32058000D02*
X94794000Y-32058000D01*
X86848000Y-32018000D02*
X89564000Y-32018000D01*
X92046000Y-32018000D02*
X94762000Y-32018000D01*
X86880000Y-31978000D02*
X89564000Y-31978000D01*
X92046000Y-31978000D02*
X94730000Y-31978000D01*
X86913000Y-31938000D02*
X89564000Y-31938000D01*
X92046000Y-31938000D02*
X94697000Y-31938000D01*
X86947000Y-31898000D02*
X89564000Y-31898000D01*
X92046000Y-31898000D02*
X94663000Y-31898000D01*
X86981000Y-31858000D02*
X89564000Y-31858000D01*
X92046000Y-31858000D02*
X94629000Y-31858000D01*
X87016000Y-31818000D02*
X89564000Y-31818000D01*
X92046000Y-31818000D02*
X94594000Y-31818000D01*
X87052000Y-31778000D02*
X89564000Y-31778000D01*
X92046000Y-31778000D02*
X94558000Y-31778000D01*
X87089000Y-31738000D02*
X89564000Y-31738000D01*
X92046000Y-31738000D02*
X94521000Y-31738000D01*
X87126000Y-31698000D02*
X89564000Y-31698000D01*
X92046000Y-31698000D02*
X94484000Y-31698000D01*
X87165000Y-31658000D02*
X89564000Y-31658000D01*
X92046000Y-31658000D02*
X94445000Y-31658000D01*
X87204000Y-31618000D02*
X89564000Y-31618000D01*
X92046000Y-31618000D02*
X94406000Y-31618000D01*
X87244000Y-31578000D02*
X89564000Y-31578000D01*
X92046000Y-31578000D02*
X94366000Y-31578000D01*
X87285000Y-31538000D02*
X89564000Y-31538000D01*
X92046000Y-31538000D02*
X94325000Y-31538000D01*
X87327000Y-31498000D02*
X89564000Y-31498000D01*
X92046000Y-31498000D02*
X94283000Y-31498000D01*
X87369000Y-31458000D02*
X94241000Y-31458000D01*
X87413000Y-31418000D02*
X94197000Y-31418000D01*
X87458000Y-31378000D02*
X94152000Y-31378000D01*
X87504000Y-31338000D02*
X94106000Y-31338000D01*
X87551000Y-31298000D02*
X94059000Y-31298000D01*
X87599000Y-31258000D02*
X94011000Y-31258000D01*
X87649000Y-31218000D02*
X93961000Y-31218000D01*
X87699000Y-31178000D02*
X93911000Y-31178000D01*
X87751000Y-31138000D02*
X93859000Y-31138000D01*
X87805000Y-31098000D02*
X93805000Y-31098000D01*
X87860000Y-31058000D02*
X93750000Y-31058000D01*
X87916000Y-31018000D02*
X93694000Y-31018000D01*
X87975000Y-30978000D02*
X93635000Y-30978000D01*
X88035000Y-30938000D02*
X93575000Y-30938000D01*
X88096000Y-30898000D02*
X93514000Y-30898000D01*
X88160000Y-30858000D02*
X93450000Y-30858000D01*
X88226000Y-30818000D02*
X93384000Y-30818000D01*
X88295000Y-30778000D02*
X93315000Y-30778000D01*
X88366000Y-30738000D02*
X93244000Y-30738000D01*
X88440000Y-30698000D02*
X93170000Y-30698000D01*
X88516000Y-30658000D02*
X93094000Y-30658000D01*
X88596000Y-30618000D02*
X93014000Y-30618000D01*
X88680000Y-30578000D02*
X92930000Y-30578000D01*
X88768000Y-30538000D02*
X92842000Y-30538000D01*
X88861000Y-30498000D02*
X92749000Y-30498000D01*
X88959000Y-30458000D02*
X92651000Y-30458000D01*
X89063000Y-30418000D02*
X92547000Y-30418000D01*
X89175000Y-30378000D02*
X92435000Y-30378000D01*
X89295000Y-30338000D02*
X92315000Y-30338000D01*
X89427000Y-30298000D02*
X92183000Y-30298000D01*
X89575000Y-30258000D02*
X92035000Y-30258000D01*
X89743000Y-30218000D02*
X91867000Y-30218000D01*
X89943000Y-30178000D02*
X91667000Y-30178000D01*
X90206000Y-30138000D02*
X91404000Y-30138000D01*
X87930000Y-40698646D02*
X87930000Y-39698646D01*
X87430000Y-40198646D02*
X88430000Y-40198646D01*
D11*
G04 #@! TO.C,J1*
X42926000Y-205994000D02*
X55118000Y-205994000D01*
X42926000Y-218186000D02*
X42926000Y-205994000D01*
X55118000Y-205994000D02*
X55118000Y-218186000D01*
X51562000Y-220218000D02*
X46482000Y-220218000D01*
X43942000Y-218694000D02*
X43942000Y-218186000D01*
X54102000Y-218694000D02*
X43942000Y-218694000D01*
X54102000Y-218440000D02*
X54102000Y-218694000D01*
X54102000Y-218186000D02*
X54102000Y-218440000D01*
X51562000Y-219456000D02*
X46482000Y-219456000D01*
X46482000Y-218694000D02*
X46482000Y-220218000D01*
X51562000Y-220218000D02*
X51562000Y-218694000D01*
X42926000Y-218186000D02*
X43942000Y-218186000D01*
X54102000Y-218186000D02*
X55118000Y-218186000D01*
X45212000Y-213614000D02*
X47244000Y-213614000D01*
X45212000Y-217170000D02*
X45212000Y-213614000D01*
X52832000Y-217170000D02*
X45212000Y-217170000D01*
X52832000Y-213614000D02*
X52832000Y-217170000D01*
X50800000Y-213614000D02*
X52832000Y-213614000D01*
G04 #@! TO.C,J2*
X82804000Y-20519000D02*
X80772000Y-20519000D01*
X80772000Y-20519000D02*
X80772000Y-16963000D01*
X80772000Y-16963000D02*
X88392000Y-16963000D01*
X88392000Y-16963000D02*
X88392000Y-20519000D01*
X88392000Y-20519000D02*
X86360000Y-20519000D01*
X79502000Y-15947000D02*
X78486000Y-15947000D01*
X90678000Y-15947000D02*
X89662000Y-15947000D01*
X82042000Y-13915000D02*
X82042000Y-15439000D01*
X87122000Y-15439000D02*
X87122000Y-13915000D01*
X82042000Y-14677000D02*
X87122000Y-14677000D01*
X79502000Y-15947000D02*
X79502000Y-15693000D01*
X79502000Y-15693000D02*
X79502000Y-15439000D01*
X79502000Y-15439000D02*
X89662000Y-15439000D01*
X89662000Y-15439000D02*
X89662000Y-15947000D01*
X82042000Y-13915000D02*
X87122000Y-13915000D01*
X78486000Y-28139000D02*
X78486000Y-15947000D01*
X90678000Y-15947000D02*
X90678000Y-28139000D01*
X90678000Y-28139000D02*
X78486000Y-28139000D01*
D10*
G04 #@! TO.C,J3*
X110483000Y-113073000D02*
X106223000Y-113073000D01*
X106223000Y-113073000D02*
X106223000Y-125393000D01*
X106223000Y-125393000D02*
X110483000Y-125393000D01*
X114583000Y-113073000D02*
X122943000Y-113073000D01*
X122943000Y-113073000D02*
X122943000Y-125393000D01*
X122943000Y-125393000D02*
X114583000Y-125393000D01*
X106003000Y-117983000D02*
X105503000Y-117483000D01*
X105503000Y-117483000D02*
X105503000Y-118483000D01*
X105503000Y-118483000D02*
X106003000Y-117983000D01*
G04 #@! TO.C,R1*
X55345000Y-195739000D02*
X52605000Y-195739000D01*
X52605000Y-195739000D02*
X52605000Y-202279000D01*
X52605000Y-202279000D02*
X55345000Y-202279000D01*
X55345000Y-202279000D02*
X55345000Y-195739000D01*
X53975000Y-194969000D02*
X53975000Y-195739000D01*
X53975000Y-203049000D02*
X53975000Y-202279000D01*
G04 #@! TO.C,R2*
X43815000Y-203049000D02*
X43815000Y-202279000D01*
X43815000Y-194969000D02*
X43815000Y-195739000D01*
X45185000Y-202279000D02*
X45185000Y-195739000D01*
X42445000Y-202279000D02*
X45185000Y-202279000D01*
X42445000Y-195739000D02*
X42445000Y-202279000D01*
X45185000Y-195739000D02*
X42445000Y-195739000D01*
G04 #@! TO.C,R3*
X67080000Y-56388000D02*
X67850000Y-56388000D01*
X75160000Y-56388000D02*
X74390000Y-56388000D01*
X67850000Y-57758000D02*
X74390000Y-57758000D01*
X67850000Y-55018000D02*
X67850000Y-57758000D01*
X74390000Y-55018000D02*
X67850000Y-55018000D01*
X74390000Y-57758000D02*
X74390000Y-55018000D01*
G04 #@! TO.C,R4*
X102330000Y-53694000D02*
X102330000Y-50954000D01*
X102330000Y-50954000D02*
X95790000Y-50954000D01*
X95790000Y-50954000D02*
X95790000Y-53694000D01*
X95790000Y-53694000D02*
X102330000Y-53694000D01*
X103100000Y-52324000D02*
X102330000Y-52324000D01*
X95020000Y-52324000D02*
X95790000Y-52324000D01*
G04 #@! TO.C,U1*
X65599000Y-104029000D02*
G75*
G02X65599000Y-106029000I0J-1000000D01*
G01*
X65599000Y-106029000D02*
X65599000Y-107679000D01*
X65599000Y-107679000D02*
X86039000Y-107679000D01*
X86039000Y-107679000D02*
X86039000Y-102379000D01*
X86039000Y-102379000D02*
X65599000Y-102379000D01*
X65599000Y-102379000D02*
X65599000Y-104029000D01*
X65539000Y-110169000D02*
X86099000Y-110169000D01*
X86099000Y-110169000D02*
X86099000Y-99889000D01*
X86099000Y-99889000D02*
X65539000Y-99889000D01*
X65539000Y-99889000D02*
X65539000Y-110169000D01*
G04 #@! TO.C,U2*
X64777000Y-149546000D02*
X64777000Y-159826000D01*
X85337000Y-149546000D02*
X64777000Y-149546000D01*
X85337000Y-159826000D02*
X85337000Y-149546000D01*
X64777000Y-159826000D02*
X85337000Y-159826000D01*
X64837000Y-152036000D02*
X64837000Y-153686000D01*
X85277000Y-152036000D02*
X64837000Y-152036000D01*
X85277000Y-157336000D02*
X85277000Y-152036000D01*
X64837000Y-157336000D02*
X85277000Y-157336000D01*
X64837000Y-155686000D02*
X64837000Y-157336000D01*
X64837000Y-153686000D02*
G75*
G02X64837000Y-155686000I0J-1000000D01*
G01*
G04 #@! TO.C,U4*
X95190000Y-62754000D02*
G75*
G02X95190000Y-64754000I0J-1000000D01*
G01*
X95190000Y-64754000D02*
X95190000Y-66404000D01*
X95190000Y-66404000D02*
X105470000Y-66404000D01*
X105470000Y-66404000D02*
X105470000Y-61104000D01*
X105470000Y-61104000D02*
X95190000Y-61104000D01*
X95190000Y-61104000D02*
X95190000Y-62754000D01*
X95130000Y-68894000D02*
X105530000Y-68894000D01*
X105530000Y-68894000D02*
X105530000Y-58614000D01*
X105530000Y-58614000D02*
X95130000Y-58614000D01*
X95130000Y-58614000D02*
X95130000Y-68894000D01*
G04 #@! TO.C,U3*
X67250000Y-63389000D02*
G75*
G02X67250000Y-65389000I0J-1000000D01*
G01*
X67250000Y-65389000D02*
X67250000Y-67039000D01*
X67250000Y-67039000D02*
X77530000Y-67039000D01*
X77530000Y-67039000D02*
X77530000Y-61739000D01*
X77530000Y-61739000D02*
X67250000Y-61739000D01*
X67250000Y-61739000D02*
X67250000Y-63389000D01*
X67190000Y-69529000D02*
X77590000Y-69529000D01*
X77590000Y-69529000D02*
X77590000Y-59249000D01*
X77590000Y-59249000D02*
X67190000Y-59249000D01*
X67190000Y-59249000D02*
X67190000Y-69529000D01*
G04 #@! TO.C,22K4*
D11*
X35091904Y-110861219D02*
X35139523Y-110813600D01*
X35234761Y-110765980D01*
X35472857Y-110765980D01*
X35568095Y-110813600D01*
X35615714Y-110861219D01*
X35663333Y-110956457D01*
X35663333Y-111051695D01*
X35615714Y-111194552D01*
X35044285Y-111765980D01*
X35663333Y-111765980D01*
X36044285Y-110861219D02*
X36091904Y-110813600D01*
X36187142Y-110765980D01*
X36425238Y-110765980D01*
X36520476Y-110813600D01*
X36568095Y-110861219D01*
X36615714Y-110956457D01*
X36615714Y-111051695D01*
X36568095Y-111194552D01*
X35996666Y-111765980D01*
X36615714Y-111765980D01*
X37044285Y-111765980D02*
X37044285Y-110765980D01*
X37615714Y-111765980D02*
X37187142Y-111194552D01*
X37615714Y-110765980D02*
X37044285Y-111337409D01*
X38472857Y-111099314D02*
X38472857Y-111765980D01*
X38234761Y-110718361D02*
X37996666Y-111432647D01*
X38615714Y-111432647D01*
G04 #@! TO.C,22K2*
X35091904Y-159222819D02*
X35139523Y-159175200D01*
X35234761Y-159127580D01*
X35472857Y-159127580D01*
X35568095Y-159175200D01*
X35615714Y-159222819D01*
X35663333Y-159318057D01*
X35663333Y-159413295D01*
X35615714Y-159556152D01*
X35044285Y-160127580D01*
X35663333Y-160127580D01*
X36044285Y-159222819D02*
X36091904Y-159175200D01*
X36187142Y-159127580D01*
X36425238Y-159127580D01*
X36520476Y-159175200D01*
X36568095Y-159222819D01*
X36615714Y-159318057D01*
X36615714Y-159413295D01*
X36568095Y-159556152D01*
X35996666Y-160127580D01*
X36615714Y-160127580D01*
X37044285Y-160127580D02*
X37044285Y-159127580D01*
X37615714Y-160127580D02*
X37187142Y-159556152D01*
X37615714Y-159127580D02*
X37044285Y-159699009D01*
X37996666Y-159222819D02*
X38044285Y-159175200D01*
X38139523Y-159127580D01*
X38377619Y-159127580D01*
X38472857Y-159175200D01*
X38520476Y-159222819D01*
X38568095Y-159318057D01*
X38568095Y-159413295D01*
X38520476Y-159556152D01*
X37949047Y-160127580D01*
X38568095Y-160127580D01*
G04 #@! TO.C,22K1*
X35091904Y-183403619D02*
X35139523Y-183356000D01*
X35234761Y-183308380D01*
X35472857Y-183308380D01*
X35568095Y-183356000D01*
X35615714Y-183403619D01*
X35663333Y-183498857D01*
X35663333Y-183594095D01*
X35615714Y-183736952D01*
X35044285Y-184308380D01*
X35663333Y-184308380D01*
X36044285Y-183403619D02*
X36091904Y-183356000D01*
X36187142Y-183308380D01*
X36425238Y-183308380D01*
X36520476Y-183356000D01*
X36568095Y-183403619D01*
X36615714Y-183498857D01*
X36615714Y-183594095D01*
X36568095Y-183736952D01*
X35996666Y-184308380D01*
X36615714Y-184308380D01*
X37044285Y-184308380D02*
X37044285Y-183308380D01*
X37615714Y-184308380D02*
X37187142Y-183736952D01*
X37615714Y-183308380D02*
X37044285Y-183879809D01*
X38568095Y-184308380D02*
X37996666Y-184308380D01*
X38282380Y-184308380D02*
X38282380Y-183308380D01*
X38187142Y-183451238D01*
X38091904Y-183546476D01*
X37996666Y-183594095D01*
G04 #@! TO.C,22K3*
X35091904Y-135042019D02*
X35139523Y-134994400D01*
X35234761Y-134946780D01*
X35472857Y-134946780D01*
X35568095Y-134994400D01*
X35615714Y-135042019D01*
X35663333Y-135137257D01*
X35663333Y-135232495D01*
X35615714Y-135375352D01*
X35044285Y-135946780D01*
X35663333Y-135946780D01*
X36044285Y-135042019D02*
X36091904Y-134994400D01*
X36187142Y-134946780D01*
X36425238Y-134946780D01*
X36520476Y-134994400D01*
X36568095Y-135042019D01*
X36615714Y-135137257D01*
X36615714Y-135232495D01*
X36568095Y-135375352D01*
X35996666Y-135946780D01*
X36615714Y-135946780D01*
X37044285Y-135946780D02*
X37044285Y-134946780D01*
X37615714Y-135946780D02*
X37187142Y-135375352D01*
X37615714Y-134946780D02*
X37044285Y-135518209D01*
X37949047Y-134946780D02*
X38568095Y-134946780D01*
X38234761Y-135327733D01*
X38377619Y-135327733D01*
X38472857Y-135375352D01*
X38520476Y-135422971D01*
X38568095Y-135518209D01*
X38568095Y-135756304D01*
X38520476Y-135851542D01*
X38472857Y-135899161D01*
X38377619Y-135946780D01*
X38091904Y-135946780D01*
X37996666Y-135899161D01*
X37949047Y-135851542D01*
G04 #@! TO.C,22K5*
X35091904Y-86680419D02*
X35139523Y-86632800D01*
X35234761Y-86585180D01*
X35472857Y-86585180D01*
X35568095Y-86632800D01*
X35615714Y-86680419D01*
X35663333Y-86775657D01*
X35663333Y-86870895D01*
X35615714Y-87013752D01*
X35044285Y-87585180D01*
X35663333Y-87585180D01*
X36044285Y-86680419D02*
X36091904Y-86632800D01*
X36187142Y-86585180D01*
X36425238Y-86585180D01*
X36520476Y-86632800D01*
X36568095Y-86680419D01*
X36615714Y-86775657D01*
X36615714Y-86870895D01*
X36568095Y-87013752D01*
X35996666Y-87585180D01*
X36615714Y-87585180D01*
X37044285Y-87585180D02*
X37044285Y-86585180D01*
X37615714Y-87585180D02*
X37187142Y-87013752D01*
X37615714Y-86585180D02*
X37044285Y-87156609D01*
X38520476Y-86585180D02*
X38044285Y-86585180D01*
X37996666Y-87061371D01*
X38044285Y-87013752D01*
X38139523Y-86966133D01*
X38377619Y-86966133D01*
X38472857Y-87013752D01*
X38520476Y-87061371D01*
X38568095Y-87156609D01*
X38568095Y-87394704D01*
X38520476Y-87489942D01*
X38472857Y-87537561D01*
X38377619Y-87585180D01*
X38139523Y-87585180D01*
X38044285Y-87537561D01*
X37996666Y-87489942D01*
G04 #@! TO.C,22K6*
X35091904Y-62499619D02*
X35139523Y-62452000D01*
X35234761Y-62404380D01*
X35472857Y-62404380D01*
X35568095Y-62452000D01*
X35615714Y-62499619D01*
X35663333Y-62594857D01*
X35663333Y-62690095D01*
X35615714Y-62832952D01*
X35044285Y-63404380D01*
X35663333Y-63404380D01*
X36044285Y-62499619D02*
X36091904Y-62452000D01*
X36187142Y-62404380D01*
X36425238Y-62404380D01*
X36520476Y-62452000D01*
X36568095Y-62499619D01*
X36615714Y-62594857D01*
X36615714Y-62690095D01*
X36568095Y-62832952D01*
X35996666Y-63404380D01*
X36615714Y-63404380D01*
X37044285Y-63404380D02*
X37044285Y-62404380D01*
X37615714Y-63404380D02*
X37187142Y-62832952D01*
X37615714Y-62404380D02*
X37044285Y-62975809D01*
X38472857Y-62404380D02*
X38282380Y-62404380D01*
X38187142Y-62452000D01*
X38139523Y-62499619D01*
X38044285Y-62642476D01*
X37996666Y-62832952D01*
X37996666Y-63213904D01*
X38044285Y-63309142D01*
X38091904Y-63356761D01*
X38187142Y-63404380D01*
X38377619Y-63404380D01*
X38472857Y-63356761D01*
X38520476Y-63309142D01*
X38568095Y-63213904D01*
X38568095Y-62975809D01*
X38520476Y-62880571D01*
X38472857Y-62832952D01*
X38377619Y-62785333D01*
X38187142Y-62785333D01*
X38091904Y-62832952D01*
X38044285Y-62880571D01*
X37996666Y-62975809D01*
G04 #@! TO.C,C1*
X102532142Y-119780666D02*
X102579761Y-119828285D01*
X102627380Y-119971142D01*
X102627380Y-120066380D01*
X102579761Y-120209238D01*
X102484523Y-120304476D01*
X102389285Y-120352095D01*
X102198809Y-120399714D01*
X102055952Y-120399714D01*
X101865476Y-120352095D01*
X101770238Y-120304476D01*
X101675000Y-120209238D01*
X101627380Y-120066380D01*
X101627380Y-119971142D01*
X101675000Y-119828285D01*
X101722619Y-119780666D01*
X102627380Y-118828285D02*
X102627380Y-119399714D01*
X102627380Y-119114000D02*
X101627380Y-119114000D01*
X101770238Y-119209238D01*
X101865476Y-119304476D01*
X101913095Y-119399714D01*
G04 #@! TO.C,C2*
X58082142Y-188995666D02*
X58129761Y-189043285D01*
X58177380Y-189186142D01*
X58177380Y-189281380D01*
X58129761Y-189424238D01*
X58034523Y-189519476D01*
X57939285Y-189567095D01*
X57748809Y-189614714D01*
X57605952Y-189614714D01*
X57415476Y-189567095D01*
X57320238Y-189519476D01*
X57225000Y-189424238D01*
X57177380Y-189281380D01*
X57177380Y-189186142D01*
X57225000Y-189043285D01*
X57272619Y-188995666D01*
X57272619Y-188614714D02*
X57225000Y-188567095D01*
X57177380Y-188471857D01*
X57177380Y-188233761D01*
X57225000Y-188138523D01*
X57272619Y-188090904D01*
X57367857Y-188043285D01*
X57463095Y-188043285D01*
X57605952Y-188090904D01*
X58177380Y-188662333D01*
X58177380Y-188043285D01*
G04 #@! TO.C,C3*
X47922142Y-188995666D02*
X47969761Y-189043285D01*
X48017380Y-189186142D01*
X48017380Y-189281380D01*
X47969761Y-189424238D01*
X47874523Y-189519476D01*
X47779285Y-189567095D01*
X47588809Y-189614714D01*
X47445952Y-189614714D01*
X47255476Y-189567095D01*
X47160238Y-189519476D01*
X47065000Y-189424238D01*
X47017380Y-189281380D01*
X47017380Y-189186142D01*
X47065000Y-189043285D01*
X47112619Y-188995666D01*
X47017380Y-188662333D02*
X47017380Y-188043285D01*
X47398333Y-188376619D01*
X47398333Y-188233761D01*
X47445952Y-188138523D01*
X47493571Y-188090904D01*
X47588809Y-188043285D01*
X47826904Y-188043285D01*
X47922142Y-188090904D01*
X47969761Y-188138523D01*
X48017380Y-188233761D01*
X48017380Y-188519476D01*
X47969761Y-188614714D01*
X47922142Y-188662333D01*
G04 #@! TO.C,C4*
X67163333Y-123741142D02*
X67115714Y-123788761D01*
X66972857Y-123836380D01*
X66877619Y-123836380D01*
X66734761Y-123788761D01*
X66639523Y-123693523D01*
X66591904Y-123598285D01*
X66544285Y-123407809D01*
X66544285Y-123264952D01*
X66591904Y-123074476D01*
X66639523Y-122979238D01*
X66734761Y-122884000D01*
X66877619Y-122836380D01*
X66972857Y-122836380D01*
X67115714Y-122884000D01*
X67163333Y-122931619D01*
X68020476Y-123169714D02*
X68020476Y-123836380D01*
X67782380Y-122788761D02*
X67544285Y-123503047D01*
X68163333Y-123503047D01*
G04 #@! TO.C,C5*
X72878333Y-122241142D02*
X72830714Y-122288761D01*
X72687857Y-122336380D01*
X72592619Y-122336380D01*
X72449761Y-122288761D01*
X72354523Y-122193523D01*
X72306904Y-122098285D01*
X72259285Y-121907809D01*
X72259285Y-121764952D01*
X72306904Y-121574476D01*
X72354523Y-121479238D01*
X72449761Y-121384000D01*
X72592619Y-121336380D01*
X72687857Y-121336380D01*
X72830714Y-121384000D01*
X72878333Y-121431619D01*
X73783095Y-121336380D02*
X73306904Y-121336380D01*
X73259285Y-121812571D01*
X73306904Y-121764952D01*
X73402142Y-121717333D01*
X73640238Y-121717333D01*
X73735476Y-121764952D01*
X73783095Y-121812571D01*
X73830714Y-121907809D01*
X73830714Y-122145904D01*
X73783095Y-122241142D01*
X73735476Y-122288761D01*
X73640238Y-122336380D01*
X73402142Y-122336380D01*
X73306904Y-122288761D01*
X73259285Y-122241142D01*
G04 #@! TO.C,C6*
X77958333Y-122241142D02*
X77910714Y-122288761D01*
X77767857Y-122336380D01*
X77672619Y-122336380D01*
X77529761Y-122288761D01*
X77434523Y-122193523D01*
X77386904Y-122098285D01*
X77339285Y-121907809D01*
X77339285Y-121764952D01*
X77386904Y-121574476D01*
X77434523Y-121479238D01*
X77529761Y-121384000D01*
X77672619Y-121336380D01*
X77767857Y-121336380D01*
X77910714Y-121384000D01*
X77958333Y-121431619D01*
X78815476Y-121336380D02*
X78625000Y-121336380D01*
X78529761Y-121384000D01*
X78482142Y-121431619D01*
X78386904Y-121574476D01*
X78339285Y-121764952D01*
X78339285Y-122145904D01*
X78386904Y-122241142D01*
X78434523Y-122288761D01*
X78529761Y-122336380D01*
X78720238Y-122336380D01*
X78815476Y-122288761D01*
X78863095Y-122241142D01*
X78910714Y-122145904D01*
X78910714Y-121907809D01*
X78863095Y-121812571D01*
X78815476Y-121764952D01*
X78720238Y-121717333D01*
X78529761Y-121717333D01*
X78434523Y-121764952D01*
X78386904Y-121812571D01*
X78339285Y-121907809D01*
G04 #@! TO.C,C7*
X83038333Y-122241142D02*
X82990714Y-122288761D01*
X82847857Y-122336380D01*
X82752619Y-122336380D01*
X82609761Y-122288761D01*
X82514523Y-122193523D01*
X82466904Y-122098285D01*
X82419285Y-121907809D01*
X82419285Y-121764952D01*
X82466904Y-121574476D01*
X82514523Y-121479238D01*
X82609761Y-121384000D01*
X82752619Y-121336380D01*
X82847857Y-121336380D01*
X82990714Y-121384000D01*
X83038333Y-121431619D01*
X83371666Y-121336380D02*
X84038333Y-121336380D01*
X83609761Y-122336380D01*
G04 #@! TO.C,C8*
X67123333Y-110756142D02*
X67075714Y-110803761D01*
X66932857Y-110851380D01*
X66837619Y-110851380D01*
X66694761Y-110803761D01*
X66599523Y-110708523D01*
X66551904Y-110613285D01*
X66504285Y-110422809D01*
X66504285Y-110279952D01*
X66551904Y-110089476D01*
X66599523Y-109994238D01*
X66694761Y-109899000D01*
X66837619Y-109851380D01*
X66932857Y-109851380D01*
X67075714Y-109899000D01*
X67123333Y-109946619D01*
X67694761Y-110279952D02*
X67599523Y-110232333D01*
X67551904Y-110184714D01*
X67504285Y-110089476D01*
X67504285Y-110041857D01*
X67551904Y-109946619D01*
X67599523Y-109899000D01*
X67694761Y-109851380D01*
X67885238Y-109851380D01*
X67980476Y-109899000D01*
X68028095Y-109946619D01*
X68075714Y-110041857D01*
X68075714Y-110089476D01*
X68028095Y-110184714D01*
X67980476Y-110232333D01*
X67885238Y-110279952D01*
X67694761Y-110279952D01*
X67599523Y-110327571D01*
X67551904Y-110375190D01*
X67504285Y-110470428D01*
X67504285Y-110660904D01*
X67551904Y-110756142D01*
X67599523Y-110803761D01*
X67694761Y-110851380D01*
X67885238Y-110851380D01*
X67980476Y-110803761D01*
X68028095Y-110756142D01*
X68075714Y-110660904D01*
X68075714Y-110470428D01*
X68028095Y-110375190D01*
X67980476Y-110327571D01*
X67885238Y-110279952D01*
G04 #@! TO.C,C9*
X72203333Y-110756142D02*
X72155714Y-110803761D01*
X72012857Y-110851380D01*
X71917619Y-110851380D01*
X71774761Y-110803761D01*
X71679523Y-110708523D01*
X71631904Y-110613285D01*
X71584285Y-110422809D01*
X71584285Y-110279952D01*
X71631904Y-110089476D01*
X71679523Y-109994238D01*
X71774761Y-109899000D01*
X71917619Y-109851380D01*
X72012857Y-109851380D01*
X72155714Y-109899000D01*
X72203333Y-109946619D01*
X72679523Y-110851380D02*
X72870000Y-110851380D01*
X72965238Y-110803761D01*
X73012857Y-110756142D01*
X73108095Y-110613285D01*
X73155714Y-110422809D01*
X73155714Y-110041857D01*
X73108095Y-109946619D01*
X73060476Y-109899000D01*
X72965238Y-109851380D01*
X72774761Y-109851380D01*
X72679523Y-109899000D01*
X72631904Y-109946619D01*
X72584285Y-110041857D01*
X72584285Y-110279952D01*
X72631904Y-110375190D01*
X72679523Y-110422809D01*
X72774761Y-110470428D01*
X72965238Y-110470428D01*
X73060476Y-110422809D01*
X73108095Y-110375190D01*
X73155714Y-110279952D01*
G04 #@! TO.C,C10*
X76807142Y-110756142D02*
X76759523Y-110803761D01*
X76616666Y-110851380D01*
X76521428Y-110851380D01*
X76378571Y-110803761D01*
X76283333Y-110708523D01*
X76235714Y-110613285D01*
X76188095Y-110422809D01*
X76188095Y-110279952D01*
X76235714Y-110089476D01*
X76283333Y-109994238D01*
X76378571Y-109899000D01*
X76521428Y-109851380D01*
X76616666Y-109851380D01*
X76759523Y-109899000D01*
X76807142Y-109946619D01*
X77759523Y-110851380D02*
X77188095Y-110851380D01*
X77473809Y-110851380D02*
X77473809Y-109851380D01*
X77378571Y-109994238D01*
X77283333Y-110089476D01*
X77188095Y-110137095D01*
X78378571Y-109851380D02*
X78473809Y-109851380D01*
X78569047Y-109899000D01*
X78616666Y-109946619D01*
X78664285Y-110041857D01*
X78711904Y-110232333D01*
X78711904Y-110470428D01*
X78664285Y-110660904D01*
X78616666Y-110756142D01*
X78569047Y-110803761D01*
X78473809Y-110851380D01*
X78378571Y-110851380D01*
X78283333Y-110803761D01*
X78235714Y-110756142D01*
X78188095Y-110660904D01*
X78140476Y-110470428D01*
X78140476Y-110232333D01*
X78188095Y-110041857D01*
X78235714Y-109946619D01*
X78283333Y-109899000D01*
X78378571Y-109851380D01*
G04 #@! TO.C,C11*
X81887142Y-110756142D02*
X81839523Y-110803761D01*
X81696666Y-110851380D01*
X81601428Y-110851380D01*
X81458571Y-110803761D01*
X81363333Y-110708523D01*
X81315714Y-110613285D01*
X81268095Y-110422809D01*
X81268095Y-110279952D01*
X81315714Y-110089476D01*
X81363333Y-109994238D01*
X81458571Y-109899000D01*
X81601428Y-109851380D01*
X81696666Y-109851380D01*
X81839523Y-109899000D01*
X81887142Y-109946619D01*
X82839523Y-110851380D02*
X82268095Y-110851380D01*
X82553809Y-110851380D02*
X82553809Y-109851380D01*
X82458571Y-109994238D01*
X82363333Y-110089476D01*
X82268095Y-110137095D01*
X83791904Y-110851380D02*
X83220476Y-110851380D01*
X83506190Y-110851380D02*
X83506190Y-109851380D01*
X83410952Y-109994238D01*
X83315714Y-110089476D01*
X83220476Y-110137095D01*
G04 #@! TO.C,C12*
X65417142Y-173271142D02*
X65369523Y-173318761D01*
X65226666Y-173366380D01*
X65131428Y-173366380D01*
X64988571Y-173318761D01*
X64893333Y-173223523D01*
X64845714Y-173128285D01*
X64798095Y-172937809D01*
X64798095Y-172794952D01*
X64845714Y-172604476D01*
X64893333Y-172509238D01*
X64988571Y-172414000D01*
X65131428Y-172366380D01*
X65226666Y-172366380D01*
X65369523Y-172414000D01*
X65417142Y-172461619D01*
X66369523Y-173366380D02*
X65798095Y-173366380D01*
X66083809Y-173366380D02*
X66083809Y-172366380D01*
X65988571Y-172509238D01*
X65893333Y-172604476D01*
X65798095Y-172652095D01*
X66750476Y-172461619D02*
X66798095Y-172414000D01*
X66893333Y-172366380D01*
X67131428Y-172366380D01*
X67226666Y-172414000D01*
X67274285Y-172461619D01*
X67321904Y-172556857D01*
X67321904Y-172652095D01*
X67274285Y-172794952D01*
X66702857Y-173366380D01*
X67321904Y-173366380D01*
G04 #@! TO.C,C13*
X71132142Y-171771142D02*
X71084523Y-171818761D01*
X70941666Y-171866380D01*
X70846428Y-171866380D01*
X70703571Y-171818761D01*
X70608333Y-171723523D01*
X70560714Y-171628285D01*
X70513095Y-171437809D01*
X70513095Y-171294952D01*
X70560714Y-171104476D01*
X70608333Y-171009238D01*
X70703571Y-170914000D01*
X70846428Y-170866380D01*
X70941666Y-170866380D01*
X71084523Y-170914000D01*
X71132142Y-170961619D01*
X72084523Y-171866380D02*
X71513095Y-171866380D01*
X71798809Y-171866380D02*
X71798809Y-170866380D01*
X71703571Y-171009238D01*
X71608333Y-171104476D01*
X71513095Y-171152095D01*
X72417857Y-170866380D02*
X73036904Y-170866380D01*
X72703571Y-171247333D01*
X72846428Y-171247333D01*
X72941666Y-171294952D01*
X72989285Y-171342571D01*
X73036904Y-171437809D01*
X73036904Y-171675904D01*
X72989285Y-171771142D01*
X72941666Y-171818761D01*
X72846428Y-171866380D01*
X72560714Y-171866380D01*
X72465476Y-171818761D01*
X72417857Y-171771142D01*
G04 #@! TO.C,C14*
X76212142Y-171771142D02*
X76164523Y-171818761D01*
X76021666Y-171866380D01*
X75926428Y-171866380D01*
X75783571Y-171818761D01*
X75688333Y-171723523D01*
X75640714Y-171628285D01*
X75593095Y-171437809D01*
X75593095Y-171294952D01*
X75640714Y-171104476D01*
X75688333Y-171009238D01*
X75783571Y-170914000D01*
X75926428Y-170866380D01*
X76021666Y-170866380D01*
X76164523Y-170914000D01*
X76212142Y-170961619D01*
X77164523Y-171866380D02*
X76593095Y-171866380D01*
X76878809Y-171866380D02*
X76878809Y-170866380D01*
X76783571Y-171009238D01*
X76688333Y-171104476D01*
X76593095Y-171152095D01*
X78021666Y-171199714D02*
X78021666Y-171866380D01*
X77783571Y-170818761D02*
X77545476Y-171533047D01*
X78164523Y-171533047D01*
G04 #@! TO.C,C15*
X81292142Y-171771142D02*
X81244523Y-171818761D01*
X81101666Y-171866380D01*
X81006428Y-171866380D01*
X80863571Y-171818761D01*
X80768333Y-171723523D01*
X80720714Y-171628285D01*
X80673095Y-171437809D01*
X80673095Y-171294952D01*
X80720714Y-171104476D01*
X80768333Y-171009238D01*
X80863571Y-170914000D01*
X81006428Y-170866380D01*
X81101666Y-170866380D01*
X81244523Y-170914000D01*
X81292142Y-170961619D01*
X82244523Y-171866380D02*
X81673095Y-171866380D01*
X81958809Y-171866380D02*
X81958809Y-170866380D01*
X81863571Y-171009238D01*
X81768333Y-171104476D01*
X81673095Y-171152095D01*
X83149285Y-170866380D02*
X82673095Y-170866380D01*
X82625476Y-171342571D01*
X82673095Y-171294952D01*
X82768333Y-171247333D01*
X83006428Y-171247333D01*
X83101666Y-171294952D01*
X83149285Y-171342571D01*
X83196904Y-171437809D01*
X83196904Y-171675904D01*
X83149285Y-171771142D01*
X83101666Y-171818761D01*
X83006428Y-171866380D01*
X82768333Y-171866380D01*
X82673095Y-171818761D01*
X82625476Y-171771142D01*
G04 #@! TO.C,C16*
X66012142Y-160286142D02*
X65964523Y-160333761D01*
X65821666Y-160381380D01*
X65726428Y-160381380D01*
X65583571Y-160333761D01*
X65488333Y-160238523D01*
X65440714Y-160143285D01*
X65393095Y-159952809D01*
X65393095Y-159809952D01*
X65440714Y-159619476D01*
X65488333Y-159524238D01*
X65583571Y-159429000D01*
X65726428Y-159381380D01*
X65821666Y-159381380D01*
X65964523Y-159429000D01*
X66012142Y-159476619D01*
X66964523Y-160381380D02*
X66393095Y-160381380D01*
X66678809Y-160381380D02*
X66678809Y-159381380D01*
X66583571Y-159524238D01*
X66488333Y-159619476D01*
X66393095Y-159667095D01*
X67821666Y-159381380D02*
X67631190Y-159381380D01*
X67535952Y-159429000D01*
X67488333Y-159476619D01*
X67393095Y-159619476D01*
X67345476Y-159809952D01*
X67345476Y-160190904D01*
X67393095Y-160286142D01*
X67440714Y-160333761D01*
X67535952Y-160381380D01*
X67726428Y-160381380D01*
X67821666Y-160333761D01*
X67869285Y-160286142D01*
X67916904Y-160190904D01*
X67916904Y-159952809D01*
X67869285Y-159857571D01*
X67821666Y-159809952D01*
X67726428Y-159762333D01*
X67535952Y-159762333D01*
X67440714Y-159809952D01*
X67393095Y-159857571D01*
X67345476Y-159952809D01*
G04 #@! TO.C,C17*
X71092142Y-160286142D02*
X71044523Y-160333761D01*
X70901666Y-160381380D01*
X70806428Y-160381380D01*
X70663571Y-160333761D01*
X70568333Y-160238523D01*
X70520714Y-160143285D01*
X70473095Y-159952809D01*
X70473095Y-159809952D01*
X70520714Y-159619476D01*
X70568333Y-159524238D01*
X70663571Y-159429000D01*
X70806428Y-159381380D01*
X70901666Y-159381380D01*
X71044523Y-159429000D01*
X71092142Y-159476619D01*
X72044523Y-160381380D02*
X71473095Y-160381380D01*
X71758809Y-160381380D02*
X71758809Y-159381380D01*
X71663571Y-159524238D01*
X71568333Y-159619476D01*
X71473095Y-159667095D01*
X72377857Y-159381380D02*
X73044523Y-159381380D01*
X72615952Y-160381380D01*
G04 #@! TO.C,C18*
X76172142Y-160286142D02*
X76124523Y-160333761D01*
X75981666Y-160381380D01*
X75886428Y-160381380D01*
X75743571Y-160333761D01*
X75648333Y-160238523D01*
X75600714Y-160143285D01*
X75553095Y-159952809D01*
X75553095Y-159809952D01*
X75600714Y-159619476D01*
X75648333Y-159524238D01*
X75743571Y-159429000D01*
X75886428Y-159381380D01*
X75981666Y-159381380D01*
X76124523Y-159429000D01*
X76172142Y-159476619D01*
X77124523Y-160381380D02*
X76553095Y-160381380D01*
X76838809Y-160381380D02*
X76838809Y-159381380D01*
X76743571Y-159524238D01*
X76648333Y-159619476D01*
X76553095Y-159667095D01*
X77695952Y-159809952D02*
X77600714Y-159762333D01*
X77553095Y-159714714D01*
X77505476Y-159619476D01*
X77505476Y-159571857D01*
X77553095Y-159476619D01*
X77600714Y-159429000D01*
X77695952Y-159381380D01*
X77886428Y-159381380D01*
X77981666Y-159429000D01*
X78029285Y-159476619D01*
X78076904Y-159571857D01*
X78076904Y-159619476D01*
X78029285Y-159714714D01*
X77981666Y-159762333D01*
X77886428Y-159809952D01*
X77695952Y-159809952D01*
X77600714Y-159857571D01*
X77553095Y-159905190D01*
X77505476Y-160000428D01*
X77505476Y-160190904D01*
X77553095Y-160286142D01*
X77600714Y-160333761D01*
X77695952Y-160381380D01*
X77886428Y-160381380D01*
X77981666Y-160333761D01*
X78029285Y-160286142D01*
X78076904Y-160190904D01*
X78076904Y-160000428D01*
X78029285Y-159905190D01*
X77981666Y-159857571D01*
X77886428Y-159809952D01*
G04 #@! TO.C,C19*
X82522142Y-160286142D02*
X82474523Y-160333761D01*
X82331666Y-160381380D01*
X82236428Y-160381380D01*
X82093571Y-160333761D01*
X81998333Y-160238523D01*
X81950714Y-160143285D01*
X81903095Y-159952809D01*
X81903095Y-159809952D01*
X81950714Y-159619476D01*
X81998333Y-159524238D01*
X82093571Y-159429000D01*
X82236428Y-159381380D01*
X82331666Y-159381380D01*
X82474523Y-159429000D01*
X82522142Y-159476619D01*
X83474523Y-160381380D02*
X82903095Y-160381380D01*
X83188809Y-160381380D02*
X83188809Y-159381380D01*
X83093571Y-159524238D01*
X82998333Y-159619476D01*
X82903095Y-159667095D01*
X83950714Y-160381380D02*
X84141190Y-160381380D01*
X84236428Y-160333761D01*
X84284047Y-160286142D01*
X84379285Y-160143285D01*
X84426904Y-159952809D01*
X84426904Y-159571857D01*
X84379285Y-159476619D01*
X84331666Y-159429000D01*
X84236428Y-159381380D01*
X84045952Y-159381380D01*
X83950714Y-159429000D01*
X83903095Y-159476619D01*
X83855476Y-159571857D01*
X83855476Y-159809952D01*
X83903095Y-159905190D01*
X83950714Y-159952809D01*
X84045952Y-160000428D01*
X84236428Y-160000428D01*
X84331666Y-159952809D01*
X84379285Y-159905190D01*
X84426904Y-159809952D01*
G04 #@! TO.C,C20*
X67322142Y-88816142D02*
X67274523Y-88863761D01*
X67131666Y-88911380D01*
X67036428Y-88911380D01*
X66893571Y-88863761D01*
X66798333Y-88768523D01*
X66750714Y-88673285D01*
X66703095Y-88482809D01*
X66703095Y-88339952D01*
X66750714Y-88149476D01*
X66798333Y-88054238D01*
X66893571Y-87959000D01*
X67036428Y-87911380D01*
X67131666Y-87911380D01*
X67274523Y-87959000D01*
X67322142Y-88006619D01*
X67703095Y-88006619D02*
X67750714Y-87959000D01*
X67845952Y-87911380D01*
X68084047Y-87911380D01*
X68179285Y-87959000D01*
X68226904Y-88006619D01*
X68274523Y-88101857D01*
X68274523Y-88197095D01*
X68226904Y-88339952D01*
X67655476Y-88911380D01*
X68274523Y-88911380D01*
X68893571Y-87911380D02*
X68988809Y-87911380D01*
X69084047Y-87959000D01*
X69131666Y-88006619D01*
X69179285Y-88101857D01*
X69226904Y-88292333D01*
X69226904Y-88530428D01*
X69179285Y-88720904D01*
X69131666Y-88816142D01*
X69084047Y-88863761D01*
X68988809Y-88911380D01*
X68893571Y-88911380D01*
X68798333Y-88863761D01*
X68750714Y-88816142D01*
X68703095Y-88720904D01*
X68655476Y-88530428D01*
X68655476Y-88292333D01*
X68703095Y-88101857D01*
X68750714Y-88006619D01*
X68798333Y-87959000D01*
X68893571Y-87911380D01*
G04 #@! TO.C,C21*
X83157142Y-95516142D02*
X83109523Y-95563761D01*
X82966666Y-95611380D01*
X82871428Y-95611380D01*
X82728571Y-95563761D01*
X82633333Y-95468523D01*
X82585714Y-95373285D01*
X82538095Y-95182809D01*
X82538095Y-95039952D01*
X82585714Y-94849476D01*
X82633333Y-94754238D01*
X82728571Y-94659000D01*
X82871428Y-94611380D01*
X82966666Y-94611380D01*
X83109523Y-94659000D01*
X83157142Y-94706619D01*
X83538095Y-94706619D02*
X83585714Y-94659000D01*
X83680952Y-94611380D01*
X83919047Y-94611380D01*
X84014285Y-94659000D01*
X84061904Y-94706619D01*
X84109523Y-94801857D01*
X84109523Y-94897095D01*
X84061904Y-95039952D01*
X83490476Y-95611380D01*
X84109523Y-95611380D01*
X85061904Y-95611380D02*
X84490476Y-95611380D01*
X84776190Y-95611380D02*
X84776190Y-94611380D01*
X84680952Y-94754238D01*
X84585714Y-94849476D01*
X84490476Y-94897095D01*
G04 #@! TO.C,C22*
X68592142Y-143426142D02*
X68544523Y-143473761D01*
X68401666Y-143521380D01*
X68306428Y-143521380D01*
X68163571Y-143473761D01*
X68068333Y-143378523D01*
X68020714Y-143283285D01*
X67973095Y-143092809D01*
X67973095Y-142949952D01*
X68020714Y-142759476D01*
X68068333Y-142664238D01*
X68163571Y-142569000D01*
X68306428Y-142521380D01*
X68401666Y-142521380D01*
X68544523Y-142569000D01*
X68592142Y-142616619D01*
X68973095Y-142616619D02*
X69020714Y-142569000D01*
X69115952Y-142521380D01*
X69354047Y-142521380D01*
X69449285Y-142569000D01*
X69496904Y-142616619D01*
X69544523Y-142711857D01*
X69544523Y-142807095D01*
X69496904Y-142949952D01*
X68925476Y-143521380D01*
X69544523Y-143521380D01*
X69925476Y-142616619D02*
X69973095Y-142569000D01*
X70068333Y-142521380D01*
X70306428Y-142521380D01*
X70401666Y-142569000D01*
X70449285Y-142616619D01*
X70496904Y-142711857D01*
X70496904Y-142807095D01*
X70449285Y-142949952D01*
X69877857Y-143521380D01*
X70496904Y-143521380D01*
G04 #@! TO.C,C23*
X83157142Y-96841142D02*
X83109523Y-96888761D01*
X82966666Y-96936380D01*
X82871428Y-96936380D01*
X82728571Y-96888761D01*
X82633333Y-96793523D01*
X82585714Y-96698285D01*
X82538095Y-96507809D01*
X82538095Y-96364952D01*
X82585714Y-96174476D01*
X82633333Y-96079238D01*
X82728571Y-95984000D01*
X82871428Y-95936380D01*
X82966666Y-95936380D01*
X83109523Y-95984000D01*
X83157142Y-96031619D01*
X83538095Y-96031619D02*
X83585714Y-95984000D01*
X83680952Y-95936380D01*
X83919047Y-95936380D01*
X84014285Y-95984000D01*
X84061904Y-96031619D01*
X84109523Y-96126857D01*
X84109523Y-96222095D01*
X84061904Y-96364952D01*
X83490476Y-96936380D01*
X84109523Y-96936380D01*
X84442857Y-95936380D02*
X85061904Y-95936380D01*
X84728571Y-96317333D01*
X84871428Y-96317333D01*
X84966666Y-96364952D01*
X85014285Y-96412571D01*
X85061904Y-96507809D01*
X85061904Y-96745904D01*
X85014285Y-96841142D01*
X84966666Y-96888761D01*
X84871428Y-96936380D01*
X84585714Y-96936380D01*
X84490476Y-96888761D01*
X84442857Y-96841142D01*
G04 #@! TO.C,C24*
X61567142Y-81316142D02*
X61519523Y-81363761D01*
X61376666Y-81411380D01*
X61281428Y-81411380D01*
X61138571Y-81363761D01*
X61043333Y-81268523D01*
X60995714Y-81173285D01*
X60948095Y-80982809D01*
X60948095Y-80839952D01*
X60995714Y-80649476D01*
X61043333Y-80554238D01*
X61138571Y-80459000D01*
X61281428Y-80411380D01*
X61376666Y-80411380D01*
X61519523Y-80459000D01*
X61567142Y-80506619D01*
X61948095Y-80506619D02*
X61995714Y-80459000D01*
X62090952Y-80411380D01*
X62329047Y-80411380D01*
X62424285Y-80459000D01*
X62471904Y-80506619D01*
X62519523Y-80601857D01*
X62519523Y-80697095D01*
X62471904Y-80839952D01*
X61900476Y-81411380D01*
X62519523Y-81411380D01*
X63376666Y-80744714D02*
X63376666Y-81411380D01*
X63138571Y-80363761D02*
X62900476Y-81078047D01*
X63519523Y-81078047D01*
G04 #@! TO.C,C25*
X81887142Y-145046142D02*
X81839523Y-145093761D01*
X81696666Y-145141380D01*
X81601428Y-145141380D01*
X81458571Y-145093761D01*
X81363333Y-144998523D01*
X81315714Y-144903285D01*
X81268095Y-144712809D01*
X81268095Y-144569952D01*
X81315714Y-144379476D01*
X81363333Y-144284238D01*
X81458571Y-144189000D01*
X81601428Y-144141380D01*
X81696666Y-144141380D01*
X81839523Y-144189000D01*
X81887142Y-144236619D01*
X82268095Y-144236619D02*
X82315714Y-144189000D01*
X82410952Y-144141380D01*
X82649047Y-144141380D01*
X82744285Y-144189000D01*
X82791904Y-144236619D01*
X82839523Y-144331857D01*
X82839523Y-144427095D01*
X82791904Y-144569952D01*
X82220476Y-145141380D01*
X82839523Y-145141380D01*
X83744285Y-144141380D02*
X83268095Y-144141380D01*
X83220476Y-144617571D01*
X83268095Y-144569952D01*
X83363333Y-144522333D01*
X83601428Y-144522333D01*
X83696666Y-144569952D01*
X83744285Y-144617571D01*
X83791904Y-144712809D01*
X83791904Y-144950904D01*
X83744285Y-145046142D01*
X83696666Y-145093761D01*
X83601428Y-145141380D01*
X83363333Y-145141380D01*
X83268095Y-145093761D01*
X83220476Y-145046142D01*
G04 #@! TO.C,C26*
X74902142Y-95516142D02*
X74854523Y-95563761D01*
X74711666Y-95611380D01*
X74616428Y-95611380D01*
X74473571Y-95563761D01*
X74378333Y-95468523D01*
X74330714Y-95373285D01*
X74283095Y-95182809D01*
X74283095Y-95039952D01*
X74330714Y-94849476D01*
X74378333Y-94754238D01*
X74473571Y-94659000D01*
X74616428Y-94611380D01*
X74711666Y-94611380D01*
X74854523Y-94659000D01*
X74902142Y-94706619D01*
X75283095Y-94706619D02*
X75330714Y-94659000D01*
X75425952Y-94611380D01*
X75664047Y-94611380D01*
X75759285Y-94659000D01*
X75806904Y-94706619D01*
X75854523Y-94801857D01*
X75854523Y-94897095D01*
X75806904Y-95039952D01*
X75235476Y-95611380D01*
X75854523Y-95611380D01*
X76711666Y-94611380D02*
X76521190Y-94611380D01*
X76425952Y-94659000D01*
X76378333Y-94706619D01*
X76283095Y-94849476D01*
X76235476Y-95039952D01*
X76235476Y-95420904D01*
X76283095Y-95516142D01*
X76330714Y-95563761D01*
X76425952Y-95611380D01*
X76616428Y-95611380D01*
X76711666Y-95563761D01*
X76759285Y-95516142D01*
X76806904Y-95420904D01*
X76806904Y-95182809D01*
X76759285Y-95087571D01*
X76711666Y-95039952D01*
X76616428Y-94992333D01*
X76425952Y-94992333D01*
X76330714Y-95039952D01*
X76283095Y-95087571D01*
X76235476Y-95182809D01*
G04 #@! TO.C,C27*
X81927142Y-146371142D02*
X81879523Y-146418761D01*
X81736666Y-146466380D01*
X81641428Y-146466380D01*
X81498571Y-146418761D01*
X81403333Y-146323523D01*
X81355714Y-146228285D01*
X81308095Y-146037809D01*
X81308095Y-145894952D01*
X81355714Y-145704476D01*
X81403333Y-145609238D01*
X81498571Y-145514000D01*
X81641428Y-145466380D01*
X81736666Y-145466380D01*
X81879523Y-145514000D01*
X81927142Y-145561619D01*
X82308095Y-145561619D02*
X82355714Y-145514000D01*
X82450952Y-145466380D01*
X82689047Y-145466380D01*
X82784285Y-145514000D01*
X82831904Y-145561619D01*
X82879523Y-145656857D01*
X82879523Y-145752095D01*
X82831904Y-145894952D01*
X82260476Y-146466380D01*
X82879523Y-146466380D01*
X83212857Y-145466380D02*
X83879523Y-145466380D01*
X83450952Y-146466380D01*
G04 #@! TO.C,C28*
X62877142Y-143426142D02*
X62829523Y-143473761D01*
X62686666Y-143521380D01*
X62591428Y-143521380D01*
X62448571Y-143473761D01*
X62353333Y-143378523D01*
X62305714Y-143283285D01*
X62258095Y-143092809D01*
X62258095Y-142949952D01*
X62305714Y-142759476D01*
X62353333Y-142664238D01*
X62448571Y-142569000D01*
X62591428Y-142521380D01*
X62686666Y-142521380D01*
X62829523Y-142569000D01*
X62877142Y-142616619D01*
X63258095Y-142616619D02*
X63305714Y-142569000D01*
X63400952Y-142521380D01*
X63639047Y-142521380D01*
X63734285Y-142569000D01*
X63781904Y-142616619D01*
X63829523Y-142711857D01*
X63829523Y-142807095D01*
X63781904Y-142949952D01*
X63210476Y-143521380D01*
X63829523Y-143521380D01*
X64400952Y-142949952D02*
X64305714Y-142902333D01*
X64258095Y-142854714D01*
X64210476Y-142759476D01*
X64210476Y-142711857D01*
X64258095Y-142616619D01*
X64305714Y-142569000D01*
X64400952Y-142521380D01*
X64591428Y-142521380D01*
X64686666Y-142569000D01*
X64734285Y-142616619D01*
X64781904Y-142711857D01*
X64781904Y-142759476D01*
X64734285Y-142854714D01*
X64686666Y-142902333D01*
X64591428Y-142949952D01*
X64400952Y-142949952D01*
X64305714Y-142997571D01*
X64258095Y-143045190D01*
X64210476Y-143140428D01*
X64210476Y-143330904D01*
X64258095Y-143426142D01*
X64305714Y-143473761D01*
X64400952Y-143521380D01*
X64591428Y-143521380D01*
X64686666Y-143473761D01*
X64734285Y-143426142D01*
X64781904Y-143330904D01*
X64781904Y-143140428D01*
X64734285Y-143045190D01*
X64686666Y-142997571D01*
X64591428Y-142949952D01*
G04 #@! TO.C,C29*
X73672142Y-145046142D02*
X73624523Y-145093761D01*
X73481666Y-145141380D01*
X73386428Y-145141380D01*
X73243571Y-145093761D01*
X73148333Y-144998523D01*
X73100714Y-144903285D01*
X73053095Y-144712809D01*
X73053095Y-144569952D01*
X73100714Y-144379476D01*
X73148333Y-144284238D01*
X73243571Y-144189000D01*
X73386428Y-144141380D01*
X73481666Y-144141380D01*
X73624523Y-144189000D01*
X73672142Y-144236619D01*
X74053095Y-144236619D02*
X74100714Y-144189000D01*
X74195952Y-144141380D01*
X74434047Y-144141380D01*
X74529285Y-144189000D01*
X74576904Y-144236619D01*
X74624523Y-144331857D01*
X74624523Y-144427095D01*
X74576904Y-144569952D01*
X74005476Y-145141380D01*
X74624523Y-145141380D01*
X75100714Y-145141380D02*
X75291190Y-145141380D01*
X75386428Y-145093761D01*
X75434047Y-145046142D01*
X75529285Y-144903285D01*
X75576904Y-144712809D01*
X75576904Y-144331857D01*
X75529285Y-144236619D01*
X75481666Y-144189000D01*
X75386428Y-144141380D01*
X75195952Y-144141380D01*
X75100714Y-144189000D01*
X75053095Y-144236619D01*
X75005476Y-144331857D01*
X75005476Y-144569952D01*
X75053095Y-144665190D01*
X75100714Y-144712809D01*
X75195952Y-144760428D01*
X75386428Y-144760428D01*
X75481666Y-144712809D01*
X75529285Y-144665190D01*
X75576904Y-144569952D01*
G04 #@! TO.C,C30*
X72997142Y-81316142D02*
X72949523Y-81363761D01*
X72806666Y-81411380D01*
X72711428Y-81411380D01*
X72568571Y-81363761D01*
X72473333Y-81268523D01*
X72425714Y-81173285D01*
X72378095Y-80982809D01*
X72378095Y-80839952D01*
X72425714Y-80649476D01*
X72473333Y-80554238D01*
X72568571Y-80459000D01*
X72711428Y-80411380D01*
X72806666Y-80411380D01*
X72949523Y-80459000D01*
X72997142Y-80506619D01*
X73330476Y-80411380D02*
X73949523Y-80411380D01*
X73616190Y-80792333D01*
X73759047Y-80792333D01*
X73854285Y-80839952D01*
X73901904Y-80887571D01*
X73949523Y-80982809D01*
X73949523Y-81220904D01*
X73901904Y-81316142D01*
X73854285Y-81363761D01*
X73759047Y-81411380D01*
X73473333Y-81411380D01*
X73378095Y-81363761D01*
X73330476Y-81316142D01*
X74568571Y-80411380D02*
X74663809Y-80411380D01*
X74759047Y-80459000D01*
X74806666Y-80506619D01*
X74854285Y-80601857D01*
X74901904Y-80792333D01*
X74901904Y-81030428D01*
X74854285Y-81220904D01*
X74806666Y-81316142D01*
X74759047Y-81363761D01*
X74663809Y-81411380D01*
X74568571Y-81411380D01*
X74473333Y-81363761D01*
X74425714Y-81316142D01*
X74378095Y-81220904D01*
X74330476Y-81030428D01*
X74330476Y-80792333D01*
X74378095Y-80601857D01*
X74425714Y-80506619D01*
X74473333Y-80459000D01*
X74568571Y-80411380D01*
G04 #@! TO.C,C31*
X76212142Y-142156142D02*
X76164523Y-142203761D01*
X76021666Y-142251380D01*
X75926428Y-142251380D01*
X75783571Y-142203761D01*
X75688333Y-142108523D01*
X75640714Y-142013285D01*
X75593095Y-141822809D01*
X75593095Y-141679952D01*
X75640714Y-141489476D01*
X75688333Y-141394238D01*
X75783571Y-141299000D01*
X75926428Y-141251380D01*
X76021666Y-141251380D01*
X76164523Y-141299000D01*
X76212142Y-141346619D01*
X76545476Y-141251380D02*
X77164523Y-141251380D01*
X76831190Y-141632333D01*
X76974047Y-141632333D01*
X77069285Y-141679952D01*
X77116904Y-141727571D01*
X77164523Y-141822809D01*
X77164523Y-142060904D01*
X77116904Y-142156142D01*
X77069285Y-142203761D01*
X76974047Y-142251380D01*
X76688333Y-142251380D01*
X76593095Y-142203761D01*
X76545476Y-142156142D01*
X78116904Y-142251380D02*
X77545476Y-142251380D01*
X77831190Y-142251380D02*
X77831190Y-141251380D01*
X77735952Y-141394238D01*
X77640714Y-141489476D01*
X77545476Y-141537095D01*
G04 #@! TO.C,C32*
X75196142Y-76330642D02*
X75148523Y-76378261D01*
X75005666Y-76425880D01*
X74910428Y-76425880D01*
X74767571Y-76378261D01*
X74672333Y-76283023D01*
X74624714Y-76187785D01*
X74577095Y-75997309D01*
X74577095Y-75854452D01*
X74624714Y-75663976D01*
X74672333Y-75568738D01*
X74767571Y-75473500D01*
X74910428Y-75425880D01*
X75005666Y-75425880D01*
X75148523Y-75473500D01*
X75196142Y-75521119D01*
X75529476Y-75425880D02*
X76148523Y-75425880D01*
X75815190Y-75806833D01*
X75958047Y-75806833D01*
X76053285Y-75854452D01*
X76100904Y-75902071D01*
X76148523Y-75997309D01*
X76148523Y-76235404D01*
X76100904Y-76330642D01*
X76053285Y-76378261D01*
X75958047Y-76425880D01*
X75672333Y-76425880D01*
X75577095Y-76378261D01*
X75529476Y-76330642D01*
X76529476Y-75521119D02*
X76577095Y-75473500D01*
X76672333Y-75425880D01*
X76910428Y-75425880D01*
X77005666Y-75473500D01*
X77053285Y-75521119D01*
X77100904Y-75616357D01*
X77100904Y-75711595D01*
X77053285Y-75854452D01*
X76481857Y-76425880D01*
X77100904Y-76425880D01*
G04 #@! TO.C,C33*
X102818642Y-76521142D02*
X102771023Y-76568761D01*
X102628166Y-76616380D01*
X102532928Y-76616380D01*
X102390071Y-76568761D01*
X102294833Y-76473523D01*
X102247214Y-76378285D01*
X102199595Y-76187809D01*
X102199595Y-76044952D01*
X102247214Y-75854476D01*
X102294833Y-75759238D01*
X102390071Y-75664000D01*
X102532928Y-75616380D01*
X102628166Y-75616380D01*
X102771023Y-75664000D01*
X102818642Y-75711619D01*
X103151976Y-75616380D02*
X103771023Y-75616380D01*
X103437690Y-75997333D01*
X103580547Y-75997333D01*
X103675785Y-76044952D01*
X103723404Y-76092571D01*
X103771023Y-76187809D01*
X103771023Y-76425904D01*
X103723404Y-76521142D01*
X103675785Y-76568761D01*
X103580547Y-76616380D01*
X103294833Y-76616380D01*
X103199595Y-76568761D01*
X103151976Y-76521142D01*
X104104357Y-75616380D02*
X104723404Y-75616380D01*
X104390071Y-75997333D01*
X104532928Y-75997333D01*
X104628166Y-76044952D01*
X104675785Y-76092571D01*
X104723404Y-76187809D01*
X104723404Y-76425904D01*
X104675785Y-76521142D01*
X104628166Y-76568761D01*
X104532928Y-76616380D01*
X104247214Y-76616380D01*
X104151976Y-76568761D01*
X104104357Y-76521142D01*
G04 #@! TO.C,C34*
X74267142Y-50939142D02*
X74219523Y-50986761D01*
X74076666Y-51034380D01*
X73981428Y-51034380D01*
X73838571Y-50986761D01*
X73743333Y-50891523D01*
X73695714Y-50796285D01*
X73648095Y-50605809D01*
X73648095Y-50462952D01*
X73695714Y-50272476D01*
X73743333Y-50177238D01*
X73838571Y-50082000D01*
X73981428Y-50034380D01*
X74076666Y-50034380D01*
X74219523Y-50082000D01*
X74267142Y-50129619D01*
X74600476Y-50034380D02*
X75219523Y-50034380D01*
X74886190Y-50415333D01*
X75029047Y-50415333D01*
X75124285Y-50462952D01*
X75171904Y-50510571D01*
X75219523Y-50605809D01*
X75219523Y-50843904D01*
X75171904Y-50939142D01*
X75124285Y-50986761D01*
X75029047Y-51034380D01*
X74743333Y-51034380D01*
X74648095Y-50986761D01*
X74600476Y-50939142D01*
X76076666Y-50367714D02*
X76076666Y-51034380D01*
X75838571Y-49986761D02*
X75600476Y-50701047D01*
X76219523Y-50701047D01*
G04 #@! TO.C,C35*
X102247142Y-46367142D02*
X102199523Y-46414761D01*
X102056666Y-46462380D01*
X101961428Y-46462380D01*
X101818571Y-46414761D01*
X101723333Y-46319523D01*
X101675714Y-46224285D01*
X101628095Y-46033809D01*
X101628095Y-45890952D01*
X101675714Y-45700476D01*
X101723333Y-45605238D01*
X101818571Y-45510000D01*
X101961428Y-45462380D01*
X102056666Y-45462380D01*
X102199523Y-45510000D01*
X102247142Y-45557619D01*
X102580476Y-45462380D02*
X103199523Y-45462380D01*
X102866190Y-45843333D01*
X103009047Y-45843333D01*
X103104285Y-45890952D01*
X103151904Y-45938571D01*
X103199523Y-46033809D01*
X103199523Y-46271904D01*
X103151904Y-46367142D01*
X103104285Y-46414761D01*
X103009047Y-46462380D01*
X102723333Y-46462380D01*
X102628095Y-46414761D01*
X102580476Y-46367142D01*
X104104285Y-45462380D02*
X103628095Y-45462380D01*
X103580476Y-45938571D01*
X103628095Y-45890952D01*
X103723333Y-45843333D01*
X103961428Y-45843333D01*
X104056666Y-45890952D01*
X104104285Y-45938571D01*
X104151904Y-46033809D01*
X104151904Y-46271904D01*
X104104285Y-46367142D01*
X104056666Y-46414761D01*
X103961428Y-46462380D01*
X103723333Y-46462380D01*
X103628095Y-46414761D01*
X103580476Y-46367142D01*
G04 #@! TO.C,C36*
X72847142Y-35861857D02*
X72894761Y-35909476D01*
X72942380Y-36052333D01*
X72942380Y-36147571D01*
X72894761Y-36290428D01*
X72799523Y-36385666D01*
X72704285Y-36433285D01*
X72513809Y-36480904D01*
X72370952Y-36480904D01*
X72180476Y-36433285D01*
X72085238Y-36385666D01*
X71990000Y-36290428D01*
X71942380Y-36147571D01*
X71942380Y-36052333D01*
X71990000Y-35909476D01*
X72037619Y-35861857D01*
X71942380Y-35528523D02*
X71942380Y-34909476D01*
X72323333Y-35242809D01*
X72323333Y-35099952D01*
X72370952Y-35004714D01*
X72418571Y-34957095D01*
X72513809Y-34909476D01*
X72751904Y-34909476D01*
X72847142Y-34957095D01*
X72894761Y-35004714D01*
X72942380Y-35099952D01*
X72942380Y-35385666D01*
X72894761Y-35480904D01*
X72847142Y-35528523D01*
X71942380Y-34052333D02*
X71942380Y-34242809D01*
X71990000Y-34338047D01*
X72037619Y-34385666D01*
X72180476Y-34480904D01*
X72370952Y-34528523D01*
X72751904Y-34528523D01*
X72847142Y-34480904D01*
X72894761Y-34433285D01*
X72942380Y-34338047D01*
X72942380Y-34147571D01*
X72894761Y-34052333D01*
X72847142Y-34004714D01*
X72751904Y-33957095D01*
X72513809Y-33957095D01*
X72418571Y-34004714D01*
X72370952Y-34052333D01*
X72323333Y-34147571D01*
X72323333Y-34338047D01*
X72370952Y-34433285D01*
X72418571Y-34480904D01*
X72513809Y-34528523D01*
G04 #@! TO.C,C37*
X84912142Y-35861857D02*
X84959761Y-35909476D01*
X85007380Y-36052333D01*
X85007380Y-36147571D01*
X84959761Y-36290428D01*
X84864523Y-36385666D01*
X84769285Y-36433285D01*
X84578809Y-36480904D01*
X84435952Y-36480904D01*
X84245476Y-36433285D01*
X84150238Y-36385666D01*
X84055000Y-36290428D01*
X84007380Y-36147571D01*
X84007380Y-36052333D01*
X84055000Y-35909476D01*
X84102619Y-35861857D01*
X84007380Y-35528523D02*
X84007380Y-34909476D01*
X84388333Y-35242809D01*
X84388333Y-35099952D01*
X84435952Y-35004714D01*
X84483571Y-34957095D01*
X84578809Y-34909476D01*
X84816904Y-34909476D01*
X84912142Y-34957095D01*
X84959761Y-35004714D01*
X85007380Y-35099952D01*
X85007380Y-35385666D01*
X84959761Y-35480904D01*
X84912142Y-35528523D01*
X84007380Y-34576142D02*
X84007380Y-33909476D01*
X85007380Y-34338047D01*
G04 #@! TO.C,J1*
X53073333Y-204539904D02*
X53073333Y-205111333D01*
X53035238Y-205225619D01*
X52959047Y-205301809D01*
X52844761Y-205339904D01*
X52768571Y-205339904D01*
X53873333Y-205339904D02*
X53416190Y-205339904D01*
X53644761Y-205339904D02*
X53644761Y-204539904D01*
X53568571Y-204654190D01*
X53492380Y-204730380D01*
X53416190Y-204768476D01*
D12*
X45650571Y-211253428D02*
X45650571Y-211682000D01*
X45622000Y-211767714D01*
X45564857Y-211824857D01*
X45479142Y-211853428D01*
X45422000Y-211853428D01*
X45907714Y-211682000D02*
X46193428Y-211682000D01*
X45850571Y-211853428D02*
X46050571Y-211253428D01*
X46250571Y-211853428D01*
X46793428Y-211796285D02*
X46764857Y-211824857D01*
X46679142Y-211853428D01*
X46622000Y-211853428D01*
X46536285Y-211824857D01*
X46479142Y-211767714D01*
X46450571Y-211710571D01*
X46422000Y-211596285D01*
X46422000Y-211510571D01*
X46450571Y-211396285D01*
X46479142Y-211339142D01*
X46536285Y-211282000D01*
X46622000Y-211253428D01*
X46679142Y-211253428D01*
X46764857Y-211282000D01*
X46793428Y-211310571D01*
X47050571Y-211853428D02*
X47050571Y-211253428D01*
X47393428Y-211853428D02*
X47136285Y-211510571D01*
X47393428Y-211253428D02*
X47050571Y-211596285D01*
X47507714Y-211910571D02*
X47964857Y-211910571D01*
X48022000Y-211253428D02*
X48364857Y-211253428D01*
X48193428Y-211853428D02*
X48193428Y-211253428D01*
X48907714Y-211853428D02*
X48707714Y-211567714D01*
X48564857Y-211853428D02*
X48564857Y-211253428D01*
X48793428Y-211253428D01*
X48850571Y-211282000D01*
X48879142Y-211310571D01*
X48907714Y-211367714D01*
X48907714Y-211453428D01*
X48879142Y-211510571D01*
X48850571Y-211539142D01*
X48793428Y-211567714D01*
X48564857Y-211567714D01*
X49136285Y-211824857D02*
X49222000Y-211853428D01*
X49364857Y-211853428D01*
X49422000Y-211824857D01*
X49450571Y-211796285D01*
X49479142Y-211739142D01*
X49479142Y-211682000D01*
X49450571Y-211624857D01*
X49422000Y-211596285D01*
X49364857Y-211567714D01*
X49250571Y-211539142D01*
X49193428Y-211510571D01*
X49164857Y-211482000D01*
X49136285Y-211424857D01*
X49136285Y-211367714D01*
X49164857Y-211310571D01*
X49193428Y-211282000D01*
X49250571Y-211253428D01*
X49393428Y-211253428D01*
X49479142Y-211282000D01*
X49593428Y-211910571D02*
X50050571Y-211910571D01*
X50136285Y-211253428D02*
X50507714Y-211253428D01*
X50307714Y-211482000D01*
X50393428Y-211482000D01*
X50450571Y-211510571D01*
X50479142Y-211539142D01*
X50507714Y-211596285D01*
X50507714Y-211739142D01*
X50479142Y-211796285D01*
X50450571Y-211824857D01*
X50393428Y-211853428D01*
X50222000Y-211853428D01*
X50164857Y-211824857D01*
X50136285Y-211796285D01*
X50764857Y-211853428D02*
X50764857Y-211253428D01*
X50993428Y-211253428D01*
X51050571Y-211282000D01*
X51079142Y-211310571D01*
X51107714Y-211367714D01*
X51107714Y-211453428D01*
X51079142Y-211510571D01*
X51050571Y-211539142D01*
X50993428Y-211567714D01*
X50764857Y-211567714D01*
X51364857Y-211853428D02*
X51364857Y-211253428D01*
X51650571Y-211853428D02*
X51650571Y-211253428D01*
X51993428Y-211853428D01*
X51993428Y-211253428D01*
X52250571Y-211824857D02*
X52336285Y-211853428D01*
X52479142Y-211853428D01*
X52536285Y-211824857D01*
X52564857Y-211796285D01*
X52593428Y-211739142D01*
X52593428Y-211682000D01*
X52564857Y-211624857D01*
X52536285Y-211596285D01*
X52479142Y-211567714D01*
X52364857Y-211539142D01*
X52307714Y-211510571D01*
X52279142Y-211482000D01*
X52250571Y-211424857D01*
X52250571Y-211367714D01*
X52279142Y-211310571D01*
X52307714Y-211282000D01*
X52364857Y-211253428D01*
X52507714Y-211253428D01*
X52593428Y-211282000D01*
G04 #@! TO.C,J2*
D11*
X79997333Y-28716904D02*
X79997333Y-29288333D01*
X79959238Y-29402619D01*
X79883047Y-29478809D01*
X79768761Y-29516904D01*
X79692571Y-29516904D01*
X80340190Y-28793095D02*
X80378285Y-28755000D01*
X80454476Y-28716904D01*
X80644952Y-28716904D01*
X80721142Y-28755000D01*
X80759238Y-28793095D01*
X80797333Y-28869285D01*
X80797333Y-28945476D01*
X80759238Y-29059761D01*
X80302095Y-29516904D01*
X80797333Y-29516904D01*
D12*
X81210571Y-22222428D02*
X81210571Y-22651000D01*
X81182000Y-22736714D01*
X81124857Y-22793857D01*
X81039142Y-22822428D01*
X80982000Y-22822428D01*
X81467714Y-22651000D02*
X81753428Y-22651000D01*
X81410571Y-22822428D02*
X81610571Y-22222428D01*
X81810571Y-22822428D01*
X82353428Y-22765285D02*
X82324857Y-22793857D01*
X82239142Y-22822428D01*
X82182000Y-22822428D01*
X82096285Y-22793857D01*
X82039142Y-22736714D01*
X82010571Y-22679571D01*
X81982000Y-22565285D01*
X81982000Y-22479571D01*
X82010571Y-22365285D01*
X82039142Y-22308142D01*
X82096285Y-22251000D01*
X82182000Y-22222428D01*
X82239142Y-22222428D01*
X82324857Y-22251000D01*
X82353428Y-22279571D01*
X82610571Y-22822428D02*
X82610571Y-22222428D01*
X82953428Y-22822428D02*
X82696285Y-22479571D01*
X82953428Y-22222428D02*
X82610571Y-22565285D01*
X83067714Y-22879571D02*
X83524857Y-22879571D01*
X83582000Y-22222428D02*
X83924857Y-22222428D01*
X83753428Y-22822428D02*
X83753428Y-22222428D01*
X84467714Y-22822428D02*
X84267714Y-22536714D01*
X84124857Y-22822428D02*
X84124857Y-22222428D01*
X84353428Y-22222428D01*
X84410571Y-22251000D01*
X84439142Y-22279571D01*
X84467714Y-22336714D01*
X84467714Y-22422428D01*
X84439142Y-22479571D01*
X84410571Y-22508142D01*
X84353428Y-22536714D01*
X84124857Y-22536714D01*
X84696285Y-22793857D02*
X84782000Y-22822428D01*
X84924857Y-22822428D01*
X84982000Y-22793857D01*
X85010571Y-22765285D01*
X85039142Y-22708142D01*
X85039142Y-22651000D01*
X85010571Y-22593857D01*
X84982000Y-22565285D01*
X84924857Y-22536714D01*
X84810571Y-22508142D01*
X84753428Y-22479571D01*
X84724857Y-22451000D01*
X84696285Y-22393857D01*
X84696285Y-22336714D01*
X84724857Y-22279571D01*
X84753428Y-22251000D01*
X84810571Y-22222428D01*
X84953428Y-22222428D01*
X85039142Y-22251000D01*
X85153428Y-22879571D02*
X85610571Y-22879571D01*
X85696285Y-22222428D02*
X86067714Y-22222428D01*
X85867714Y-22451000D01*
X85953428Y-22451000D01*
X86010571Y-22479571D01*
X86039142Y-22508142D01*
X86067714Y-22565285D01*
X86067714Y-22708142D01*
X86039142Y-22765285D01*
X86010571Y-22793857D01*
X85953428Y-22822428D01*
X85782000Y-22822428D01*
X85724857Y-22793857D01*
X85696285Y-22765285D01*
X86324857Y-22822428D02*
X86324857Y-22222428D01*
X86553428Y-22222428D01*
X86610571Y-22251000D01*
X86639142Y-22279571D01*
X86667714Y-22336714D01*
X86667714Y-22422428D01*
X86639142Y-22479571D01*
X86610571Y-22508142D01*
X86553428Y-22536714D01*
X86324857Y-22536714D01*
X86924857Y-22822428D02*
X86924857Y-22222428D01*
X87210571Y-22822428D02*
X87210571Y-22222428D01*
X87553428Y-22822428D01*
X87553428Y-22222428D01*
X87810571Y-22793857D02*
X87896285Y-22822428D01*
X88039142Y-22822428D01*
X88096285Y-22793857D01*
X88124857Y-22765285D01*
X88153428Y-22708142D01*
X88153428Y-22651000D01*
X88124857Y-22593857D01*
X88096285Y-22565285D01*
X88039142Y-22536714D01*
X87924857Y-22508142D01*
X87867714Y-22479571D01*
X87839142Y-22451000D01*
X87810571Y-22393857D01*
X87810571Y-22336714D01*
X87839142Y-22279571D01*
X87867714Y-22251000D01*
X87924857Y-22222428D01*
X88067714Y-22222428D01*
X88153428Y-22251000D01*
G04 #@! TO.C,J3*
D11*
X114249666Y-109665380D02*
X114249666Y-110379666D01*
X114202047Y-110522523D01*
X114106809Y-110617761D01*
X113963952Y-110665380D01*
X113868714Y-110665380D01*
X114630619Y-109665380D02*
X115249666Y-109665380D01*
X114916333Y-110046333D01*
X115059190Y-110046333D01*
X115154428Y-110093952D01*
X115202047Y-110141571D01*
X115249666Y-110236809D01*
X115249666Y-110474904D01*
X115202047Y-110570142D01*
X115154428Y-110617761D01*
X115059190Y-110665380D01*
X114773476Y-110665380D01*
X114678238Y-110617761D01*
X114630619Y-110570142D01*
G04 #@! TO.C,R1*
X56797380Y-199175666D02*
X56321190Y-199509000D01*
X56797380Y-199747095D02*
X55797380Y-199747095D01*
X55797380Y-199366142D01*
X55845000Y-199270904D01*
X55892619Y-199223285D01*
X55987857Y-199175666D01*
X56130714Y-199175666D01*
X56225952Y-199223285D01*
X56273571Y-199270904D01*
X56321190Y-199366142D01*
X56321190Y-199747095D01*
X56797380Y-198223285D02*
X56797380Y-198794714D01*
X56797380Y-198509000D02*
X55797380Y-198509000D01*
X55940238Y-198604238D01*
X56035476Y-198699476D01*
X56083095Y-198794714D01*
G04 #@! TO.C,R2*
X46637380Y-199175666D02*
X46161190Y-199509000D01*
X46637380Y-199747095D02*
X45637380Y-199747095D01*
X45637380Y-199366142D01*
X45685000Y-199270904D01*
X45732619Y-199223285D01*
X45827857Y-199175666D01*
X45970714Y-199175666D01*
X46065952Y-199223285D01*
X46113571Y-199270904D01*
X46161190Y-199366142D01*
X46161190Y-199747095D01*
X45732619Y-198794714D02*
X45685000Y-198747095D01*
X45637380Y-198651857D01*
X45637380Y-198413761D01*
X45685000Y-198318523D01*
X45732619Y-198270904D01*
X45827857Y-198223285D01*
X45923095Y-198223285D01*
X46065952Y-198270904D01*
X46637380Y-198842333D01*
X46637380Y-198223285D01*
G04 #@! TO.C,R3*
X70953333Y-59210380D02*
X70620000Y-58734190D01*
X70381904Y-59210380D02*
X70381904Y-58210380D01*
X70762857Y-58210380D01*
X70858095Y-58258000D01*
X70905714Y-58305619D01*
X70953333Y-58400857D01*
X70953333Y-58543714D01*
X70905714Y-58638952D01*
X70858095Y-58686571D01*
X70762857Y-58734190D01*
X70381904Y-58734190D01*
X71286666Y-58210380D02*
X71905714Y-58210380D01*
X71572380Y-58591333D01*
X71715238Y-58591333D01*
X71810476Y-58638952D01*
X71858095Y-58686571D01*
X71905714Y-58781809D01*
X71905714Y-59019904D01*
X71858095Y-59115142D01*
X71810476Y-59162761D01*
X71715238Y-59210380D01*
X71429523Y-59210380D01*
X71334285Y-59162761D01*
X71286666Y-59115142D01*
G04 #@! TO.C,R4*
X98893333Y-55146380D02*
X98560000Y-54670190D01*
X98321904Y-55146380D02*
X98321904Y-54146380D01*
X98702857Y-54146380D01*
X98798095Y-54194000D01*
X98845714Y-54241619D01*
X98893333Y-54336857D01*
X98893333Y-54479714D01*
X98845714Y-54574952D01*
X98798095Y-54622571D01*
X98702857Y-54670190D01*
X98321904Y-54670190D01*
X99750476Y-54479714D02*
X99750476Y-55146380D01*
X99512380Y-54098761D02*
X99274285Y-54813047D01*
X99893333Y-54813047D01*
G04 #@! TO.C,U1*
X64051380Y-105790904D02*
X64860904Y-105790904D01*
X64956142Y-105743285D01*
X65003761Y-105695666D01*
X65051380Y-105600428D01*
X65051380Y-105409952D01*
X65003761Y-105314714D01*
X64956142Y-105267095D01*
X64860904Y-105219476D01*
X64051380Y-105219476D01*
X65051380Y-104219476D02*
X65051380Y-104790904D01*
X65051380Y-104505190D02*
X64051380Y-104505190D01*
X64194238Y-104600428D01*
X64289476Y-104695666D01*
X64337095Y-104790904D01*
G04 #@! TO.C,U2*
X63289380Y-155447904D02*
X64098904Y-155447904D01*
X64194142Y-155400285D01*
X64241761Y-155352666D01*
X64289380Y-155257428D01*
X64289380Y-155066952D01*
X64241761Y-154971714D01*
X64194142Y-154924095D01*
X64098904Y-154876476D01*
X63289380Y-154876476D01*
X63384619Y-154447904D02*
X63337000Y-154400285D01*
X63289380Y-154305047D01*
X63289380Y-154066952D01*
X63337000Y-153971714D01*
X63384619Y-153924095D01*
X63479857Y-153876476D01*
X63575095Y-153876476D01*
X63717952Y-153924095D01*
X64289380Y-154495523D01*
X64289380Y-153876476D01*
G04 #@! TO.C,U4*
X93642380Y-64515904D02*
X94451904Y-64515904D01*
X94547142Y-64468285D01*
X94594761Y-64420666D01*
X94642380Y-64325428D01*
X94642380Y-64134952D01*
X94594761Y-64039714D01*
X94547142Y-63992095D01*
X94451904Y-63944476D01*
X93642380Y-63944476D01*
X93975714Y-63039714D02*
X94642380Y-63039714D01*
X93594761Y-63277809D02*
X94309047Y-63515904D01*
X94309047Y-62896857D01*
G04 #@! TO.C,U3*
X65702380Y-65150904D02*
X66511904Y-65150904D01*
X66607142Y-65103285D01*
X66654761Y-65055666D01*
X66702380Y-64960428D01*
X66702380Y-64769952D01*
X66654761Y-64674714D01*
X66607142Y-64627095D01*
X66511904Y-64579476D01*
X65702380Y-64579476D01*
X65702380Y-64198523D02*
X65702380Y-63579476D01*
X66083333Y-63912809D01*
X66083333Y-63769952D01*
X66130952Y-63674714D01*
X66178571Y-63627095D01*
X66273809Y-63579476D01*
X66511904Y-63579476D01*
X66607142Y-63627095D01*
X66654761Y-63674714D01*
X66702380Y-63769952D01*
X66702380Y-64055666D01*
X66654761Y-64150904D01*
X66607142Y-64198523D01*
G04 #@! TD*
M02*
