M48
;DRILL file {KiCad 5.0.0-fee4fd1~65~ubuntu16.04.1} date Sun Sep  9 14:28:21 2018
;FORMAT={-:-/ absolute / metric / decimal}
FMAT,2
METRIC,TZ
T1C0.400
T2C0.800
T3C0.920
T4C1.000
T5C1.200
T6C1.300
T7C2.330
%
G90
G05
M71
T1
X28.575Y-79.629
X28.575Y-85.344
X28.575Y-103.759
X28.575Y-108.204
X28.575Y-127.889
X28.575Y-132.334
X28.575Y-152.019
X28.575Y-157.099
X30.48Y-98.552
X30.48Y-110.236
X30.48Y-116.84
X30.48Y-132.08
X30.48Y-141.224
X30.48Y-155.956
X30.48Y-166.624
X30.48Y-170.18
X32.004Y-70.104
X32.004Y-86.36
X32.004Y-96.52
X32.004Y-111.252
X32.004Y-117.348
X32.004Y-135.636
X32.004Y-141.732
X32.004Y-159.512
X47.244Y-52.832
X47.244Y-55.88
X48.26Y-149.479
X48.26Y-173.609
X48.514Y-132.334
X49.276Y-57.912
X50.165Y-122.809
X50.165Y-145.669
X50.165Y-175.514
X51.308Y-92.329
X52.07Y-102.489
X52.07Y-143.129
X52.07Y-178.054
X53.34Y-179.324
X53.975Y-144.399
X53.975Y-146.939
X55.245Y-89.154
X55.372Y-92.329
X56.007Y-71.374
X57.785Y-146.939
X61.976Y-57.912
X65.024Y-91.44
X65.278Y-76.327
X65.405Y-71.882
X65.405Y-124.714
X68.58Y-125.984
X68.58Y-129.032
X69.215Y-73.152
X69.215Y-80.899
X72.136Y-73.66
X73.152Y-129.032
X75.692Y-130.429
X77.216Y-42.672
X81.026Y-132.334
X85.09Y-89.154
X85.852Y-81.788
X89.916Y-73.66
X90.932Y-42.672
X90.932Y-81.788
X91.44Y-91.44
X94.488Y-109.728
X94.488Y-120.904
T2
X81.915Y-162.179
X84.415Y-162.179
X81.32Y-143.764
X83.82Y-143.764
X66.04Y-112.649
X68.54Y-112.649
X74.589Y-73.724
X77.089Y-73.724
X71.12Y-112.649
X73.62Y-112.649
X73.065Y-146.939
X75.565Y-146.939
X101.64Y-48.26
X104.14Y-48.26
X53.975Y-193.929
X53.975Y-204.089
X43.815Y-193.929
X43.815Y-204.089
X65.405Y-162.179
X67.905Y-162.179
X75.605Y-169.164
X78.105Y-169.164
X75.565Y-162.179
X78.065Y-162.179
X67.985Y-139.319
X70.485Y-139.319
X80.685Y-169.164
X83.185Y-169.164
X64.81Y-169.164
X67.31Y-169.164
X102.212Y-73.914
X104.712Y-73.914
X96.52Y-59.944
X96.52Y-67.564
X99.06Y-59.944
X99.06Y-67.564
X101.6Y-59.944
X101.6Y-67.564
X104.14Y-59.944
X104.14Y-67.564
X68.58Y-60.579
X68.58Y-68.199
X71.12Y-60.579
X71.12Y-68.199
X73.66Y-60.579
X73.66Y-68.199
X76.2Y-60.579
X76.2Y-68.199
X66.167Y-150.876
X66.167Y-158.496
X68.707Y-150.876
X68.707Y-158.496
X71.247Y-150.876
X71.247Y-158.496
X73.787Y-150.876
X73.787Y-158.496
X76.327Y-150.876
X76.327Y-158.496
X78.867Y-150.876
X78.867Y-158.496
X81.407Y-150.876
X81.407Y-158.496
X83.947Y-150.876
X83.947Y-158.496
X74.295Y-97.409
X76.795Y-97.409
X70.485Y-162.179
X72.985Y-162.179
X66.929Y-101.219
X66.929Y-108.839
X69.469Y-101.219
X69.469Y-108.839
X72.009Y-101.219
X72.009Y-108.839
X74.549Y-101.219
X74.549Y-108.839
X77.089Y-101.219
X77.089Y-108.839
X79.629Y-101.219
X79.629Y-108.839
X82.169Y-101.219
X82.169Y-108.839
X84.709Y-101.219
X84.709Y-108.839
X60.96Y-84.709
X63.46Y-84.709
X75.605Y-138.049
X78.105Y-138.049
X76.875Y-119.634
X79.375Y-119.634
X72.39Y-84.709
X74.89Y-84.709
X82.55Y-94.234
X85.05Y-94.234
X66.08Y-119.634
X68.58Y-119.634
X98.425Y-118.364
X98.425Y-120.864
X82.55Y-97.409
X85.05Y-97.409
X71.795Y-119.634
X74.295Y-119.634
X81.28Y-146.939
X83.78Y-146.939
X81.28Y-112.649
X83.78Y-112.649
X66.715Y-84.709
X69.215Y-84.709
X62.27Y-139.319
X64.77Y-139.319
X53.975Y-187.579
X53.975Y-190.079
X43.815Y-187.579
X43.815Y-190.079
X81.955Y-119.634
X84.455Y-119.634
X93.98Y-52.324
X104.14Y-52.324
X76.2Y-112.649
X78.7Y-112.649
X70.525Y-169.164
X73.025Y-169.164
X66.04Y-56.388
X76.2Y-56.388
X73.66Y-52.832
X76.16Y-52.832
T3
X107.823Y-117.983
X107.823Y-120.483
X109.823Y-117.983
X109.823Y-120.483
T4
X90.805Y-32.719
X90.805Y-37.719
X78.74Y-32.719
X78.74Y-37.719
T5
X79.582Y-25.453
X84.582Y-20.447
X89.582Y-25.453
X44.022Y-208.68
X49.022Y-213.686
X54.022Y-208.68
T6
X36.83Y-71.933
X36.83Y-76.933
X36.83Y-81.933
X41.83Y-71.933
X41.83Y-76.933
X41.83Y-81.933
X36.83Y-120.294
X36.83Y-125.294
X36.83Y-130.294
X41.83Y-120.294
X41.83Y-125.294
X41.83Y-130.294
X36.83Y-144.475
X36.83Y-149.475
X36.83Y-154.475
X41.83Y-144.475
X41.83Y-149.475
X41.83Y-154.475
X36.83Y-96.114
X36.83Y-101.114
X36.83Y-106.114
X41.83Y-96.114
X41.83Y-101.114
X41.83Y-106.114
X36.83Y-47.752
X36.83Y-52.752
X36.83Y-57.752
X41.83Y-47.752
X41.83Y-52.752
X41.83Y-57.752
X36.83Y-168.656
X36.83Y-173.656
X36.83Y-178.656
X41.83Y-168.656
X41.83Y-173.656
X41.83Y-178.656
T7
X112.533Y-113.213
X112.533Y-125.253
T0
M30
